<svg xmlns="http://www.w3.org/2000/svg" width="900" height="560" viewBox="0 0 900 560" font-family="Segoe UI, Arial, sans-serif">
<rect x="0" y="0" width="900" height="560" rx="12" fill="#191b1f"/>
<defs>
<marker id="ad1" viewBox="0 0 10 10" refX="8" refY="5" markerWidth="8" markerHeight="8" orient="auto-start-reverse"><path d="M2 1L8 5L2 9" fill="none" stroke="#868e96" stroke-width="1.6" stroke-linecap="round" stroke-linejoin="round"/></marker>
</defs>
<text x="28" y="32" font-size="16" fill="#e6e8ea" font-weight="bold">EURUSD Daily - Ban do cau truc that (Jun 2012 - Mar 2013) va decision zone hien tai</text>
<text x="28" y="50" font-size="10.5" fill="#9aa0a6">Gia xap xi doc tu chart FXReplay - dung de minh hoa logic, khong phai gia chinh xac tuyet doi</text>

<!-- main chart panel -->
<rect x="28" y="66" width="844" height="430" rx="6" fill="#202329" stroke="#2a2d33"/>

<!-- price grid lines -->
<line x1="42" y1="490" x2="858" y2="490" stroke="#2a2d33" stroke-width="1"/>
<text x="862" y="494" font-size="9.5" fill="#868e96">1.205</text>
<line x1="42" y1="360" x2="858" y2="360" stroke="#2a2d33" stroke-width="1" stroke-dasharray="2 3"/>
<text x="862" y="364" font-size="9.5" fill="#868e96">1.280</text>
<line x1="42" y1="310" x2="858" y2="310" stroke="#f0a500" stroke-width="1.4" stroke-dasharray="5 4"/>
<text x="862" y="314" font-size="9.5" fill="#f0a500" font-weight="bold">1.305</text>
<line x1="42" y1="180" x2="858" y2="180" stroke="#fa5252" stroke-width="1" stroke-dasharray="2 3"/>
<text x="862" y="184" font-size="9.5" fill="#fa5252">1.370</text>

<!-- structure polyline -->
<polyline points="60,510 150,290 175,320 230,360 260,340 310,300 340,320 360,310 400,260 440,210 480,180 520,230 560,260 600,285 650,305" fill="none" stroke="#40c057" stroke-width="2.2"/>
<polyline points="480,180 520,230 560,260 600,285 650,305" fill="none" stroke="#fa5252" stroke-width="2.4"/>

<!-- markers -->
<circle cx="60" cy="510" r="4" fill="#9aa0a6"/>
<text x="40" y="530" font-size="9.5" fill="#9aa0a6">Day khoi dau ~1.205</text>

<circle cx="150" cy="290" r="4" fill="#40c057"/>
<text x="120" y="278" font-size="9.5" fill="#40c057">Swing High #1 ~1.315</text>

<circle cx="230" cy="360" r="4" fill="#40c057"/>
<text x="140" y="382" font-size="9.5" fill="#40c057">HL #1 ~1.280 (SSL du phong / target neu MSS that)</text>

<circle cx="310" cy="300" r="4" fill="#40c057"/>
<text x="300" y="288" font-size="9" fill="#9aa0a6">Equal-high yeu ~1.305-1.31 (thang 12)</text>

<circle cx="360" cy="310" r="6" fill="#f0a500" stroke="#191b1f" stroke-width="1.5"/>
<text x="365" y="345" font-size="10.5" fill="#f0a500" font-weight="bold">HL #2 = LAUNCH PAD ~1.305</text>
<text x="365" y="358" font-size="9.5" fill="#f0a500">(goc cua leg 3 - protected swing quan trong nhat)</text>

<circle cx="480" cy="180" r="5" fill="#fa5252"/>
<text x="440" y="168" font-size="10.5" fill="#fa5252" font-weight="bold">Swing High #2 ~1.370 = BSL swept</text>
<text x="440" y="200" font-size="9" fill="#9aa0a6">(quet BSL cua High #1 1.315 truoc khi dao)</text>

<circle cx="650" cy="305" r="7" fill="#e6e8ea" stroke="#191b1f" stroke-width="2"/>
<text x="662" y="300" font-size="11" fill="#e6e8ea" font-weight="bold">Gia hien tai ~1.3075</text>
<text x="662" y="315" font-size="9.5" fill="#e6e8ea">dang test lai chinh vung 1.305</text>

<!-- decision box -->
<rect x="655" y="340" width="190" height="120" rx="6" fill="#20262b" stroke="#f0a500" stroke-width="1.3"/>
<text x="665" y="360" font-size="10.5" fill="#f0a500" font-weight="bold">DECISION ZONE</text>
<text x="665" y="378" font-size="9.3" fill="#40c057">Reject (dong cua tren 1.305)</text>
<text x="665" y="391" font-size="9.3" fill="#40c057">= Pullback sau, bias tang con</text>
<text x="665" y="410" font-size="9.3" fill="#fa5252">Accept (dong cua duoi 1.305</text>
<text x="665" y="423" font-size="9.3" fill="#fa5252">+ retest tu duoi bi tu choi)</text>
<text x="665" y="436" font-size="9.3" fill="#fa5252">= MSS that, bias doi/trung lap</text>
<text x="665" y="452" font-size="8.8" fill="#9aa0a6">Target neu MSS: HL#1 ~1.28</text>

<line x1="360" y1="310" x2="650" y2="305" stroke="#868e96" stroke-width="1" stroke-dasharray="4 3" marker-end="url(#ad1)"/>
<text x="440" y="292" font-size="8.8" fill="#868e96">retracement gan het leg 3</text>

<text x="42" y="512" font-size="9" fill="#9aa0a6">Jun</text>
<text x="150" y="512" font-size="9" fill="#9aa0a6">Sep</text>
<text x="360" y="512" font-size="9" fill="#9aa0a6">Jan</text>
<text x="480" y="512" font-size="9" fill="#9aa0a6">Feb</text>
<text x="650" y="512" font-size="9" fill="#9aa0a6">Mar</text>
</svg>
