<svg xmlns="http://www.w3.org/2000/svg" width="860" height="350" viewBox="0 0 860 350" font-family="Segoe UI, Arial, sans-serif">
<rect x="0" y="0" width="860" height="350" rx="12" fill="#191b1f"/>
<defs>
<marker id="au3" viewBox="0 0 10 10" refX="8" refY="5" markerWidth="8" markerHeight="8" orient="auto-start-reverse"><path d="M2 1L8 5L2 9" fill="none" stroke="#40c057" stroke-width="1.8" stroke-linecap="round" stroke-linejoin="round"/></marker>
<marker id="ag3" viewBox="0 0 10 10" refX="8" refY="5" markerWidth="8" markerHeight="8" orient="auto-start-reverse"><path d="M2 1L8 5L2 9" fill="none" stroke="#9aa0a6" stroke-width="1.6" stroke-linecap="round" stroke-linejoin="round"/></marker>
</defs>
<text x="30" y="34" font-size="16" fill="#e6e8ea" font-weight="bold">Liquidity la fractal: 1 rau nen M15 tai CE = 1 cu sweep tren M1</text>

<rect x="30" y="58" width="360" height="252" rx="6" fill="#202329" stroke="#2a2d33"/>
<text x="44" y="82" font-size="12.5" fill="#e6e8ea" font-weight="bold">M15 - 1 rau nen dai tai CE</text>
<rect x="70" y="108" width="230" height="130" fill="#4b5563" opacity="0.2"/>
<text x="76" y="102" font-size="10.5" fill="#9775fa">H1 FVG</text>
<line x1="70" y1="170" x2="300" y2="170" stroke="#f0a500" stroke-width="1.2" stroke-dasharray="5 4"/>
<text x="264" y="165" font-size="10.5" fill="#f0a500">CE (50%)</text>
<polyline points="96,74 150,160" fill="none" stroke="#fa5252" stroke-width="2.2"/>
<line x1="168" y1="146" x2="168" y2="212" stroke="#fa5252" stroke-width="2"/>
<rect x="162" y="146" width="12" height="16" fill="#fa5252"/>
<polyline points="168,146 220,104 270,72" fill="none" stroke="#40c057" stroke-width="2.4" marker-end="url(#au3)"/>
<line x1="150" y1="248" x2="166" y2="214" stroke="#9aa0a6" stroke-width="1.3" marker-end="url(#ag3)"/>
<text x="90" y="266" font-size="11" fill="#9aa0a6">"trong giong sweep" nhung khong thay SSL</text>

<line x1="398" y1="180" x2="452" y2="180" stroke="#9aa0a6" stroke-width="1.4" stroke-dasharray="2 3" marker-end="url(#ag3)"/>
<text x="404" y="172" font-size="10.5" fill="#9aa0a6">zoom</text>

<rect x="470" y="58" width="360" height="252" rx="6" fill="#202329" stroke="#2a2d33"/>
<text x="484" y="82" font-size="12.5" fill="#e6e8ea" font-weight="bold">M1 - ben trong cai rau do</text>
<line x1="490" y1="196" x2="810" y2="196" stroke="#9aa0a6" stroke-width="1.1" stroke-dasharray="5 4"/>
<text x="560" y="191" font-size="10.5" fill="#e6e8ea">equal lows = SSL noi bo</text>
<polyline points="496,96 520,150 540,196 556,172 578,196 596,176 620,232" fill="none" stroke="#fa5252" stroke-width="2.2"/>
<polyline points="620,232 652,168 700,116 760,86" fill="none" stroke="#40c057" stroke-width="2.4" marker-end="url(#au3)"/>
<circle cx="620" cy="232" r="4.5" fill="#fa5252"/>
<text x="486" y="262" font-size="11" fill="#40c057">quet EQL noi bo -&gt; reclaim -&gt; displacement</text>
<text x="486" y="282" font-size="11" fill="#9aa0a6">SSL "vo hinh" o M15 hien ro o M1</text>

<text x="30" y="336" font-size="11.5" fill="#9aa0a6">Moi khung co luong thanh khoan tuong ung. Khong thay SSL o M15 khong co nghia la khong co - hay zoom xuong.</text>
</svg>