<svg xmlns="http://www.w3.org/2000/svg" width="860" height="360" viewBox="0 0 860 360" font-family="Segoe UI, Arial, sans-serif">
<rect x="0" y="0" width="860" height="360" rx="12" fill="#191b1f"/>
<defs>
<marker id="au2" viewBox="0 0 10 10" refX="8" refY="5" markerWidth="8" markerHeight="8" orient="auto-start-reverse"><path d="M2 1L8 5L2 9" fill="none" stroke="#40c057" stroke-width="1.8" stroke-linecap="round" stroke-linejoin="round"/></marker>
</defs>
<text x="30" y="34" font-size="16" fill="#e6e8ea" font-weight="bold">FVG khong phai Liquidity: "tap FVG" vs "FVG + SSL sweep"</text>

<rect x="30" y="56" width="390" height="248" rx="6" fill="#202329" stroke="#2a2d33"/>
<text x="44" y="80" font-size="12.5" fill="#f0a500" font-weight="bold">CHI TAP FVG  (rebalance, KHONG phai sweep)</text>
<rect x="60" y="110" width="330" height="90" fill="#4b5563" opacity="0.2"/>
<text x="66" y="104" font-size="10.5" fill="#9775fa">H1 FVG</text>
<polyline points="80,96 150,150 190,196" fill="none" stroke="#fa5252" stroke-width="2.2"/>
<polyline points="190,196 250,130 300,92" fill="none" stroke="#40c057" stroke-width="2.4" marker-end="url(#au2)"/>
<circle cx="190" cy="196" r="4.5" fill="#9aa0a6"/>
<text x="66" y="238" font-size="11" fill="#e6e8ea">Khong co day nao bi lay</text>
<text x="66" y="258" font-size="11" fill="#9aa0a6">= FVG rebalance / phan ung CE</text>
<text x="66" y="278" font-size="11" fill="#9aa0a6">-&gt; day KHONG phai liquidity sweep</text>

<rect x="440" y="56" width="390" height="248" rx="6" fill="#202329" stroke="#2a2d33"/>
<text x="454" y="80" font-size="12.5" fill="#40c057" font-weight="bold">FVG + SSL SWEEP  (2022 hop le)</text>
<rect x="470" y="110" width="340" height="90" fill="#4b5563" opacity="0.2"/>
<text x="476" y="104" font-size="10.5" fill="#9775fa">H1 FVG</text>
<line x1="470" y1="176" x2="810" y2="176" stroke="#9aa0a6" stroke-width="1.1" stroke-dasharray="5 4"/>
<text x="700" y="171" font-size="10.5" fill="#9aa0a6">SSL (day cu trong POI)</text>
<polyline points="480,92 508,168 526,175 544,158 576,210" fill="none" stroke="#fa5252" stroke-width="2.2"/>
<polyline points="576,210 606,158 646,110 700,80" fill="none" stroke="#40c057" stroke-width="2.4" marker-end="url(#au2)"/>
<circle cx="576" cy="210" r="4.5" fill="#fa5252"/>
<text x="476" y="238" font-size="11" fill="#e6e8ea">Day trong POI bi quet + reclaim</text>
<text x="476" y="258" font-size="11" fill="#9aa0a6">-&gt; sweep hop le -&gt; cho displacement + MSS</text>

<text x="30" y="336" font-size="11.5" fill="#9aa0a6">FVG = tra loi "O DAU gia phan ung"   |   Liquidity = stop duoi mot cai DAY   |   "Vao FVG" khac "quet mot cai day"</text>
</svg>