<svg xmlns="http://www.w3.org/2000/svg" width="860" height="350" viewBox="0 0 860 350" font-family="Segoe UI, Arial, sans-serif">
<rect x="0" y="0" width="860" height="350" rx="12" fill="#191b1f"/>
<text x="30" y="34" font-size="16" fill="#e6e8ea" font-weight="bold">Liquidity tich tu tuc thi + Trong so conviction (HTF &gt;&gt; LTF)</text>

<rect x="30" y="58" width="390" height="248" rx="6" fill="#202329" stroke="#2a2d33"/>
<text x="44" y="82" font-size="12.5" fill="#e6e8ea" font-weight="bold">Ben duoi 1 cai day co gi?</text>
<polyline points="60,96 112,138 168,92" fill="none" stroke="#40c057" stroke-width="2.2"/>
<polyline points="60,96 112,138" fill="none" stroke="#fa5252" stroke-width="2.2"/>
<line x1="44" y1="138" x2="400" y2="138" stroke="#9aa0a6" stroke-width="1.1" stroke-dasharray="5 4"/>
<text x="120" y="132" font-size="10.5" fill="#9aa0a6">day (low)</text>
<line x1="70" y1="156" x2="150" y2="156" stroke="#fa5252" stroke-width="3"/>
<line x1="80" y1="172" x2="160" y2="172" stroke="#fa5252" stroke-width="3"/>
<line x1="72" y1="188" x2="146" y2="188" stroke="#fa5252" stroke-width="3"/>
<text x="210" y="160" font-size="11" fill="#e6e8ea">&lt;- SL cua longs (lenh ban)</text>
<text x="210" y="188" font-size="11" fill="#e6e8ea">&lt;- sell-stop breakout sellers</text>
<text x="44" y="234" font-size="11" fill="#9aa0a6">Stop dat PHAN XA ngay khi day hien ro</text>
<text x="44" y="254" font-size="11" fill="#9aa0a6">(Schelling point) -&gt; khong can thoi gian</text>
<text x="44" y="274" font-size="11" fill="#f0a500">Do rong cua pool ty le voi do hien thi + khung</text>

<rect x="440" y="58" width="390" height="248" rx="6" fill="#202329" stroke="#2a2d33"/>
<text x="454" y="82" font-size="12.5" fill="#e6e8ea" font-weight="bold">Trong so conviction: HTF &gt;&gt; LTF</text>
<text x="454" y="106" font-size="10.5" fill="#c9ccd0">Weekly / Session H-L</text>
<rect x="454" y="112" width="300" height="15" fill="#9775fa" opacity="1.0"/>
<text x="760" y="124" font-size="10" fill="#9aa0a6">cao nhat</text>
<text x="454" y="148" font-size="10.5" fill="#c9ccd0">PDL / PDH, EQL lon (HTF)</text>
<rect x="454" y="154" width="235" height="15" fill="#9775fa" opacity="0.8"/>
<text x="695" y="166" font-size="10" fill="#9aa0a6">cao</text>
<text x="454" y="190" font-size="10.5" fill="#c9ccd0">M15 swing low</text>
<rect x="454" y="196" width="140" height="15" fill="#9775fa" opacity="0.55"/>
<text x="600" y="208" font-size="10" fill="#9aa0a6">trung binh</text>
<text x="454" y="232" font-size="10.5" fill="#c9ccd0">M1 internal low</text>
<rect x="454" y="238" width="70" height="15" fill="#9775fa" opacity="0.35"/>
<text x="530" y="250" font-size="10" fill="#9aa0a6">thap</text>
<text x="454" y="284" font-size="11" fill="#40c057">Internal M1 sweep = timing trigger, chi tinh trong HTF context</text>

<text x="30" y="336" font-size="11.5" fill="#9aa0a6">Ly do gia dao chieu nam o HTF. Cu sweep M1 la CO SUNG (timing), khong phai VIEN DAN (nguyen nhan).</text>
</svg>