<svg xmlns="http://www.w3.org/2000/svg" width="860" height="470" viewBox="0 0 860 470" font-family="Segoe UI, Arial, sans-serif">
<rect x="0" y="0" width="860" height="470" rx="12" fill="#191b1f"/>
<defs>
<marker id="au" viewBox="0 0 10 10" refX="8" refY="5" markerWidth="8" markerHeight="8" orient="auto-start-reverse"><path d="M2 1L8 5L2 9" fill="none" stroke="#40c057" stroke-width="1.8" stroke-linecap="round" stroke-linejoin="round"/></marker>
<marker id="ag" viewBox="0 0 10 10" refX="8" refY="5" markerWidth="8" markerHeight="8" orient="auto-start-reverse"><path d="M2 1L8 5L2 9" fill="none" stroke="#9aa0a6" stroke-width="1.6" stroke-linecap="round" stroke-linejoin="round"/></marker>
</defs>
<text x="30" y="34" font-size="16" fill="#e6e8ea" font-weight="bold">Anatomy 2022 Model (LTF): Sweep -&gt; Displacement -&gt; MSS -&gt; FVG entry</text>

<rect x="40" y="150" width="780" height="110" fill="#4b5563" opacity="0.2"/>
<text x="48" y="144" font-size="11.5" fill="#9775fa" font-weight="bold">H1 FVG (POI) - vung Discount</text>

<line x1="40" y1="235" x2="820" y2="235" stroke="#9aa0a6" stroke-width="1.1" stroke-dasharray="5 4"/>
<text x="648" y="230" font-size="11" fill="#9aa0a6">SSL (old low / EQL)</text>

<line x1="40" y1="110" x2="820" y2="110" stroke="#9aa0a6" stroke-width="1.1" stroke-dasharray="5 4"/>
<text x="690" y="105" font-size="11" fill="#9aa0a6">MSS level (STH)</text>

<polyline points="70,70 140,120 200,175 255,222" fill="none" stroke="#fa5252" stroke-width="2.2"/>
<line x1="300" y1="214" x2="300" y2="264" stroke="#fa5252" stroke-width="2"/>
<rect x="294" y="226" width="12" height="14" fill="#fa5252"/>
<polyline points="300,226 345,172 388,138 418,104 448,84 470,122 500,96 560,60 615,46" fill="none" stroke="#40c057" stroke-width="2.4" marker-end="url(#au)"/>

<rect x="430" y="104" width="120" height="42" fill="#40c057" opacity="0.14"/>
<rect x="430" y="104" width="120" height="42" fill="none" stroke="#40c057" stroke-opacity="0.55" stroke-width="1"/>
<text x="436" y="100" font-size="11" fill="#40c057">M5 FVG (entry)</text>

<circle cx="300" cy="264" r="4.5" fill="#fa5252"/>
<text x="238" y="290" font-size="11" fill="#e6e8ea">1  raid SSL, dong nen quay lai tren</text>

<circle cx="416" cy="108" r="4" fill="#40c057"/>
<text x="330" y="205" font-size="11" fill="#9aa0a6">displacement</text>

<line x1="560" y1="150" x2="476" y2="124" stroke="#9aa0a6" stroke-width="1.3" marker-end="url(#ag)"/>
<text x="564" y="154" font-size="11" fill="#e6e8ea">entry: retrace ve M5 FVG</text>

<line x1="30" y1="320" x2="830" y2="320" stroke="#2a2d33" stroke-width="1"/>
<rect x="48" y="345" width="14" height="14" fill="#fa5252"/>
<text x="70" y="357" font-size="12" fill="#e6e8ea">1  Liquidity sweep</text>
<rect x="260" y="345" width="14" height="14" fill="#40c057"/>
<text x="282" y="357" font-size="12" fill="#e6e8ea">2  Displacement + MSS</text>
<rect x="510" y="345" width="14" height="14" fill="#9775fa"/>
<text x="532" y="357" font-size="12" fill="#e6e8ea">3  M5 FVG entry</text>

<text x="48" y="398" font-size="11.5" fill="#9aa0a6">SL: duoi wick cua cu sweep   |   TP: BSL / draw phia tren   |   Sweep chi la buoc 1 - MSS moi la xac nhan</text>
<text x="48" y="422" font-size="11.5" fill="#f0a500">Chua co MSS = dang du doan. Co MSS = da xac nhan.</text>
</svg>