<svg xmlns="http://www.w3.org/2000/svg" width="860" height="430" viewBox="0 0 860 430" font-family="Segoe UI, Arial, sans-serif">
<rect x="0" y="0" width="860" height="430" rx="12" fill="#191b1f"/>
<defs>
<marker id="au" viewBox="0 0 10 10" refX="8" refY="5" markerWidth="8" markerHeight="8" orient="auto-start-reverse"><path d="M2 1L8 5L2 9" fill="none" stroke="#40c057" stroke-width="1.8" stroke-linecap="round" stroke-linejoin="round"/></marker>
<marker id="ad" viewBox="0 0 10 10" refX="8" refY="5" markerWidth="8" markerHeight="8" orient="auto-start-reverse"><path d="M2 1L8 5L2 9" fill="none" stroke="#fa5252" stroke-width="1.8" stroke-linecap="round" stroke-linejoin="round"/></marker>
</defs>
<text x="30" y="34" font-size="16" fill="#e6e8ea" font-weight="bold">M5: Hai kich ban tai FVG - dung pre-commit, xuong M1</text>

<!-- LEFT panel: bearish -->
<rect x="30" y="60" width="380" height="252" rx="6" fill="#202329" stroke="#2a2d33"/>
<text x="44" y="82" font-size="12.5" fill="#fa5252" font-weight="bold">KICH BAN GAU (thesis short)</text>
<rect x="44" y="98" width="352" height="120" fill="#4b5563" opacity="0.2"/>
<line x1="44" y1="158" x2="396" y2="158" stroke="#f0a500" stroke-width="1.3" stroke-dasharray="5 4"/>
<text x="360" y="154" font-size="10.5" fill="#f0a500">CE</text>
<polyline points="60,214 92,180 120,150 142,130 158,124" fill="none" stroke="#40c057" stroke-width="2"/>
<polyline points="158,124 178,158 200,206 224,252 246,292" fill="none" stroke="#fa5252" stroke-width="2.2" marker-end="url(#ad)"/>
<circle cx="158" cy="124" r="4.5" fill="#fa5252"/>
<text x="150" y="300" font-size="10.8" fill="#9aa0a6">reject tai CE -&gt; displacement pha xuong</text>
<text x="150" y="112" font-size="10.5" fill="#e6e8ea">tap CE, reject</text>

<!-- RIGHT panel: bullish -->
<rect x="450" y="60" width="380" height="252" rx="6" fill="#202329" stroke="#2a2d33"/>
<text x="464" y="82" font-size="12.5" fill="#40c057" font-weight="bold">KICH BAN BO (SSL sweep)</text>
<rect x="464" y="98" width="352" height="120" fill="#4b5563" opacity="0.2"/>
<line x1="464" y1="158" x2="816" y2="158" stroke="#f0a500" stroke-width="1.3" stroke-dasharray="5 4"/>
<text x="780" y="154" font-size="10.5" fill="#f0a500">CE</text>
<line x1="464" y1="218" x2="816" y2="218" stroke="#9aa0a6" stroke-width="1.1" stroke-dasharray="4 4"/>
<text x="470" y="234" font-size="10" fill="#9aa0a6">canh duoi FVG</text>
<polyline points="478,150 500,190 520,236 540,262" fill="none" stroke="#fa5252" stroke-width="2"/>
<polyline points="540,262 566,214 596,168 628,132 660,108" fill="none" stroke="#40c057" stroke-width="2.4" marker-end="url(#au)"/>
<circle cx="540" cy="262" r="4.5" fill="#40c057"/>
<text x="470" y="284" font-size="10.8" fill="#9aa0a6">quet SSL duoi hop (bear trap) -&gt; reclaim manh</text>
<text x="600" y="104" font-size="10.5" fill="#e6e8ea">len lay BSL tren</text>

<!-- decision strip -->
<rect x="30" y="330" width="800" height="80" rx="6" fill="#20262b" stroke="#2a2d33"/>
<text x="44" y="352" font-size="12" fill="#e6e8ea" font-weight="bold">Quyet dinh: KHONG doan chieu. Xuong M1 de thi truong lo tay.</text>
<text x="44" y="374" font-size="11" fill="#40c057">M1 MSS xuong + lower highs tai CE  =&gt;  short (SL tren dinh FVG, target SSL).</text>
<text x="44" y="393" font-size="11" fill="#fa5252">M1 dong nen tren CE roi tren FVG High  =&gt;  thesis short chet, dung ngoai / lat kich ban bo.</text>
</svg>
