<svg xmlns="http://www.w3.org/2000/svg" width="740" height="470" viewBox="0 0 740 470" font-family="Segoe UI, Arial, sans-serif">
<rect x="0" y="0" width="740" height="470" rx="10" fill="#191b1f"/>
<defs>
<marker id="ar" viewBox="0 0 10 10" refX="8" refY="5" markerWidth="7" markerHeight="7" orient="auto-start-reverse"><path d="M2 1L8 5L2 9" fill="none" stroke="#9aa0a6" stroke-width="1.6" stroke-linecap="round" stroke-linejoin="round"/></marker>
</defs>
<rect x="40" y="58" width="660" height="30" fill="#4b5563" opacity="0.55" rx="3"/>
<text x="46" y="50" font-size="12" fill="#9aa0a6">H1 Order Block - premium (draw on liquidity phia tren)</text>
<line x1="330" y1="188" x2="690" y2="188" stroke="#f0a500" stroke-width="1.3" stroke-dasharray="5 4"/>
<text x="694" y="192" font-size="11.5" fill="#f0a500">STL</text>
<g stroke-width="1.4">
<line x1="70" y1="328" x2="70" y2="372" stroke="#40c057"/><rect x="63" y="336" width="14" height="30" fill="#40c057"/>
<line x1="100" y1="298" x2="100" y2="342" stroke="#40c057"/><rect x="93" y="306" width="14" height="32" fill="#40c057"/>
<line x1="130" y1="262" x2="130" y2="312" stroke="#40c057"/><rect x="123" y="271" width="14" height="37" fill="#40c057"/>
<line x1="160" y1="222" x2="160" y2="277" stroke="#40c057"/><rect x="153" y="231" width="14" height="42" fill="#40c057"/>
<line x1="190" y1="176" x2="190" y2="237" stroke="#40c057"/><rect x="183" y="186" width="14" height="47" fill="#40c057"/>
<line x1="220" y1="132" x2="220" y2="192" stroke="#40c057"/><rect x="213" y="141" width="14" height="47" fill="#40c057"/>
<line x1="250" y1="90" x2="250" y2="146" stroke="#40c057"/><rect x="243" y="98" width="14" height="45" fill="#40c057"/>
<line x1="280" y1="86" x2="280" y2="118" stroke="#fa5252"/><rect x="273" y="96" width="14" height="16" fill="#fa5252"/>
<line x1="310" y1="106" x2="310" y2="152" stroke="#fa5252"/><rect x="303" y="112" width="14" height="34" fill="#fa5252"/>
<line x1="340" y1="136" x2="340" y2="198" stroke="#fa5252"/><rect x="333" y="146" width="14" height="42" fill="#fa5252"/>
<line x1="370" y1="128" x2="370" y2="186" stroke="#40c057"/><rect x="363" y="136" width="14" height="46" fill="#40c057"/>
<line x1="400" y1="110" x2="400" y2="144" stroke="#40c057"/><rect x="393" y="116" width="14" height="24" fill="#40c057"/>
<line x1="430" y1="118" x2="430" y2="252" stroke="#fa5252"/><rect x="423" y="126" width="14" height="118" fill="#fa5252"/>
<line x1="460" y1="182" x2="460" y2="234" stroke="#40c057"/><rect x="453" y="191" width="14" height="35" fill="#40c057"/>
<line x1="490" y1="202" x2="490" y2="296" stroke="#fa5252"/><rect x="483" y="211" width="14" height="80" fill="#fa5252"/>
</g>
<path d="M120 408 L235 408" stroke="#9aa0a6" stroke-width="1.2" fill="none" marker-end="url(#ar)"/>
<text x="58" y="428" font-size="11.5" fill="#9aa0a6">nen xanh lien tiep -&gt;</text>
<text x="58" y="443" font-size="11.5" fill="#9aa0a6">chua co swing low nao de pha</text>
<circle cx="340" cy="190" r="4" fill="#f0a500"/>
<text x="298" y="236" font-size="11.5" fill="#e6e8ea">(1) pullback dau tien</text>
<text x="298" y="251" font-size="11.5" fill="#e6e8ea">tao STL = moc tham chieu</text>
<text x="358" y="86" font-size="11.5" fill="#e6e8ea">(2) lower high</text>
<rect x="436" y="256" width="196" height="40" fill="none" stroke="#fa5252" stroke-width="1.2" rx="4"/>
<text x="444" y="272" font-size="11.5" fill="#e6e8ea">(3) nen displacement dong cua</text>
<text x="444" y="287" font-size="11.5" fill="#fa5252">DUOI STL = MSS xac nhan</text>
<circle cx="430" cy="188" r="5" fill="none" stroke="#fa5252" stroke-width="2"/>
</svg>
