<svg xmlns="http://www.w3.org/2000/svg" width="980" height="430" viewBox="0 0 980 430" font-family="Segoe UI, Arial, sans-serif">
<rect x="0" y="0" width="980" height="430" rx="12" fill="#191b1f"/>
<defs>
<marker id="ar" viewBox="0 0 10 10" refX="8" refY="5" markerWidth="7" markerHeight="7" orient="auto-start-reverse"><path d="M2 1L8 5L2 9" fill="none" stroke="#9aa0a6" stroke-width="1.6" stroke-linecap="round" stroke-linejoin="round"/></marker>
<marker id="ard" viewBox="0 0 10 10" refX="8" refY="5" markerWidth="8" markerHeight="8" orient="auto-start-reverse"><path d="M2 1L8 5L2 9" fill="none" stroke="#fa5252" stroke-width="1.8" stroke-linecap="round" stroke-linejoin="round"/></marker>
</defs>
<text x="30" y="34" font-size="16" fill="#e6e8ea" font-weight="bold">NAS100 - Top-Down ICT 2022 Model - 12/07/2026 (replay)</text>
<text x="30" y="54" font-size="12" fill="#9aa0a6">HTF cho "O DAU" (thanh khoan) -&gt; LTF cho "KHI NAO" (MSS + entry)</text>

<!-- Panel 1 H1 -->
<rect x="30" y="72" width="212" height="230" rx="6" fill="#202329" stroke="#2a2d33"/>
<line x1="42" y1="112" x2="230" y2="112" stroke="#e6e8ea" stroke-width="1.3"/>
<text x="46" y="106" font-size="10.5" fill="#e6e8ea">BSL - High dealing range</text>
<rect x="42" y="112" width="188" height="150" fill="#4b5563" opacity="0.18"/>
<polyline points="48,258 72,242 96,250 120,214 150,178 180,146 206,120 226,98" fill="none" stroke="#40c057" stroke-width="2"/>
<circle cx="226" cy="98" r="4.5" fill="#fa5252"/>
<text x="150" y="92" font-size="10" fill="#fa5252">sweep</text>
<text x="40" y="322" font-size="11.5" fill="#e6e8ea">1) H1 - Quet BSL / High</text>

<!-- Panel 2 M15 -->
<rect x="266" y="72" width="212" height="230" rx="6" fill="#202329" stroke="#2a2d33"/>
<line x1="278" y1="214" x2="466" y2="214" stroke="#9aa0a6" stroke-width="1.2" stroke-dasharray="5 4"/>
<text x="360" y="230" font-size="10.5" fill="#9aa0a6">MSS</text>
<rect x="366" y="138" width="98" height="70" fill="#4b5563" opacity="0.3"/>
<text x="392" y="132" font-size="10" fill="#9aa0a6">FVG</text>
<polyline points="276,250 300,214 326,182 350,152 372,134 388,182 404,232 418,258" fill="none" stroke="#40c057" stroke-width="2"/>
<polyline points="372,134 388,182 404,232 418,258" fill="none" stroke="#fa5252" stroke-width="2"/>
<text x="276" y="322" font-size="11.5" fill="#e6e8ea">2) M15 - MSS + FVG</text>

<!-- Panel 3 M5 -->
<rect x="502" y="72" width="212" height="230" rx="6" fill="#202329" stroke="#2a2d33"/>
<rect x="514" y="118" width="188" height="140" fill="#4b5563" opacity="0.22"/>
<line x1="514" y1="188" x2="702" y2="188" stroke="#f0a500" stroke-width="1.3" stroke-dasharray="5 4"/>
<text x="668" y="184" font-size="10.5" fill="#f0a500">CE</text>
<polyline points="516,256 540,232 562,210 578,200 588,206 606,232 628,256 650,272 672,258 690,250" fill="none" stroke="#40c057" stroke-width="2"/>
<circle cx="588" cy="206" r="4" fill="#fa5252"/>
<text x="536" y="322" font-size="11.5" fill="#e6e8ea">3) M5 - Phan ung DUOI CE</text>

<!-- Panel 4 M1 -->
<rect x="738" y="72" width="212" height="230" rx="6" fill="#202329" stroke="#2a2d33"/>
<line x1="750" y1="150" x2="938" y2="150" stroke="#f0a500" stroke-width="1.2" stroke-dasharray="5 4"/>
<text x="908" y="146" font-size="10.5" fill="#f0a500">CE</text>
<line x1="750" y1="238" x2="938" y2="238" stroke="#9aa0a6" stroke-width="1" stroke-dasharray="4 4"/>
<polyline points="748,205 764,168 780,156 796,190 812,172 828,162 844,208 862,236 884,258 908,272" fill="none" stroke="#40c057" stroke-width="1.8"/>
<circle cx="780" cy="156" r="3.6" fill="#fa5252"/>
<circle cx="828" cy="162" r="3.6" fill="#fa5252"/>
<text x="792" y="150" font-size="9.5" fill="#fa5252">lower highs</text>
<text x="748" y="322" font-size="11.5" fill="#e6e8ea">4) M1 - Lower highs + MSS xuong</text>

<!-- zoom arrows -->
<path d="M246 187 L262 187" stroke="#9aa0a6" stroke-width="1.3" fill="none" marker-end="url(#ar)"/>
<path d="M482 187 L498 187" stroke="#9aa0a6" stroke-width="1.3" fill="none" marker-end="url(#ar)"/>
<path d="M718 187 L734 187" stroke="#9aa0a6" stroke-width="1.3" fill="none" marker-end="url(#ar)"/>

<!-- bottom logic strip -->
<rect x="30" y="344" width="920" height="66" rx="6" fill="#20262b" stroke="#2a2d33"/>
<text x="44" y="366" font-size="11.5" fill="#e6e8ea" font-weight="bold">Ke hoach vao lenh (short thuan HTF bearish sau sweep):</text>
<text x="44" y="386" font-size="11" fill="#9aa0a6">Entry: CE / LTF FVG (theo xac nhan M1)      SL: tren dinh FVG (hoac tren High da sweep)      Target: SSL noi bo -&gt; EQ ~1208 -&gt; range low</text>
<text x="44" y="403" font-size="11" fill="#fa5252">Invalidation: dong nen tren dinh FVG        Risk &lt;= 0.5%        RR &gt;= 2.0        KHONG duoi lenh giua nhip</text>
</svg>