<svg viewBox="0 0 760 520" xmlns="http://www.w3.org/2000/svg" font-family="'Segoe UI', Arial, sans-serif">
  <rect x="0" y="0" width="760" height="520" rx="10" fill="#FBFBFD" stroke="#D8DBE2" stroke-width="1.5"/>
  <text x="24" y="34" font-size="18" font-weight="700" fill="#1F2937">Co che &amp; vi sao nguy hiem</text>
  <text x="24" y="54" font-size="13" fill="#6B7280">Ban tro thanh thanh khoan cho dot fill cua smart money</text>

  <rect x="24" y="74" width="712" height="424" rx="8" fill="#FFFFFF" stroke="#E5E7EB"/>

  <!-- flow diagram: 4 steps -->
  <rect x="48" y="94" width="150" height="68" rx="6" fill="#3B82F6" fill-opacity="0.08" stroke="#1D4ED8"/>
  <text x="60" y="118" font-size="12.5" font-weight="700" fill="#1D4ED8">1. Inducement</text>
  <text x="60" y="136" font-size="11" fill="#374151">Tao OB/FVG "dep"</text>
  <text x="60" y="151" font-size="11" fill="#374151">de trap early entry</text>

  <polygon points="198,128 220,122 220,134" fill="#6B7280"/>

  <rect x="222" y="94" width="150" height="68" rx="6" fill="#D97706" fill-opacity="0.08" stroke="#D97706"/>
  <text x="234" y="118" font-size="12.5" font-weight="700" fill="#B45309">2. Ban vao lenh</text>
  <text x="234" y="136" font-size="11" fill="#374151">Ban cung cap thanh</text>
  <text x="234" y="151" font-size="11" fill="#374151">khoan doi ung (SL)</text>

  <polygon points="372,128 394,122 394,134" fill="#6B7280"/>

  <rect x="396" y="94" width="150" height="68" rx="6" fill="#DC2626" fill-opacity="0.08" stroke="#DC2626"/>
  <text x="408" y="118" font-size="12.5" font-weight="700" fill="#B91C1C">3. Sweep that su</text>
  <text x="408" y="136" font-size="11" fill="#374151">Gia chay ve pool</text>
  <text x="408" y="151" font-size="11" fill="#374151">SSL/BSL that</text>

  <polygon points="546,128 568,122 568,134" fill="#6B7280"/>

  <rect x="570" y="94" width="150" height="68" rx="6" fill="#16A34A" fill-opacity="0.08" stroke="#16A34A"/>
  <text x="582" y="118" font-size="12.5" font-weight="700" fill="#15803D">4. Draw on Liquidity</text>
  <text x="582" y="136" font-size="11" fill="#374151">MM fill size xong,</text>
  <text x="582" y="151" font-size="11" fill="#374151">gia di dung huong</text>

  <!-- EV note -->
  <rect x="48" y="176" width="672" height="52" rx="6" fill="#374151" fill-opacity="0.05" stroke="#4B5563" stroke-opacity="0.3"/>
  <text x="60" y="196" font-size="12" fill="#374151" font-weight="700">EV logic: entry som = stop dat dung noi thuat toan can "an".</text>
  <text x="60" y="214" font-size="12" fill="#374151">Xac suat cham SL truoc khi dung huong tang manh du RR tren giay nhin dep.</text>

  <!-- price schematic showing turtle soup against trader -->
  <text x="48" y="252" font-size="13" font-weight="700" fill="#1F2937">Minh hoa: turtle soup nguoc voi entry som</text>
  <line x1="60" y1="440" x2="700" y2="440" stroke="#DC2626" stroke-width="1.6" stroke-dasharray="4 3"/>
  <text x="66" y="432" font-size="11.5" fill="#B91C1C" font-weight="600">SSL that (chua bi quet luc entry)</text>

  <path d="M 70 300 L 140 330 L 200 315 L 260 340 L 300 330 L 350 360 L 400 350 L 460 442 L 520 395 L 600 300 L 680 250"
        fill="none" stroke="#374151" stroke-width="1.8"/>

  <circle cx="260" cy="340" r="5" fill="#D97706"/>
  <polygon points="260,340 252,327 268,327" fill="#D97706"/>
  <text x="176" y="322" font-size="11" fill="#B45309" font-weight="600">Entry som (inducement)</text>

  <circle cx="460" cy="442" r="5" fill="#DC2626"/>
  <text x="400" y="464" font-size="11.5" fill="#B91C1C" font-weight="600">SL bi quet o day (turtle soup)</text>

  <polygon points="680,250 670,268 692,266" fill="#16A34A"/>
  <text x="556" y="238" font-size="11.5" fill="#15803D" font-weight="600">Roi gia moi di dung bias ban</text>
</svg>
