<svg viewBox="0 0 760 480" xmlns="http://www.w3.org/2000/svg" font-family="'Segoe UI', Arial, sans-serif">
  <rect x="0" y="0" width="760" height="480" rx="10" fill="#FBFBFD" stroke="#D8DBE2" stroke-width="1.5"/>
  <text x="24" y="34" font-size="18" font-weight="700" fill="#1F2937">Bieu hien &amp; dau hieu nhan biet</text>
  <text x="24" y="54" font-size="13" fill="#6B7280">Cac "tell" cho thay ban dang vao lenh truoc khi sweep</text>

  <rect x="24" y="74" width="712" height="382" rx="8" fill="#FFFFFF" stroke="#E5E7EB"/>

  <!-- table header -->
  <rect x="44" y="92" width="672" height="34" rx="4" fill="#374151" fill-opacity="0.06"/>
  <text x="56" y="114" font-size="13" font-weight="700" fill="#374151">Dau hieu</text>
  <text x="380" y="114" font-size="13" font-weight="700" fill="#374151">Vi sao la canh bao</text>

  <!-- rows -->
  <line x1="44" y1="126" x2="716" y2="126" stroke="#E5E7EB"/>
  <text x="56" y="148" font-size="12.5" fill="#374151">Vao lenh ngay lan cham dau tien vao OB/FVG</text>
  <text x="380" y="148" font-size="12.5" fill="#6B7280">Chua co thu thach thanh khoan -&gt; chua xac nhan</text>
  <circle cx="356" cy="143" r="5" fill="#D97706"/>

  <line x1="44" y1="160" x2="716" y2="160" stroke="#E5E7EB"/>
  <text x="56" y="182" font-size="12.5" fill="#374151">Chua co wick/displacement vuot qua pool thanh khoan</text>
  <text x="380" y="182" font-size="12.5" fill="#6B7280">Thuat toan chua "an" thanh khoan can thiet</text>
  <circle cx="356" cy="177" r="5" fill="#D97706"/>

  <line x1="44" y1="194" x2="716" y2="194" stroke="#E5E7EB"/>
  <text x="56" y="216" font-size="12.5" fill="#374151">Tam ly FOMO "so bo lo lenh dep"</text>
  <text x="380" y="216" font-size="12.5" fill="#6B7280">Cam xuc thay the cho confirmation khach quan</text>
  <circle cx="356" cy="211" r="5" fill="#D97706"/>

  <line x1="44" y1="228" x2="716" y2="228" stroke="#E5E7EB"/>
  <text x="56" y="250" font-size="12.5" fill="#374151">Equal highs/lows hoac old high/low con "treo" ngay sau entry</text>
  <text x="380" y="250" font-size="12.5" fill="#6B7280">Draw on liquidity ro rang chua duoc dap ung</text>
  <circle cx="356" cy="245" r="5" fill="#DC2626"/>

  <line x1="44" y1="262" x2="716" y2="262" stroke="#E5E7EB"/>
  <text x="56" y="284" font-size="12.5" fill="#374151">OB "qua dep/qua ro" ma khong can cho doi</text>
  <text x="380" y="284" font-size="12.5" fill="#6B7280">Thuong la inducement, khong phai POI that</text>
  <circle cx="356" cy="279" r="5" fill="#DC2626"/>

  <!-- mini schematic below -->
  <text x="56" y="316" font-size="13" font-weight="700" fill="#1F2937">Minh hoa: pool thanh khoan con nguyen phia sau entry</text>
  <line x1="90" y1="410" x2="660" y2="410" stroke="#DC2626" stroke-width="1.6" stroke-dasharray="4 3"/>
  <text x="96" y="402" font-size="11.5" fill="#B91C1C" font-weight="600">Equal Lows (chua quet)</text>
  <path d="M 100 340 L 180 370 L 250 355 L 320 388 L 380 372 L 440 395 L 500 380 L 560 400 L 620 340"
        fill="none" stroke="#374151" stroke-width="1.8"/>
  <circle cx="440" cy="395" r="5" fill="#D97706"/>
  <polygon points="440,395 432,382 448,382" fill="#D97706"/>
  <text x="452" y="392" font-size="11.5" fill="#B45309" font-weight="600">Entry som tai day</text>
</svg>
