<svg viewBox="0 0 760 460" xmlns="http://www.w3.org/2000/svg" font-family="'Segoe UI', Arial, sans-serif">
  <rect x="0" y="0" width="760" height="460" rx="10" fill="#FBFBFD" stroke="#D8DBE2" stroke-width="1.5"/>
  <text x="24" y="34" font-size="18" font-weight="700" fill="#1F2937">Ví dụ ĐÚNG — MSS tại POI H1 trong Discount</text>
  <text x="24" y="54" font-size="13" fill="#6B7280">Sweep SSL → displacement + MSS ngay tại POI → FVG entry → stop dưới POI, target BSL.</text>

  <rect x="24" y="70" width="712" height="360" rx="8" fill="#FFFFFF" stroke="#16A34A"/>

  <rect x="60" y="90" width="640" height="105" fill="#DC2626" opacity="0.05"/>
  <rect x="60" y="195" width="640" height="115" fill="#6B7280" opacity="0.05"/>
  <rect x="60" y="310" width="640" height="100" fill="#16A34A" opacity="0.10"/>
  <line x1="60" y1="252" x2="700" y2="252" stroke="#6B7280" stroke-width="1.2" stroke-dasharray="6 4"/>
  <text x="704" y="256" font-size="9.5" fill="#6B7280">EQ 50%</text>
  <text x="66" y="104" font-size="10" fill="#B91C1C">Premium</text>
  <text x="66" y="326" font-size="10" fill="#15803D">Discount (OTE 62-79%)</text>

  <rect x="480" y="345" width="170" height="40" rx="3" fill="#3B82F6" opacity="0.20" stroke="#1D4ED8"/>
  <text x="488" y="362" font-size="10" fill="#1D4ED8">POI: Bullish OB (H1)</text>
  <text x="488" y="378" font-size="9" fill="#1D4ED8">unmitigated · trong Discount</text>

  <!-- SSL liquidity marker -->
  <line x1="60" y1="395" x2="700" y2="395" stroke="#D97706" stroke-width="1.2" stroke-dasharray="4 3"/>
  <text x="66" y="392" font-size="9" fill="#B45309">SSL (equal lows / old low)</text>

  <path d="M90 130 C 160 170, 230 220, 300 270 C 360 310, 420 345, 480 375 C 520 393, 560 396, 585 390"
        fill="none" stroke="#374151" stroke-width="2"/>
  <circle cx="585" cy="390" r="4" fill="#D97706"/>
  <text x="500" y="418" font-size="9.5" fill="#B45309">① Sweep SSL tại POI</text>

  <path d="M585 390 C 610 340, 630 280, 650 230 C 665 195, 675 160, 685 120" fill="none" stroke="#16A34A" stroke-width="2.4"/>
  <polygon points="685,120 675,128 679,112" fill="#16A34A"/>
  <text x="605" y="205" font-size="9.5" font-weight="700" fill="#15803D">② Displacement + MSS ngay tại POI</text>

  <rect x="618" y="255" width="60" height="26" rx="3" fill="#3B82F6" opacity="0.22" stroke="#1D4ED8"/>
  <text x="612" y="248" font-size="8.5" fill="#1D4ED8">③ FVG entry</text>

  <text x="90" y="180" font-size="9.5" fill="#4B5563">Target: BSL (draw on liquidity)</text>
  <line x1="90" y1="185" x2="90" y2="130" stroke="#9CA3AF" stroke-width="1" stroke-dasharray="2 3"/>

  <rect x="60" y="70" width="0" height="0"/>
  <text x="66" y="425" font-size="10" font-weight="700" fill="#15803D">MSS có địa chỉ rõ ràng → confirmation có chủ, RR hợp lý và có cơ sở cấu trúc.</text>
</svg>
