<svg viewBox="0 0 760 520" xmlns="http://www.w3.org/2000/svg" font-family="'Segoe UI', Arial, sans-serif">
  <rect x="0" y="0" width="760" height="520" rx="10" fill="#FBFBFD" stroke="#D8DBE2" stroke-width="1.5"/>
  <text x="24" y="34" font-size="18" font-weight="700" fill="#1F2937">Ví dụ đúng: quy trình sau lệnh thua (disciplined)</text>
  <text x="24" y="54" font-size="13" fill="#6B7280">Circuit breaker + cooldown → một lệnh thua -0.5% vẫn chỉ là một lệnh thua</text>

  <rect x="24" y="72" width="712" height="432" rx="8" fill="#FFFFFF" stroke="#E5E7EB"/>

  <!-- 5-step routine -->
  <rect x="40" y="90" width="680" height="150" rx="6" fill="#16A34A" fill-opacity="0.06" stroke="#16A34A"/>
  <text x="56" y="110" font-size="12" font-weight="700" fill="#15803D">Quy trình sau lệnh thua (post-loss routine)</text>
  <text x="56" y="130" font-size="11" fill="#374151">1. Ghi nhận: "Đây là 1 lệnh thua đúng kế hoạch" — không phán xét bản thân</text>
  <text x="56" y="148" font-size="11" fill="#374151">2. Kiểm tra circuit breaker: đã chạm ngưỡng dừng chưa? (vd: 1 lệnh thua/ngày)</text>
  <text x="56" y="166" font-size="11" fill="#374151">3. Cooldown timer bắt buộc (30–60 phút) — rời khỏi màn hình, đi bộ / nghỉ</text>
  <text x="56" y="184" font-size="11" fill="#374151">4. Ghi nhật ký cảm xúc NGAY lúc đó — không chờ đến cuối ngày</text>
  <text x="56" y="202" font-size="11" fill="#374151">5. Chỉ quay lại nếu xuất hiện setup A-tier đầy đủ (bias + POI + sweep + MSS)</text>
  <text x="56" y="224" font-size="10.5" font-style="italic" fill="#15803D">Kết quả: risk giữ nguyên 0.5%, không có lệnh thứ hai mang tính cảm xúc.</text>

  <!-- equity curve -->
  <text x="40" y="264" font-size="13" font-weight="700" fill="#1F2937">Equity curve: một lệnh thua có kế hoạch → phục hồi bình thường</text>

  <line x1="60" y1="460" x2="700" y2="460" stroke="#DC2626" stroke-width="1.4" stroke-dasharray="4 3"/>
  <text x="66" y="452" font-size="10.5" fill="#B91C1C" font-weight="600">Giới hạn lỗ ngày (vd -1%) — không hề bị đe dọa</text>

  <path d="M 70 340 L 150 344 L 230 348 L 300 388 L 340 380 L 420 350 L 500 330 L 580 320 L 660 300"
        fill="none" stroke="#16A34A" stroke-width="2.2"/>
  <circle cx="300" cy="388" r="5" fill="#D97706"/>
  <text x="230" y="410" font-size="10.5" fill="#B45309" font-weight="600">1 lệnh thua -0.5% (đã có trong kế hoạch)</text>
  <text x="200" y="426" font-size="10" fill="#4B5563">→ circuit breaker + cooldown, KHÔNG vào lại ngay</text>

  <circle cx="660" cy="300" r="5" fill="#16A34A"/>
  <text x="470" y="290" font-size="10.5" fill="#15803D" font-weight="600">Tài khoản tiếp tục an toàn, giới hạn ngày không bị đe dọa</text>
</svg>
