<svg viewBox="0 0 760 290" xmlns="http://www.w3.org/2000/svg" font-family="'Segoe UI', Arial, sans-serif">
<rect x="0" y="0" width="760" height="290" rx="10" fill="#FBFBFD" stroke="#D8DBE2" stroke-width="1.5"/>
<text x="24" y="34" font-size="18" font-weight="700" fill="#1F2937">Ví dụ ĐÚNG — 07:00 IFVG Model</text>
<text x="24" y="54" font-size="13" fill="#6B7280">Hunt relative equal → MSS → IFVG (FVG đầu tiên) → vào 50% CE → chốt -2/-2.5.</text>
<rect x="24" y="70" width="712" height="210" rx="8" fill="#FFFFFF" stroke="#86EFAC"/><text x="40" y="94" font-size="11" font-weight="700" fill="#15803D">✔ London H/L làm DOL  ✔ Hunt sau 07:00  ✔ MSS  ✔ IFVG đầu tiên · 50% CE  ✔ Fib -2/-2.5</text><line x1="60" y1="130" x2="360" y2="130" stroke="#6B7280" stroke-dasharray="6 4"/><text x="60" y="124" font-size="9.5" fill="#4B5563">Rel Equal Highs</text><rect x="75" y="150" width="2" height="50" fill="#16A34A"/><rect x="70" y="160" width="12" height="35" fill="#16A34A" rx="1"/><rect x="97" y="150" width="2" height="50" fill="#16A34A"/><rect x="92" y="160" width="12" height="35" fill="#16A34A" rx="1"/><rect x="119" y="110" width="2" height="65" fill="#16A34A"/><rect x="114" y="120" width="12" height="30" fill="#16A34A" rx="1"/><rect x="141" y="150" width="2" height="85" fill="#DC2626"/><rect x="136" y="163" width="12" height="67" fill="#DC2626" rx="1"/><rect x="163" y="162" width="2" height="87" fill="#DC2626"/><rect x="158" y="175" width="12" height="69" fill="#DC2626" rx="1"/><rect x="185" y="174" width="2" height="89" fill="#DC2626"/><rect x="180" y="187" width="12" height="71" fill="#DC2626" rx="1"/><rect x="150" y="165" width="150" height="24" fill="#DC2626" opacity="0.14" stroke="#DC2626" stroke-dasharray="3 2"/><text x="304" y="182" font-size="9.5" fill="#B91C1C">IFVG 50% CE</text><circle cx="300" cy="177" r="5" fill="#DC2626"/><text x="308" y="172" font-size="9.5" font-weight="700" fill="#DC2626">SELL</text><rect x="325" y="190" width="2" height="55" fill="#DC2626"/><rect x="320" y="200" width="12" height="40" fill="#DC2626" rx="1"/><rect x="347" y="206" width="2" height="57" fill="#DC2626"/><rect x="342" y="216" width="12" height="42" fill="#DC2626" rx="1"/><rect x="369" y="222" width="2" height="59" fill="#DC2626"/><rect x="364" y="232" width="12" height="44" fill="#DC2626" rx="1"/><rect x="391" y="238" width="2" height="61" fill="#DC2626"/><rect x="386" y="248" width="12" height="46" fill="#DC2626" rx="1"/>
</svg>
