<svg viewBox="0 0 760 400" xmlns="http://www.w3.org/2000/svg" font-family="'Segoe UI', Arial, sans-serif">
<rect x="0" y="0" width="760" height="400" rx="10" fill="#FBFBFD" stroke="#D8DBE2" stroke-width="1.5"/>
<text x="24" y="34" font-size="18" font-weight="700" fill="#1F2937">Kịch bản BULLISH — 07:00 hunt relative equal lows → IFVG entry</text>
<text x="24" y="54" font-size="13" fill="#6B7280">Long tại 50% CE của IFVG. Nếu không có IFVG → vào bullish breaker.</text>
<rect x="24" y="70" width="712" height="325" rx="8" fill="#FFFFFF" stroke="#E5E7EB"/><line x1="60" y1="330" x2="360" y2="330" stroke="#6B7280" stroke-dasharray="6 4"/><text x="60" y="348" font-size="10" fill="#4B5563">Relative Equal Lows (SSL)</text><rect x="150" y="250" width="120" height="26" fill="#3B82F6" opacity="0.16"/><text x="150" y="246" font-size="9" fill="#1D4ED8">FVG đầu tiên (sẽ thành IFVG)</text><rect x="85" y="250" width="2" height="50" fill="#DC2626"/><rect x="80" y="260" width="12" height="35" fill="#DC2626" rx="1"/><rect x="107" y="244" width="2" height="50" fill="#DC2626"/><rect x="102" y="254" width="12" height="35" fill="#DC2626" rx="1"/><rect x="129" y="238" width="2" height="50" fill="#DC2626"/><rect x="124" y="248" width="12" height="35" fill="#DC2626" rx="1"/><rect x="151" y="290" width="2" height="70" fill="#DC2626"/><rect x="146" y="320" width="12" height="30" fill="#DC2626" rx="1"/><text x="120" y="380" font-size="10" fill="#DC2626">hunt post-07:00</text><rect x="173" y="240" width="2" height="80" fill="#16A34A"/><rect x="168" y="255" width="12" height="60" fill="#16A34A" rx="1"/><rect x="195" y="224" width="2" height="82" fill="#16A34A"/><rect x="190" y="239" width="12" height="62" fill="#16A34A" rx="1"/><rect x="217" y="208" width="2" height="84" fill="#16A34A"/><rect x="212" y="223" width="12" height="64" fill="#16A34A" rx="1"/><rect x="239" y="192" width="2" height="86" fill="#16A34A"/><rect x="234" y="207" width="12" height="66" fill="#16A34A" rx="1"/><text x="290" y="205" font-size="10.5" font-weight="700" fill="#15803D">đóng trên swing high = MSS ↑</text><rect x="150" y="250" width="200" height="26" fill="#DC2626" opacity="0.14" stroke="#16A34A" stroke-dasharray="3 2"/><text x="356" y="266" font-size="9.5" fill="#15803D">IFVG · 50% CE = BUY</text><rect x="261" y="255" width="2" height="55" fill="#DC2626"/><rect x="256" y="266" width="12" height="36" fill="#DC2626" rx="1"/><rect x="283" y="259" width="2" height="55" fill="#DC2626"/><rect x="278" y="270" width="12" height="36" fill="#DC2626" rx="1"/><circle cx="350" cy="263" r="5" fill="#16A34A"/><rect x="305" y="205" width="2" height="55" fill="#16A34A"/><rect x="300" y="216" width="12" height="36" fill="#16A34A" rx="1"/><rect x="327" y="197" width="2" height="57" fill="#16A34A"/><rect x="322" y="208" width="12" height="38" fill="#16A34A" rx="1"/><rect x="349" y="189" width="2" height="59" fill="#16A34A"/><rect x="344" y="200" width="12" height="40" fill="#16A34A" rx="1"/><rect x="371" y="181" width="2" height="61" fill="#16A34A"/><rect x="366" y="192" width="12" height="42" fill="#16A34A" rx="1"/><line x1="60" y1="360" x2="300" y2="360" stroke="#16A34A" stroke-dasharray="4 3"/><text x="64" y="374" font-size="10" fill="#15803D">Stop dưới swing low post-07:00</text><text x="470" y="110" font-size="10" fill="#6D28D9">TP: next DOL hoặc Fib -2 / -2.5</text>
</svg>
