<svg viewBox="0 0 760 400" xmlns="http://www.w3.org/2000/svg" font-family="'Segoe UI', Arial, sans-serif">
<rect x="0" y="0" width="760" height="400" rx="10" fill="#FBFBFD" stroke="#D8DBE2" stroke-width="1.5"/>
<text x="24" y="34" font-size="18" font-weight="700" fill="#1F2937">Kịch bản BEARISH — 07:00 hunt relative equal highs → IFVG entry</text>
<text x="24" y="54" font-size="13" fill="#6B7280">Short tại 50% CE của IFVG (FVG đầu tiên trước hunt). Nếu không có IFVG → vào bearish breaker.</text>
<rect x="24" y="70" width="712" height="325" rx="8" fill="#FFFFFF" stroke="#E5E7EB"/><line x1="60" y1="120" x2="360" y2="120" stroke="#6B7280" stroke-dasharray="6 4"/><text x="60" y="114" font-size="10" fill="#4B5563">Relative Equal Highs (BSL)</text><rect x="150" y="180" width="120" height="26" fill="#3B82F6" opacity="0.16"/><text x="150" y="176" font-size="9" fill="#1D4ED8">FVG đầu tiên (sẽ thành IFVG)</text><rect x="85" y="160" width="2" height="50" fill="#16A34A"/><rect x="80" y="170" width="12" height="35" fill="#16A34A" rx="1"/><rect x="107" y="166" width="2" height="50" fill="#16A34A"/><rect x="102" y="176" width="12" height="35" fill="#16A34A" rx="1"/><rect x="129" y="172" width="2" height="50" fill="#16A34A"/><rect x="124" y="182" width="12" height="35" fill="#16A34A" rx="1"/><rect x="151" y="100" width="2" height="75" fill="#16A34A"/><rect x="146" y="112" width="12" height="38" fill="#16A34A" rx="1"/><text x="120" y="96" font-size="10" fill="#DC2626">hunt post-07:00</text><rect x="173" y="150" width="2" height="85" fill="#DC2626"/><rect x="168" y="163" width="12" height="67" fill="#DC2626" rx="1"/><rect x="195" y="164" width="2" height="89" fill="#DC2626"/><rect x="190" y="177" width="12" height="71" fill="#DC2626" rx="1"/><rect x="217" y="178" width="2" height="93" fill="#DC2626"/><rect x="212" y="191" width="12" height="75" fill="#DC2626" rx="1"/><rect x="239" y="192" width="2" height="97" fill="#DC2626"/><rect x="234" y="205" width="12" height="79" fill="#DC2626" rx="1"/><text x="290" y="150" font-size="10.5" font-weight="700" fill="#15803D">đóng dưới swing low = MSS ↓</text><rect x="150" y="180" width="200" height="26" fill="#DC2626" opacity="0.14" stroke="#DC2626" stroke-dasharray="3 2"/><text x="356" y="196" font-size="9.5" fill="#B91C1C">IFVG · 50% CE = SELL</text><rect x="261" y="205" width="2" height="55" fill="#16A34A"/><rect x="256" y="216" width="12" height="36" fill="#16A34A" rx="1"/><rect x="283" y="201" width="2" height="55" fill="#16A34A"/><rect x="278" y="212" width="12" height="36" fill="#16A34A" rx="1"/><circle cx="350" cy="193" r="5" fill="#DC2626"/><rect x="305" y="215" width="2" height="60" fill="#DC2626"/><rect x="300" y="226" width="12" height="44" fill="#DC2626" rx="1"/><rect x="327" y="235" width="2" height="62" fill="#DC2626"/><rect x="322" y="246" width="12" height="46" fill="#DC2626" rx="1"/><rect x="349" y="255" width="2" height="64" fill="#DC2626"/><rect x="344" y="266" width="12" height="48" fill="#DC2626" rx="1"/><rect x="371" y="275" width="2" height="66" fill="#DC2626"/><rect x="366" y="286" width="12" height="50" fill="#DC2626" rx="1"/><line x1="60" y1="100" x2="300" y2="100" stroke="#DC2626" stroke-dasharray="4 3"/><text x="64" y="94" font-size="10" fill="#DC2626">Stop trên swing high post-07:00</text><text x="470" y="360" font-size="10" fill="#6D28D9">TP: next DOL hoặc Fib -2 / -2.5</text>
</svg>
