<svg viewBox="0 0 760 380" xmlns="http://www.w3.org/2000/svg" font-family="'Segoe UI', Arial, sans-serif">
  <rect x="0" y="0" width="760" height="380" rx="10" fill="#FBFBFD" stroke="#D8DBE2" stroke-width="1.5"/>
  <text x="24" y="34" font-size="18" font-weight="700" fill="#1F2937">Lich ngoai le: khong phai moi thu Sau deu binh dang</text>
  <text x="24" y="54" font-size="13" fill="#6B7280">Ba nhom ngoai le co the ghi de hoan toan hieu ung Friday Profit-Taking thong thuong.</text>
  <text x="24" y="124" font-size="11" font-weight="700" fill="#374151">Tuan thuong</text>
  <rect x="240" y="90" width="82" height="42" rx="5" fill="#E5E7EB" stroke="#E5E7EB"/>
  <text x="248" y="116" font-size="10.5" fill="#374151">T2</text>
  <rect x="330" y="90" width="82" height="42" rx="5" fill="#E5E7EB" stroke="#E5E7EB"/>
  <text x="338" y="116" font-size="10.5" fill="#374151">T3</text>
  <rect x="420" y="90" width="82" height="42" rx="5" fill="#E5E7EB" stroke="#E5E7EB"/>
  <text x="428" y="116" font-size="10.5" fill="#374151">T4</text>
  <rect x="510" y="90" width="82" height="42" rx="5" fill="#E5E7EB" stroke="#E5E7EB"/>
  <text x="518" y="116" font-size="10.5" fill="#374151">T5</text>
  <rect x="600" y="90" width="82" height="42" rx="5" fill="#E5E7EB" stroke="#E5E7EB"/>
  <text x="608" y="116" font-size="10.5" fill="#374151">T6</text>
  <text x="24" y="184" font-size="11" font-weight="700" fill="#374151">Tuan co NFP/CPI</text>
  <rect x="240" y="150" width="82" height="42" rx="5" fill="#E5E7EB" stroke="#E5E7EB"/>
  <text x="248" y="176" font-size="10.5" fill="#374151">T2</text>
  <rect x="330" y="150" width="82" height="42" rx="5" fill="#E5E7EB" stroke="#E5E7EB"/>
  <text x="338" y="176" font-size="10.5" fill="#374151">T3</text>
  <rect x="420" y="150" width="82" height="42" rx="5" fill="#E5E7EB" stroke="#E5E7EB"/>
  <text x="428" y="176" font-size="10.5" fill="#374151">T4</text>
  <rect x="510" y="150" width="82" height="42" rx="5" fill="#E5E7EB" stroke="#E5E7EB"/>
  <text x="518" y="176" font-size="10.5" fill="#374151">T5</text>
  <rect x="600" y="150" width="82" height="42" rx="5" fill="#DBEAFE" stroke="#E5E7EB"/>
  <text x="608" y="176" font-size="10.5" fill="#374151">T6</text>
  <text x="24" y="244" font-size="11" font-weight="700" fill="#374151">Tuan month-end</text>
  <rect x="240" y="210" width="82" height="42" rx="5" fill="#E5E7EB" stroke="#E5E7EB"/>
  <text x="248" y="236" font-size="10.5" fill="#374151">T2</text>
  <rect x="330" y="210" width="82" height="42" rx="5" fill="#E5E7EB" stroke="#E5E7EB"/>
  <text x="338" y="236" font-size="10.5" fill="#374151">T3</text>
  <rect x="420" y="210" width="82" height="42" rx="5" fill="#E5E7EB" stroke="#E5E7EB"/>
  <text x="428" y="236" font-size="10.5" fill="#374151">T4</text>
  <rect x="510" y="210" width="82" height="42" rx="5" fill="#E5E7EB" stroke="#E5E7EB"/>
  <text x="518" y="236" font-size="10.5" fill="#374151">T5</text>
  <rect x="600" y="210" width="82" height="42" rx="5" fill="#FEF3C7" stroke="#E5E7EB"/>
  <text x="608" y="236" font-size="10.5" fill="#374151">T6</text>
  <text x="24" y="304" font-size="11" font-weight="700" fill="#374151">Tuan dao han phai sinh</text>
  <rect x="240" y="270" width="82" height="42" rx="5" fill="#E5E7EB" stroke="#E5E7EB"/>
  <text x="248" y="296" font-size="10.5" fill="#374151">T2</text>
  <rect x="330" y="270" width="82" height="42" rx="5" fill="#E5E7EB" stroke="#E5E7EB"/>
  <text x="338" y="296" font-size="10.5" fill="#374151">T3</text>
  <rect x="420" y="270" width="82" height="42" rx="5" fill="#E5E7EB" stroke="#E5E7EB"/>
  <text x="428" y="296" font-size="10.5" fill="#374151">T4</text>
  <rect x="510" y="270" width="82" height="42" rx="5" fill="#E5E7EB" stroke="#E5E7EB"/>
  <text x="518" y="296" font-size="10.5" fill="#374151">T5</text>
  <rect x="600" y="270" width="82" height="42" rx="5" fill="#EDE9FE" stroke="#E5E7EB"/>
  <text x="608" y="296" font-size="10.5" fill="#374151">T6</text>
  <circle cx="620" cy="171" r="5" fill="#2563EB"/>
  <text x="632" y="175" font-size="9.5" fill="#374151">NFP/CPI/FOMC</text>
  <rect x="24" y="340" width="712" height="24" rx="6" fill="#FEF3C7"/>
  <text x="36" y="357" font-size="12" font-weight="700" fill="#92400E">Luon kiem tra lich kinh te + lich phai sinh/quy truoc khi ap dung gia dinh reversion cho thu Sau.</text>
</svg>
