<svg viewBox="0 0 760 460" xmlns="http://www.w3.org/2000/svg" font-family="'Segoe UI', Arial, sans-serif">
  <rect x="0" y="0" width="760" height="460" rx="10" fill="#FBFBFD" stroke="#D8DBE2" stroke-width="1.5"/>
  <text x="24" y="34" font-size="18" font-weight="700" fill="#1F2937">Friday PT - Vi du sai: dau trend chieu thu Sau, tra lai loi nhuan</text>
  <text x="24" y="54" font-size="13" fill="#6B7280">Chart minh hoa khai niem, khong phai du lieu giao dich that.</text>
  <rect x="48.0" y="284" width="2" height="22" fill="#16A34A"/>
  <rect x="40" y="290" width="18" height="10" fill="#16A34A" rx="1"/>
  <rect x="74.0" y="264" width="2" height="32" fill="#16A34A"/>
  <rect x="66" y="270" width="18" height="20" fill="#16A34A" rx="1"/>
  <rect x="100.0" y="234" width="2" height="42" fill="#16A34A"/>
  <rect x="92" y="240" width="18" height="30" fill="#16A34A" rx="1"/>
  <rect x="126.0" y="199" width="2" height="47" fill="#16A34A"/>
  <rect x="118" y="205" width="18" height="35" fill="#16A34A" rx="1"/>
  <rect x="152.0" y="169" width="2" height="42" fill="#16A34A"/>
  <rect x="144" y="175" width="18" height="30" fill="#16A34A" rx="1"/>
  <rect x="178.0" y="149" width="2" height="32" fill="#16A34A"/>
  <rect x="170" y="155" width="18" height="20" fill="#16A34A" rx="1"/>
  <rect x="204.0" y="139" width="2" height="22" fill="#16A34A"/>
  <rect x="196" y="145" width="18" height="10" fill="#16A34A" rx="1"/>
  <rect x="230.0" y="139" width="2" height="27" fill="#16A34A"/>
  <rect x="222" y="145" width="18" height="15" fill="#16A34A" rx="1"/>
  <rect x="256.0" y="144" width="2" height="22" fill="#16A34A"/>
  <rect x="248" y="150" width="18" height="10" fill="#16A34A" rx="1"/>
  <rect x="282.0" y="144" width="2" height="42" fill="#DC2626"/>
  <rect x="274" y="150" width="18" height="30" fill="#DC2626" rx="1"/>
  <rect x="308.0" y="174" width="2" height="52" fill="#DC2626"/>
  <rect x="300" y="180" width="18" height="40" fill="#DC2626" rx="1"/>
  <rect x="334.0" y="214" width="2" height="52" fill="#DC2626"/>
  <rect x="326" y="220" width="18" height="40" fill="#DC2626" rx="1"/>
  <line x1="30" y1="295" x2="352" y2="295" stroke="#2563EB" stroke-width="1.4" stroke-dasharray="6 3"/>
  <text x="34" y="312" font-size="10.5" font-weight="700" fill="#2563EB">Weekly Opening Price</text>
  <circle cx="257" cy="150" r="8" fill="none" stroke="#DC2626" stroke-width="2.4"/>
  <text x="178" y="130" font-size="10.5" font-weight="700" fill="#DC2626">Vao long them "vi dang trend" - FOMO</text>
  <path d="M257,158 L257,185" stroke="#DC2626" stroke-width="2" stroke-dasharray="3 2"/>
  <text x="274" y="290" font-size="10.5" font-weight="700" fill="#DC2626">Reversion quet stop - tra lai loi nhuan tuan</text>
  <text x="24" y="432" font-size="15" font-weight="700" fill="#DC2626">✗ Sai</text>
  <text x="90" y="432" font-size="12" fill="#374151">— vao lenh trend moi khi range da chin, khong kiem tra lich - bi reversion quet sach loi nhuan.</text>
</svg>
