<svg viewBox="0 0 760 460" xmlns="http://www.w3.org/2000/svg" font-family="'Segoe UI', Arial, sans-serif">
  <rect x="0" y="0" width="760" height="460" rx="10" fill="#FBFBFD" stroke="#D8DBE2" stroke-width="1.5"/>
  <text x="24" y="34" font-size="18" font-weight="700" fill="#1F2937">Friday PT - Vi du dung: range tuan chin Tue-Thu, thu Sau hoi ve weekly open</text>
  <text x="24" y="54" font-size="13" fill="#6B7280">Chart minh hoa khai niem, khong phai du lieu giao dich that.</text>
  <rect x="48.0" y="284" width="2" height="22" fill="#16A34A"/>
  <rect x="40" y="290" width="18" height="10" fill="#16A34A" rx="1"/>
  <rect x="74.0" y="269" width="2" height="27" fill="#16A34A"/>
  <rect x="66" y="275" width="18" height="15" fill="#16A34A" rx="1"/>
  <rect x="100.0" y="244" width="2" height="37" fill="#16A34A"/>
  <rect x="92" y="250" width="18" height="25" fill="#16A34A" rx="1"/>
  <rect x="126.0" y="214" width="2" height="42" fill="#16A34A"/>
  <rect x="118" y="220" width="18" height="30" fill="#16A34A" rx="1"/>
  <rect x="152.0" y="189" width="2" height="37" fill="#16A34A"/>
  <rect x="144" y="195" width="18" height="25" fill="#16A34A" rx="1"/>
  <rect x="178.0" y="169" width="2" height="32" fill="#16A34A"/>
  <rect x="170" y="175" width="18" height="20" fill="#16A34A" rx="1"/>
  <rect x="204.0" y="154" width="2" height="27" fill="#16A34A"/>
  <rect x="196" y="160" width="18" height="15" fill="#16A34A" rx="1"/>
  <rect x="230.0" y="154" width="2" height="27" fill="#DC2626"/>
  <rect x="222" y="160" width="18" height="15" fill="#DC2626" rx="1"/>
  <rect x="256.0" y="169" width="2" height="32" fill="#DC2626"/>
  <rect x="248" y="175" width="18" height="20" fill="#DC2626" rx="1"/>
  <rect x="282.0" y="189" width="2" height="37" fill="#DC2626"/>
  <rect x="274" y="195" width="18" height="25" fill="#DC2626" rx="1"/>
  <rect x="308.0" y="214" width="2" height="37" fill="#DC2626"/>
  <rect x="300" y="220" width="18" height="25" fill="#DC2626" rx="1"/>
  <rect x="334.0" y="239" width="2" height="37" fill="#DC2626"/>
  <rect x="326" y="245" width="18" height="25" fill="#DC2626" rx="1"/>
  <line x1="30" y1="295" x2="352" y2="295" stroke="#2563EB" stroke-width="1.4" stroke-dasharray="6 3"/>
  <text x="34" y="312" font-size="10.5" font-weight="700" fill="#2563EB">Weekly Opening Price</text>
  <circle cx="205" cy="160" r="7" fill="none" stroke="#DC2626" stroke-width="2.2"/>
  <text x="166" y="145" font-size="10.5" font-weight="700" fill="#DC2626">Dinh tuan (lap Wed)</text>
  <text x="40" y="410" font-size="10.5" fill="#374151">Mon-Wed: Expansion</text>
  <text x="222" y="410" font-size="10.5" font-weight="700" fill="#2563EB">Fri: Reversion ve weekly open</text>
  <text x="24" y="432" font-size="15" font-weight="700" fill="#16A34A">✓ Đúng</text>
  <text x="90" y="432" font-size="12" fill="#374151">— dinh tuan da lap truoc thu Sau, thu Sau hoi ve weekly open dung chu ky - chot loi, khong dau trend.</text>
</svg>
