<svg viewBox="0 0 760 440" xmlns="http://www.w3.org/2000/svg" font-family="'Segoe UI', Arial, sans-serif">
  <rect x="0" y="0" width="760" height="440" rx="10" fill="#FBFBFD" stroke="#D8DBE2" stroke-width="1.5"/>
  <text x="24" y="34" font-size="18" font-weight="700" fill="#1F2937">Hanh vi thu Sau khac nhau ra sao theo tung thi truong</text>
  <text x="24" y="54" font-size="13" fill="#6B7280">Cung hieu ung Friday Profit-Taking, khac muc do tin cay va rui ro ngoai le theo thi truong.</text>
  <rect x="24" y="76" width="228" height="300" rx="8" fill="#FFFFFF" stroke="#E5E7EB"/>
  <text x="36" y="100" font-size="13" font-weight="700" fill="#7C3AED">NQ1 / NDX</text>
  <line x1="40" y1="220" x2="236" y2="220" stroke="#9CA3AF" stroke-width="1" stroke-dasharray="4 3"/>
  <text x="42" y="214" font-size="9.5" fill="#6B7280">Nhieu tin dot ngot do dao han</text>
  <path d="M46,320 L90,300 L130,260 L160,230 L190,260 L215,225" fill="none" stroke="#374151" stroke-width="2.2" transform="translate(-22,0)"/>
  <text x="36" y="344" font-size="10.5" fill="#374151">Reversion trung binh -</text>
  <text x="36" y="358" font-size="10.5" fill="#374151">de bi nhieu boi options/futures expiry.</text>
  <rect x="266" y="76" width="228" height="300" rx="8" fill="#FFFFFF" stroke="#E5E7EB"/>
  <text x="278" y="100" font-size="13" font-weight="700" fill="#2563EB">EURUSD / GBPUSD</text>
  <line x1="282" y1="220" x2="478" y2="220" stroke="#9CA3AF" stroke-width="1" stroke-dasharray="4 3"/>
  <text x="284" y="214" font-size="9.5" fill="#6B7280">Reversion do tin cay cao</text>
  <path d="M288,320 L330,290 L360,250 L400,220 L440,235 L458,230" fill="none" stroke="#374151" stroke-width="2.2" transform="translate(220,0)"/>
  <text x="278" y="344" font-size="10.5" fill="#374151">Reversion kha ro ve</text>
  <text x="278" y="358" font-size="10.5" fill="#374151">chieu muon gio My.</text>
  <rect x="508" y="76" width="228" height="300" rx="8" fill="#FFFFFF" stroke="#E5E7EB"/>
  <text x="520" y="100" font-size="13" font-weight="700" fill="#166534">XAUUSD</text>
  <line x1="524" y1="220" x2="720" y2="220" stroke="#9CA3AF" stroke-width="1" stroke-dasharray="4 3"/>
  <text x="526" y="214" font-size="9.5" fill="#6B7280">Phu thuoc lich tin (NFP)</text>
  <path d="M530,320 L570,300 L600,200 L630,240 L660,180 L700,230" fill="none" stroke="#374151" stroke-width="2.2" transform="translate(462,0)"/>
  <text x="520" y="344" font-size="10.5" fill="#374151">Hieu ung bi lu mo hoan</text>
  <text x="520" y="358" font-size="10.5" fill="#374151">toan neu co NFP/CPI.</text>
</svg>
