<svg viewBox="0 0 760 430" xmlns="http://www.w3.org/2000/svg" font-family="'Segoe UI', Arial, sans-serif"><rect x="0" y="0" width="760" height="430" rx="10" fill="#FBFBFD" stroke="#D8DBE2" stroke-width="1.5"/><text x="24" y="34" font-size="18" font-weight="700" fill="#1F2937">Mayne ‘Structure + OTE’ — Giải phẫu (Bullish swing)</text><text x="24" y="54" font-size="12.5" fill="#6B7280">HTF uptrend (HL→HH) → hồi về discount → sweep STL → OTE 62–79% chồng POI → confirmation → long. Target = BSL.</text><rect x="24" y="70" width="712" height="345" rx="8" fill="#FFFFFF" stroke="#E5E7EB"/><text x="40" y="92" font-size="11" fill="#6B7280" font-weight="700">HTF Structure</text><line x1="70" y1="360" x2="140" y2="250" stroke="#16A34A" stroke-width="2"/><line x1="140" y1="250" x2="200" y2="300" stroke="#9CA3AF" stroke-width="2"/><line x1="200" y1="300" x2="300" y2="150" stroke="#16A34A" stroke-width="2"/><text x="150" y="240" font-size="10" fill="#15803D" font-weight="700">HH</text><text x="300" y="143" font-size="10" fill="#15803D" font-weight="700">HH (swing high)</text><text x="196" y="318" font-size="10" fill="#15803D" font-weight="700">HL</text><line x1="300" y1="150" x2="720" y2="150" stroke="#0EA5E9" stroke-dasharray="6 4" stroke-width="1"/><text x="560" y="142" font-size="10" fill="#0369A1">BSL / prior high = Target (DOL)</text><line x1="300" y1="150" x2="430" y2="330" stroke="#DC2626" stroke-width="2"/><text x="360" y="250" font-size="10" fill="#DC2626">pullback</text><line x1="300" y1="240" x2="720" y2="240" stroke="#9CA3AF" stroke-dasharray="3 3" stroke-width="1"/><text x="690" y="236" font-size="9" fill="#6B7280">EQ 50%</text><rect x="360" y="261" width="120" height="31" fill="#8B5CF6" opacity="0.18"/><rect x="360" y="261" width="120" height="31" fill="none" stroke="#8B5CF6" stroke-dasharray="4 3"/><text x="484" y="273" font-size="10" fill="#6D28D9" font-weight="700">OTE 62–79%</text><rect x="360" y="265" width="120" height="26" fill="#F59E0B" opacity="0.22"/><text x="484" y="301" font-size="9.5" fill="#B45309">POI: bullish OB / FVG</text><line x1="300" y1="352" x2="470" y2="352" stroke="#DC2626" stroke-dasharray="5 3" stroke-width="1"/><text x="305" y="366" font-size="10" fill="#DC2626">STL (SSL) bị sweep</text><circle cx="455" cy="279" r="5" fill="#16A34A"/><text x="462" y="277" font-size="10" fill="#15803D" font-weight="700">LONG (sau confirmation LTF)</text><line x1="455" y1="279" x2="560" y2="150" stroke="#16A34A" stroke-width="2"/><line x1="360" y1="372" x2="470" y2="372" stroke="#DC2626" stroke-dasharray="4 3" stroke-width="1"/><text x="364" y="386" font-size="10" fill="#B91C1C">Stop dưới đáy sweep</text></svg>
