<svg viewBox="0 0 760 410" xmlns="http://www.w3.org/2000/svg" font-family="'Segoe UI', Arial, sans-serif"><rect x="0" y="0" width="760" height="410" rx="10" fill="#FBFBFD" stroke="#D8DBE2" stroke-width="1.5"/><text x="24" y="34" font-size="18" font-weight="700" fill="#1F2937">Mayne Model — Bullish vs Bearish</text><text x="24" y="54" font-size="12.5" fill="#6B7280">Gương nhau qua đường EQ của dealing range.</text><rect x="24" y="74" width="346" height="320" rx="8" fill="#FFFFFF" stroke="#E5E7EB"/><text x="40" y="96" font-size="11.5" fill="#15803D" font-weight="700">BULLISH (uptrend, mua ở discount)</text><line x1="60" y1="360" x2="120" y2="270" stroke="#16A34A" stroke-width="2"/><line x1="120" y1="270" x2="180" y2="140" stroke="#16A34A" stroke-width="2"/><text x="150" y="133" font-size="10" fill="#15803D" font-weight="700">HH</text><line x1="180" y1="140" x2="350" y2="140" stroke="#0EA5E9" stroke-dasharray="5 3" stroke-width="1"/><text x="210" y="132" font-size="9.5" fill="#0369A1">BSL = Target</text><line x1="180" y1="140" x2="250" y2="300" stroke="#DC2626" stroke-width="2"/><rect x="210" y="210" width="120" height="45" fill="#8B5CF6" opacity="0.18"/><text x="232" y="206" font-size="9.5" fill="#6D28D9" font-weight="700">OTE 62–79%</text><rect x="210" y="214" width="120" height="20" fill="#F59E0B" opacity="0.22"/><line x1="180" y1="318" x2="300" y2="318" stroke="#DC2626" stroke-dasharray="4 3" stroke-width="1"/><text x="184" y="332" font-size="9" fill="#DC2626">sweep SSL</text><circle cx="268" cy="226" r="4.5" fill="#16A34A"/><text x="274" y="224" font-size="9.5" fill="#15803D" font-weight="700">LONG</text><line x1="268" y1="226" x2="330" y2="150" stroke="#16A34A" stroke-width="2"/><rect x="390" y="74" width="346" height="320" rx="8" fill="#FFFFFF" stroke="#E5E7EB"/><text x="406" y="96" font-size="11.5" fill="#B91C1C" font-weight="700">BEARISH (downtrend, bán ở premium)</text><line x1="430" y1="120" x2="490" y2="220" stroke="#DC2626" stroke-width="2"/><line x1="490" y1="220" x2="550" y2="340" stroke="#DC2626" stroke-width="2"/><text x="520" y="352" font-size="10" fill="#B91C1C" font-weight="700">LL</text><line x1="430" y1="340" x2="720" y2="340" stroke="#0EA5E9" stroke-dasharray="5 3" stroke-width="1"/><text x="560" y="354" font-size="9.5" fill="#0369A1">SSL = Target</text><line x1="550" y1="340" x2="620" y2="180" stroke="#16A34A" stroke-width="2"/><rect x="580" y="200" width="120" height="45" fill="#8B5CF6" opacity="0.18"/><text x="600" y="196" font-size="9.5" fill="#6D28D9" font-weight="700">OTE 62–79%</text><rect x="580" y="204" width="120" height="20" fill="#F59E0B" opacity="0.22"/><line x1="600" y1="175" x2="700" y2="175" stroke="#16A34A" stroke-dasharray="4 3" stroke-width="1"/><text x="604" y="170" font-size="9" fill="#15803D">sweep BSL</text><circle cx="636" cy="216" r="4.5" fill="#DC2626"/><text x="642" y="214" font-size="9.5" fill="#B91C1C" font-weight="700">SHORT</text><line x1="636" y1="216" x2="690" y2="330" stroke="#DC2626" stroke-width="2"/></svg>
