<svg viewBox="0 0 760 460" xmlns="http://www.w3.org/2000/svg" font-family="'Segoe UI', Arial, sans-serif">
  <rect x="0" y="0" width="760" height="460" rx="10" fill="#FBFBFD" stroke="#D8DBE2" stroke-width="1.5"/>
  <text x="24" y="34" font-size="18" font-weight="700" fill="#1F2937">MMBM - Vi du sai: bat day giua sell program, chua co Smart Money Low (mua nham Inducement)</text>
  <text x="24" y="54" font-size="13" fill="#6B7280">Chart minh hoa khai niem, khong phai du lieu giao dich that.</text>
  <rect x="48.0" y="240" width="2" height="28" fill="#16A34A"/>
  <rect x="40" y="248" width="18" height="12" fill="#16A34A" rx="1"/>
  <rect x="74.0" y="240" width="2" height="30" fill="#DC2626"/>
  <rect x="66" y="248" width="18" height="14" fill="#DC2626" rx="1"/>
  <rect x="100.0" y="254" width="2" height="39" fill="#DC2626"/>
  <rect x="92" y="262" width="18" height="23" fill="#DC2626" rx="1"/>
  <rect x="126.0" y="277" width="2" height="31" fill="#DC2626"/>
  <rect x="118" y="285" width="18" height="15" fill="#DC2626" rx="1"/>
  <rect x="152.0" y="280" width="2" height="28" fill="#16A34A"/>
  <rect x="144" y="288" width="18" height="12" fill="#16A34A" rx="1"/>
  <rect x="178.0" y="280" width="2" height="28" fill="#DC2626"/>
  <rect x="170" y="288" width="18" height="12" fill="#DC2626" rx="1"/>
  <rect x="204.0" y="292" width="2" height="36" fill="#DC2626"/>
  <rect x="196" y="300" width="18" height="20" fill="#DC2626" rx="1"/>
  <rect x="230.0" y="312" width="2" height="41" fill="#DC2626"/>
  <rect x="222" y="320" width="18" height="25" fill="#DC2626" rx="1"/>
  <rect x="256.0" y="337" width="2" height="41" fill="#DC2626"/>
  <rect x="248" y="345" width="18" height="25" fill="#DC2626" rx="1"/>
  <rect x="282.0" y="362" width="2" height="41" fill="#DC2626"/>
  <rect x="274" y="370" width="18" height="25" fill="#DC2626" rx="1"/>
  <line x1="30" y1="300" x2="300" y2="300" stroke="#DC2626" stroke-width="1.2" stroke-dasharray="5 3"/>
  <text x="34" y="295" font-size="10" fill="#DC2626">Day trung gian (bi nham la day)</text>
  <circle cx="153" cy="288" r="8" fill="none" stroke="#DC2626" stroke-width="2.4"/>
  <text x="84" y="272" font-size="10" font-weight="700" fill="#DC2626">Mua "bat day" - chua sweep SSL chinh, chua MSS</text>
  <path d="M153,280 L153,250" stroke="#DC2626" stroke-width="2" stroke-dasharray="3 2"/>
  <text x="212" y="410" font-size="10" font-weight="700" fill="#DC2626">Sell program tiep dien - quet stop, day that thap hon</text>
  <text x="24" y="432" font-size="15" font-weight="700" fill="#DC2626">✗ Sai</text>
  <text x="90" y="432" font-size="12" fill="#374151">— khong co sweep SSL chinh + MSS tang - day chi la Inducement, khong phai Smart Money Low.</text>
</svg>
