<svg viewBox="0 0 760 440" xmlns="http://www.w3.org/2000/svg" font-family="'Segoe UI', Arial, sans-serif">
  <rect x="0" y="0" width="760" height="440" rx="10" fill="#FBFBFD" stroke="#D8DBE2" stroke-width="1.5"/>
  <text x="24" y="34" font-size="18" font-weight="700" fill="#1F2937">MMSM bieu hien khac nhau ra sao theo tung thi truong</text>
  <text x="24" y="54" font-size="13" fill="#6B7280">Cung kich ban 2 nua, khac do dai buy program va so bac LRB truoc Smart Money High that.</text>
  <rect x="24" y="76" width="228" height="300" rx="8" fill="#FFFFFF" stroke="#E5E7EB"/>
  <text x="36" y="100" font-size="13" font-weight="700" fill="#7C3AED">NQ1 / NDX</text>
  <line x1="40" y1="220" x2="236" y2="220" stroke="#9CA3AF" stroke-width="1" stroke-dasharray="4 3"/>
  <text x="42" y="214" font-size="9.5" fill="#6B7280">2-4 bac LRB, ~1 phien</text>
  <path d="M46,320 L70,300 L90,308 L112,255 L134,275 L160,205 L185,220 L215,150" fill="none" stroke="#374151" stroke-width="2.2" transform="translate(-22,0)"/>
  <text x="36" y="344" font-size="10.5" fill="#374151">Buy program ngan, doc;</text>
  <text x="36" y="358" font-size="10.5" fill="#374151">nhieu bac LRB trong vai gio.</text>
  <rect x="266" y="76" width="228" height="300" rx="8" fill="#FFFFFF" stroke="#E5E7EB"/>
  <text x="278" y="100" font-size="13" font-weight="700" fill="#2563EB">EURUSD / GBPUSD</text>
  <line x1="282" y1="220" x2="478" y2="220" stroke="#9CA3AF" stroke-width="1" stroke-dasharray="4 3"/>
  <text x="284" y="214" font-size="9.5" fill="#6B7280">1-2 bac, trai nhieu ngay</text>
  <path d="M288,320 L310,305 L330,312 L352,265 L372,282 L400,220 L425,232 L458,160" fill="none" stroke="#374151" stroke-width="2.2" transform="translate(220,0)"/>
  <text x="278" y="344" font-size="10.5" fill="#374151">Buy program thoai thoai,</text>
  <text x="278" y="358" font-size="10.5" fill="#374151">keo dai 1-3 ngay.</text>
  <rect x="508" y="76" width="228" height="300" rx="8" fill="#FFFFFF" stroke="#E5E7EB"/>
  <text x="520" y="100" font-size="13" font-weight="700" fill="#166534">XAUUSD</text>
  <line x1="524" y1="220" x2="720" y2="220" stroke="#9CA3AF" stroke-width="1" stroke-dasharray="4 3"/>
  <text x="526" y="214" font-size="9.5" fill="#6B7280">Co the 1 bac, gay dot ngot</text>
  <path d="M530,320 L548,315 L564,308 L582,220 L600,245 L626,180 L648,195 L700,150" fill="none" stroke="#374151" stroke-width="2.2" transform="translate(462,0)"/>
  <text x="520" y="344" font-size="10.5" fill="#374151">SMH co the toi rat nhanh</text>
  <text x="520" y="358" font-size="10.5" fill="#374151">quanh gio tin (NFP/CPI/FOMC).</text>
</svg>
