<svg viewBox="0 0 760 460" xmlns="http://www.w3.org/2000/svg" font-family="'Segoe UI', Arial, sans-serif">
  <rect x="0" y="0" width="760" height="460" rx="10" fill="#FBFBFD" stroke="#D8DBE2" stroke-width="1.5"/>
  <text x="24" y="34" font-size="18" font-weight="700" fill="#1F2937">MMSM long trong mot MMBM D1 lon hon (Nested MMXM)</text>
  <text x="24" y="54" font-size="13" fill="#6B7280">Mot MMSM H1 sach co the chi la nhip dieu chinh ben trong Buy Program cua mot MMBM D1 chua hoan tat. So do khai niem, khong phai chart gia that.</text>
  <rect x="30" y="76" width="700" height="340" rx="8" fill="#F0FDF4" stroke="#86EFAC"/>
  <text x="44" y="100" font-size="13" font-weight="700" fill="#16A34A">MMBM D1 (lon hon) - Buy Program dang chay</text>
  <path d="M 60,350 L 140,320 L 220,330 L 300,290 L 380,305 L 460,250 L 540,270 L 620,200 L 690,130" fill="none" stroke="#16A34A" stroke-width="2.6"/>
  <circle cx="60" cy="350" r="6" fill="#16A34A"/>
  <text x="40" y="398" font-size="10" font-weight="700" fill="#16A34A">Smart Money Low D1 (dau MMBM)</text>
  <rect x="290" y="195" width="220" height="140" rx="8" fill="#FEF2F2" stroke="#FCA5A5" stroke-width="1.6"/>
  <text x="300" y="213" font-size="11.5" font-weight="700" fill="#DC2626">MMSM H1 (nho hon - nested)</text>
  <path d="M 300,250 L 330,265 L 360,260 L 390,300 L 420,290 L 450,320 L 480,310" fill="none" stroke="#DC2626" stroke-width="2.2"/>
  <circle cx="300" cy="250" r="4.5" fill="#DC2626"/>
  <text x="296" y="235" font-size="9.5" fill="#DC2626">SMH nho + MSS giam</text>
  <text x="300" y="247" font-size="9.5" fill="#DC2626">(chi la 1 LRB ben trong D1)</text>
  <text x="60" y="440" font-size="11" fill="#374151">Neu ban theo MMSM H1 ma khong kiem tra D1, ban dang ban nguoc trend tang lon hon.</text>
  <rect x="30" y="428" width="700" height="22" rx="6" fill="#FEF3C7"/>
  <text x="42" y="444" font-size="12" font-weight="700" fill="#92400E">Luon kiem tra D1/H4 truoc khi tin mot SMH LTF la dao chieu that - khong phai nhip dieu chinh (nested) ben trong MMBM lon hon.</text>
</svg>
