<svg viewBox="0 0 760 460" xmlns="http://www.w3.org/2000/svg" font-family="'Segoe UI', Arial, sans-serif">
  <rect x="0" y="0" width="760" height="460" rx="10" fill="#FBFBFD" stroke="#D8DBE2" stroke-width="1.5"/>
  <text x="24" y="34" font-size="18" font-weight="700" fill="#1F2937">MMSM - Vi du dung: Sweep BSL -> Smart Money High -> MSS giam -> ban LRS -> SSL</text>
  <text x="24" y="54" font-size="13" fill="#6B7280">HTF bias Bearish, gia o premium. Chart minh hoa khai niem, khong phai du lieu giao dich that.</text>
  <rect x="48.0" y="242" width="2" height="26" fill="#DC2626"/>
  <rect x="40" y="250" width="18" height="10" fill="#DC2626" rx="1"/>
  <rect x="72.0" y="237" width="2" height="29" fill="#16A34A"/>
  <rect x="64" y="245" width="18" height="13" fill="#16A34A" rx="1"/>
  <rect x="96.0" y="242" width="2" height="46" fill="#16A34A"/>
  <rect x="88" y="250" width="18" height="30" fill="#16A34A" rx="1"/>
  <rect x="120.0" y="272" width="2" height="46" fill="#16A34A"/>
  <rect x="112" y="280" width="18" height="30" fill="#16A34A" rx="1"/>
  <rect x="144.0" y="292" width="2" height="26" fill="#DC2626"/>
  <rect x="136" y="300" width="18" height="10" fill="#DC2626" rx="1"/>
  <rect x="168.0" y="272" width="2" height="36" fill="#16A34A"/>
  <rect x="160" y="280" width="18" height="20" fill="#16A34A" rx="1"/>
  <rect x="192.0" y="287" width="2" height="41" fill="#16A34A"/>
  <rect x="184" y="295" width="18" height="25" fill="#16A34A" rx="1"/>
  <rect x="216.0" y="322" width="2" height="31" fill="#DC2626"/>
  <rect x="208" y="330" width="18" height="15" fill="#DC2626" rx="1"/>
  <rect x="240.0" y="292" width="2" height="46" fill="#DC2626"/>
  <rect x="232" y="300" width="18" height="30" fill="#DC2626" rx="1"/>
  <rect x="264.0" y="292" width="2" height="51" fill="#DC2626"/>
  <rect x="256" y="300" width="18" height="35" fill="#DC2626" rx="1"/>
  <rect x="288.0" y="257" width="2" height="51" fill="#DC2626"/>
  <rect x="280" y="265" width="18" height="35" fill="#DC2626" rx="1"/>
  <rect x="312.0" y="197" width="2" height="36" fill="#16A34A"/>
  <rect x="304" y="205" width="18" height="20" fill="#16A34A" rx="1"/>
  <rect x="336.0" y="214" width="2" height="39" fill="#DC2626"/>
  <rect x="328" y="222" width="18" height="23" fill="#DC2626" rx="1"/>
  <rect x="360.0" y="214" width="2" height="48" fill="#DC2626"/>
  <rect x="352" y="222" width="18" height="32" fill="#DC2626" rx="1"/>
  <rect x="384.0" y="182" width="2" height="51" fill="#DC2626"/>
  <rect x="376" y="190" width="18" height="35" fill="#DC2626" rx="1"/>
  <rect x="408.0" y="147" width="2" height="51" fill="#DC2626"/>
  <rect x="400" y="155" width="18" height="35" fill="#DC2626" rx="1"/>
  <rect x="432.0" y="112" width="2" height="51" fill="#DC2626"/>
  <rect x="424" y="120" width="18" height="35" fill="#DC2626" rx="1"/>
  <line x1="30" y1="205" x2="448" y2="205" stroke="#16A34A" stroke-width="1.2" stroke-dasharray="5 3"/>
  <text x="34" y="200" font-size="10" fill="#16A34A">BSL pool</text>
  <circle cx="217" cy="215" r="9" fill="none" stroke="#2563EB" stroke-width="2.4"/>
  <text x="178" y="180" font-size="11" font-weight="700" fill="#2563EB">Smart Money High (sweep + reject)</text>
  <rect x="256" y="260" width="66" height="42" fill="#FEE2E2" opacity="0.6" stroke="#DC2626" stroke-dasharray="3 2"/>
  <text x="256" y="252" font-size="10" font-weight="700" fill="#DC2626">MSS giam + FVG (bearish)</text>
  <circle cx="337" cy="235" r="7" fill="none" stroke="#DC2626" stroke-width="2.2"/>
  <text x="308" y="215" font-size="10" font-weight="700" fill="#DC2626">LRS#1 - Entry</text>
  <rect x="620" y="360" width="110" height="24" rx="5" fill="#FFFFFF" stroke="#E5E7EB"/>
  <text x="630" y="376" font-size="11" font-weight="700" fill="#374151">SSL (Target)</text>
  <text x="24" y="432" font-size="15" font-weight="700" fill="#16A34A">✓ Đúng</text>
  <text x="90" y="432" font-size="12" fill="#374151">— sweep BSL + reject truoc, MSS giam xac nhan, entry o LRS (retrace), khong chase.</text>
</svg>
