<svg viewBox="0 0 760 460" xmlns="http://www.w3.org/2000/svg" font-family="'Segoe UI', Arial, sans-serif">
  <rect x="0" y="0" width="760" height="460" rx="10" fill="#FBFBFD" stroke="#D8DBE2" stroke-width="1.5"/>
  <text x="24" y="34" font-size="18" font-weight="700" fill="#1F2937">Smart Money High hop le vs. Inducement (sweep gia)</text>
  <text x="24" y="54" font-size="13" fill="#6B7280">So sanh hanh vi gia ngay sau cu quet BSL. Chart minh hoa khai niem, khong phai du lieu giao dich that.</text>
  <rect x="24" y="76" width="345" height="330" rx="8" fill="#FEF2F2" stroke="#FCA5A5"/>
  <text x="36" y="100" font-size="13" font-weight="700" fill="#DC2626">Smart Money High hop le</text>
  <line x1="40" y1="180" x2="350" y2="180" stroke="#16A34A" stroke-width="1.2" stroke-dasharray="5 3"/>
  <text x="44" y="175" font-size="9.5" fill="#16A34A">BSL cu</text>
  <rect x="56.0" y="292" width="2" height="24" fill="#16A34A"/>
  <rect x="50" y="300" width="14" height="10" fill="#16A34A" rx="1"/>
  <rect x="82.0" y="262" width="2" height="44" fill="#16A34A"/>
  <rect x="76" y="270" width="14" height="30" fill="#16A34A" rx="1"/>
  <rect x="108.0" y="232" width="2" height="44" fill="#16A34A"/>
  <rect x="102" y="240" width="14" height="30" fill="#16A34A" rx="1"/>
  <rect x="134.0" y="192" width="2" height="39" fill="#DC2626"/>
  <rect x="128" y="200" width="14" height="25" fill="#DC2626" rx="1"/>
  <rect x="161.0" y="150" width="2" height="62" fill="#16A34A"/>
  <rect x="154" y="200" width="16" height="12" fill="#16A34A" rx="1"/>
  <text x="144" y="140" font-size="10" fill="#16A34A">Sweep tren BSL</text>
  <rect x="190.0" y="212" width="2" height="32" fill="#DC2626"/>
  <rect x="184" y="212" width="14" height="28" fill="#DC2626" rx="1"/>
  <rect x="216.0" y="236" width="2" height="31" fill="#DC2626"/>
  <rect x="210" y="240" width="14" height="25" fill="#DC2626" rx="1"/>
  <text x="166" y="290" font-size="10" fill="#DC2626">Reject nhanh (1-2 nen)</text>
  <rect x="242.0" y="260" width="2" height="55" fill="#DC2626"/>
  <rect x="236" y="265" width="14" height="45" fill="#DC2626" rx="1"/>
  <rect x="268.0" y="305" width="2" height="50" fill="#DC2626"/>
  <rect x="262" y="310" width="14" height="40" fill="#DC2626" rx="1"/>
  <path d="M300,270 L340,270" stroke="#2563EB" stroke-width="1.2" stroke-dasharray="4 3"/>
  <text x="250" y="335" font-size="10" font-weight="700" fill="#2563EB">MSS giam that + FVG</text>
  <text x="36" y="386" font-size="11" fill="#374151">Reject dut khoat, pha swing low, SMH xac nhan</text>
  <rect x="391" y="76" width="345" height="330" rx="8" fill="#F0FDF4" stroke="#86EFAC"/>
  <text x="403" y="100" font-size="13" font-weight="700" fill="#16A34A">Inducement (sweep gia)</text>
  <line x1="407" y1="200" x2="717" y2="200" stroke="#16A34A" stroke-width="1.2" stroke-dasharray="5 3"/>
  <text x="411" y="195" font-size="9.5" fill="#16A34A">Dinh cu (bay)</text>
  <rect x="423.0" y="232" width="2" height="24" fill="#DC2626"/>
  <rect x="417" y="240" width="14" height="10" fill="#DC2626" rx="1"/>
  <rect x="449.0" y="230" width="2" height="21" fill="#16A34A"/>
  <rect x="443" y="238" width="14" height="7" fill="#16A34A" rx="1"/>
  <rect x="475.0" y="210" width="2" height="34" fill="#16A34A"/>
  <rect x="469" y="218" width="14" height="20" fill="#16A34A" rx="1"/>
  <rect x="502.0" y="160" width="2" height="42" fill="#16A34A"/>
  <rect x="495" y="190" width="16" height="12" fill="#16A34A" rx="1"/>
  <text x="485" y="150" font-size="10" fill="#16A34A">Sweep tren dinh</text>
  <rect x="531.0" y="196" width="2" height="19" fill="#DC2626"/>
  <rect x="525" y="202" width="14" height="13" fill="#DC2626" rx="1"/>
  <text x="491" y="180" font-size="10" fill="#16A34A">Tut yeu - khong pha swing low</text>
  <rect x="557.0" y="180" width="2" height="28" fill="#16A34A"/>
  <rect x="551" y="185" width="14" height="20" fill="#16A34A" rx="1"/>
  <rect x="583.0" y="155" width="2" height="33" fill="#16A34A"/>
  <rect x="577" y="160" width="14" height="25" fill="#16A34A" rx="1"/>
  <rect x="609.0" y="118" width="2" height="45" fill="#16A34A"/>
  <rect x="603" y="125" width="14" height="35" fill="#16A34A" rx="1"/>
  <text x="539" y="110" font-size="10" font-weight="700" fill="#16A34A">Gia tiep tuc tang - dinh moi cao hon</text>
  <text x="403" y="386" font-size="11" fill="#374151">Khong MSS that, buy program con tiep dien</text>
  <rect x="24" y="418" width="712" height="30" rx="6" fill="#FEF3C7"/>
  <text x="36" y="438" font-size="12" font-weight="700" fill="#92400E">Chi tin la Smart Money High khi reject NHANH + MSS giam that xay ra ngay sau sweep - khong phai moi cu quet deu la dinh.</text>
</svg>
