<svg viewBox="0 0 760 440" xmlns="http://www.w3.org/2000/svg" font-family="'Segoe UI', Arial, sans-serif">
  <rect x="0" y="0" width="760" height="440" rx="10" fill="#FBFBFD" stroke="#D8DBE2" stroke-width="1.5"/>
  <text x="24" y="34" font-size="18" font-weight="700" fill="#1F2937">Chu ky MMSM - Buy Program (Nua A) -> Smart Money High -> Sell Program (Nua B)</text>
  <text x="24" y="54" font-size="13" fill="#6B7280">Dinh that chi hinh thanh sau khi co sweep BSL + reject + MSS giam. So do khai niem, khong phai chart gia that.</text>
  <rect x="40" y="70" width="130" height="46" rx="6" fill="#FFFFFF" stroke="#E5E7EB"/>
  <text x="52" y="98" font-size="12" font-weight="700" fill="#374151">Original Consolidation</text>
  <rect x="40" y="130" width="330" height="230" rx="8" fill="#F0FDF4" stroke="#86EFAC"/>
  <text x="52" y="150" font-size="12" font-weight="700" fill="#16A34A">Nua A - Buy Program</text>
  <path d="M 70,320 L 130,280 L 190,245 L 250,210 L 300,170" fill="none" stroke="#16A34A" stroke-width="2.4"/>
  <circle cx="70" cy="320" r="3.5" fill="#16A34A"/>
  <text x="56" y="312" font-size="10" fill="#16A34A">LRB#1</text>
  <circle cx="130" cy="280" r="3.5" fill="#16A34A"/>
  <text x="116" y="272" font-size="10" fill="#16A34A">LRB#2</text>
  <circle cx="190" cy="245" r="3.5" fill="#16A34A"/>
  <text x="176" y="237" font-size="10" fill="#16A34A">LRB#3</text>
  <circle cx="250" cy="210" r="3.5" fill="#16A34A"/>
  <text x="236" y="202" font-size="10" fill="#16A34A">LRB#4</text>
  <circle cx="300" cy="170" r="3.5" fill="#16A34A"/>
  <circle cx="300" cy="170" r="9" fill="none" stroke="#2563EB" stroke-width="2.6"/>
  <text x="200" y="152" font-size="12" font-weight="700" fill="#2563EB">Smart Money High (sweep BSL + reject)</text>
  <line x1="40" y1="160" x2="370" y2="160" stroke="#16A34A" stroke-width="1.2" stroke-dasharray="5 3"/>
  <text x="44" y="178" font-size="9.5" fill="#16A34A">BSL pool</text>
  <path d="M300,170 L300,220" fill="none" stroke="#2563EB" stroke-width="2.4"/>
  <path d="M294,212 L300,224 L306,212 Z" fill="#2563EB"/>
  <text x="230" y="245" font-size="11" font-weight="700" fill="#2563EB">MSS giam + FVG</text>
  <rect x="390" y="130" width="330" height="230" rx="8" fill="#FEF2F2" stroke="#FCA5A5"/>
  <text x="402" y="150" font-size="12" font-weight="700" fill="#DC2626">Nua B - Sell Program</text>
  <path d="M 410,170 L 460,195 L 510,220 L 560,245 L 610,280 L 660,320" fill="none" stroke="#DC2626" stroke-width="2.4"/>
  <circle cx="410" cy="170" r="3.5" fill="#DC2626"/>
  <text x="394" y="162" font-size="10" fill="#DC2626">LRS#1</text>
  <circle cx="460" cy="195" r="3.5" fill="#DC2626"/>
  <text x="444" y="187" font-size="10" fill="#DC2626">LRS#2</text>
  <circle cx="510" cy="220" r="3.5" fill="#DC2626"/>
  <text x="494" y="212" font-size="10" fill="#DC2626">LRS#3</text>
  <circle cx="560" cy="245" r="3.5" fill="#DC2626"/>
  <text x="544" y="237" font-size="10" fill="#DC2626">LRS#4</text>
  <circle cx="610" cy="280" r="3.5" fill="#DC2626"/>
  <text x="594" y="272" font-size="10" fill="#DC2626">LRS#5</text>
  <circle cx="660" cy="320" r="3.5" fill="#DC2626"/>
  <rect x="580" y="330" width="140" height="24" rx="5" fill="#FFFFFF" stroke="#E5E7EB"/>
  <text x="592" y="346" font-size="11" font-weight="700" fill="#374151">SSL (Target)</text>
  <rect x="40" y="380" width="680" height="40" rx="6" fill="#FEF3C7"/>
  <text x="52" y="405" font-size="12" font-weight="700" fill="#92400E">Ban CHI ban o Nua B, sau khi Smart Money High da xac nhan bang sweep + reject + MSS giam - khong mua trong Nua A.</text>
</svg>
