<svg viewBox="0 0 760 400" xmlns="http://www.w3.org/2000/svg" font-family="'Segoe UI', Arial, sans-serif">
<rect x="0" y="0" width="760" height="400" rx="10" fill="#FBFBFD" stroke="#D8DBE2" stroke-width="1.5"/>
<text x="24" y="34" font-size="18" font-weight="700" fill="#1F2937">Stop &amp; target — Bearish 08:30 (raid BSL → MSS → sell PD array)</text>
<text x="24" y="54" font-size="13" fill="#6B7280">Stop NGOÀI TOÀN BỘ range post-08:30, không chỉ tại swing MSS.</text>
<line x1="90" y1="95" x2="700" y2="95" stroke="#DC2626" stroke-width="1.5"/>
<text x="90" y="88" font-size="10.5" fill="#B91C1C">Đỉnh raid post-08:30 (BSL bị quét) — STOP ở NGAY TRÊN đây</text>
<path d="M120 100 L120 130" stroke="#DC2626" stroke-width="2"/>
<rect x="114" y="100" width="12" height="22" fill="#DC2626"/>
<rect x="150" y="120" width="360" height="34" fill="#3B82F6" opacity="0.16"/>
<text x="160" y="140" font-size="10.5" font-weight="700" fill="#1D4ED8">PD array (SIBI/OB/breaker) — SELL tại retest đầu tiên</text>
<line x1="150" y1="137" x2="510" y2="137" stroke="#1D4ED8" stroke-width="1.3" stroke-dasharray="2 2"/>
<text x="516" y="141" font-size="10" fill="#1D4ED8">Entry</text>
<path d="M150 110 Q260 108 320 140 T500 200 T640 280" stroke="#DC2626" stroke-width="2.5" fill="none"/>
<line x1="90" y1="235" x2="700" y2="235" stroke="#94A3B8" stroke-dasharray="5 4"/>
<text x="705" y="239" font-size="10" fill="#64748B">T1 (IRL)</text>
<line x1="90" y1="300" x2="700" y2="300" stroke="#94A3B8" stroke-dasharray="5 4"/>
<text x="705" y="304" font-size="10" fill="#64748B">T2 = DOL kế (relative equal lows / đáy phiên trước)</text>
<text x="150" y="345" font-size="11" fill="#374151">1) Raid relative equal highs (sau 08:30) → 2) đóng dưới swing low = MSS →</text>
<text x="150" y="365" font-size="11" fill="#374151">3) sell tại PD array đầu tiên → 4) T1 dời BE → 5) chạy về DOL kế.</text>
</svg>
