<svg viewBox="0 0 760 320" xmlns="http://www.w3.org/2000/svg" font-family="'Segoe UI', Arial, sans-serif">
<rect x="0" y="0" width="760" height="320" rx="10" fill="#FBFBFD" stroke="#D8DBE2" stroke-width="1.5"/>
<text x="24" y="34" font-size="18" font-weight="700" fill="#1F2937">Khung thời gian &amp; thời điểm — Mô hình 08:30 AM NY</text>
<text x="24" y="54" font-size="13" fill="#6B7280">Ngồi trước máy 08:00 NY; chỉ tập trung SAU 08:30. Ba khung: 15m (bias) · 5m (cấu trúc) · 1m (trigger).</text>
<rect x="24" y="76" width="712" height="70" rx="6" fill="#FFFFFF" stroke="#E5E7EB"/><line x1="60" y1="120" x2="720" y2="120" stroke="#CBD5E1" stroke-width="2"/><circle cx="120" cy="120" r="5" fill="#6B7280"/><text x="120" y="108" font-size="10" fill="#6B7280" text-anchor="middle">08:00 vào bàn</text><circle cx="320" cy="120" r="5" fill="#DC2626"/><text x="320" y="108" font-size="10" fill="#DC2626" text-anchor="middle">08:30 mốc chính</text><circle cx="520" cy="120" r="5" fill="#15803D"/><text x="520" y="108" font-size="10" fill="#15803D" text-anchor="middle">raid + MSS</text><circle cx="680" cy="120" r="5" fill="#1D4ED8"/><text x="680" y="108" font-size="10" fill="#1D4ED8" text-anchor="middle">09:30 NYSE</text><rect x="320" y="112" width="360" height="16" fill="#FEE2E2" opacity="0.6"/><text x="500" y="140" font-size="10" fill="#B91C1C" text-anchor="middle">Cửa sổ setup: post-08:30</text><rect x="40" y="170" width="226" height="120" rx="8" fill="#FFFFFF" stroke="#1D4ED8" stroke-width="1.5"/><text x="56" y="200" font-size="14" font-weight="700" fill="#1D4ED8">15 phút</text><text x="56" y="226" font-size="11" fill="#374151">BIAS + Draw on Liquidity</text><text x="56" y="244" font-size="11" fill="#374151">(chart mẹ)</text><rect x="276" y="170" width="226" height="120" rx="8" fill="#FFFFFF" stroke="#7C3AED" stroke-width="1.5"/><text x="292" y="200" font-size="14" font-weight="700" fill="#7C3AED">5 phút</text><text x="292" y="226" font-size="11" fill="#374151">Bối cảnh cấu trúc</text><rect x="512" y="170" width="226" height="120" rx="8" fill="#FFFFFF" stroke="#15803D" stroke-width="1.5"/><text x="528" y="200" font-size="14" font-weight="700" fill="#15803D">1 phút</text><text x="528" y="226" font-size="11" fill="#374151">Relative equal H/L +</text><text x="528" y="244" font-size="11" fill="#374151">trigger entry</text>
</svg>
