<svg viewBox="0 0 760 300" xmlns="http://www.w3.org/2000/svg" font-family="'Segoe UI', Arial, sans-serif">
<rect x="0" y="0" width="760" height="300" rx="10" fill="#FBFBFD" stroke="#D8DBE2" stroke-width="1.5"/>
<text x="24" y="34" font-size="18" font-weight="700" fill="#1F2937">Ví dụ ĐÚNG — 08:30 Model</text>
<text x="24" y="54" font-size="13" fill="#6B7280">Bias 15m rõ → raid post-08:30 → MSS → vào PD array đầu tiên → stop ngoài range post-08:30.</text>
<rect x="24" y="70" width="712" height="220" rx="8" fill="#FFFFFF" stroke="#86EFAC"/><text x="40" y="94" font-size="11" font-weight="700" fill="#15803D">✔ Có bias 15m  ✔ Chờ raid sau 08:30  ✔ MSS xác nhận  ✔ PD array đầu tiên  ✔ Stop ngoài range post-08:30</text><line x1="60" y1="130" x2="360" y2="130" stroke="#6B7280" stroke-dasharray="6 4"/><text x="60" y="124" font-size="9.5" fill="#4B5563">Rel Equal Highs</text><rect x="75" y="150" width="2" height="50" fill="#16A34A"/><rect x="70" y="160" width="12" height="35" fill="#16A34A" rx="1"/><rect x="97" y="150" width="2" height="50" fill="#16A34A"/><rect x="92" y="160" width="12" height="35" fill="#16A34A" rx="1"/><rect x="119" y="110" width="2" height="65" fill="#16A34A"/><rect x="114" y="120" width="12" height="30" fill="#16A34A" rx="1"/><rect x="141" y="155" width="2" height="80" fill="#DC2626"/><rect x="136" y="168" width="12" height="62" fill="#DC2626" rx="1"/><rect x="163" y="167" width="2" height="82" fill="#DC2626"/><rect x="158" y="180" width="12" height="64" fill="#DC2626" rx="1"/><rect x="185" y="179" width="2" height="84" fill="#DC2626"/><rect x="180" y="192" width="12" height="66" fill="#DC2626" rx="1"/><rect x="270" y="170" width="120" height="30" fill="#3B82F6" opacity="0.16"/><text x="394" y="188" font-size="9.5" fill="#1D4ED8">SIBI (đầu tiên)</text><circle cx="330" cy="185" r="5" fill="#DC2626"/><text x="338" y="180" font-size="9.5" font-weight="700" fill="#DC2626">SELL</text><rect x="355" y="200" width="2" height="55" fill="#DC2626"/><rect x="350" y="210" width="12" height="40" fill="#DC2626" rx="1"/><rect x="377" y="216" width="2" height="57" fill="#DC2626"/><rect x="372" y="226" width="12" height="42" fill="#DC2626" rx="1"/><rect x="399" y="232" width="2" height="59" fill="#DC2626"/><rect x="394" y="242" width="12" height="44" fill="#DC2626" rx="1"/><rect x="421" y="248" width="2" height="61" fill="#DC2626"/><rect x="416" y="258" width="12" height="46" fill="#DC2626" rx="1"/>
</svg>
