<svg viewBox="0 0 760 330" xmlns="http://www.w3.org/2000/svg" font-family="'Segoe UI', Arial, sans-serif">
<rect x="0" y="0" width="760" height="330" rx="10" fill="#FBFBFD" stroke="#D8DBE2" stroke-width="1.5"/>
<text x="24" y="34" font-size="18" font-weight="700" fill="#1F2937">Ví dụ ĐÚNG — Unicorn A+</text>
<text x="24" y="54" font-size="13" fill="#6B7280">FVG nằm trọn trong Breaker, thuận bias, trong killzone, có SMT.</text>
<rect x="24" y="70" width="712" height="250" rx="8" fill="#FFFFFF" stroke="#86EFAC"/><text x="40" y="94" font-size="11.5" font-weight="700" fill="#15803D">✔ Overlap thật  ✔ Displacement sạch  ✔ Thuận HTF bias  ✔ Killzone/Macro  ✔ Limit tại 50% CE  ✔ SMT</text><rect x="250" y="140" width="240" height="80" fill="#F59E0B" opacity="0.18"/><rect x="250" y="160" width="240" height="45" fill="#3B82F6" opacity="0.16"/><rect x="250" y="172" width="240" height="18" fill="#7C3AED" opacity="0.30"/><text x="370" y="185" font-size="10" font-weight="700" fill="#5B21B6" text-anchor="middle">Unicorn — FVG trong Breaker</text><rect x="66" y="220" width="2" height="70" fill="#16A34A"/><rect x="60" y="235" width="13" height="50" fill="#16A34A" rx="1"/><rect x="92" y="208" width="2" height="72" fill="#16A34A"/><rect x="86" y="223" width="13" height="52" fill="#16A34A" rx="1"/><rect x="118" y="196" width="2" height="74" fill="#16A34A"/><rect x="112" y="211" width="13" height="54" fill="#16A34A" rx="1"/><rect x="144" y="184" width="2" height="76" fill="#16A34A"/><rect x="138" y="199" width="13" height="56" fill="#16A34A" rx="1"/><rect x="170" y="175" width="2" height="70" fill="#DC2626"/><rect x="164" y="188" width="13" height="52" fill="#DC2626" rx="1"/><rect x="196" y="191" width="2" height="70" fill="#DC2626"/><rect x="190" y="204" width="13" height="52" fill="#DC2626" rx="1"/><rect x="222" y="207" width="2" height="70" fill="#DC2626"/><rect x="216" y="220" width="13" height="52" fill="#DC2626" rx="1"/><rect x="248" y="223" width="2" height="70" fill="#DC2626"/><rect x="242" y="236" width="13" height="52" fill="#DC2626" rx="1"/><rect x="274" y="239" width="2" height="70" fill="#DC2626"/><rect x="268" y="252" width="13" height="52" fill="#DC2626" rx="1"/><rect x="300" y="255" width="2" height="70" fill="#DC2626"/><rect x="294" y="268" width="13" height="52" fill="#DC2626" rx="1"/>
</svg>
