<svg viewBox="0 0 760 420" xmlns="http://www.w3.org/2000/svg" font-family="'Segoe UI', Arial, sans-serif">
<rect x="0" y="0" width="760" height="420" rx="10" fill="#FBFBFD" stroke="#D8DBE2" stroke-width="1.5"/>
<text x="24" y="34" font-size="18" font-weight="700" fill="#1F2937">Unicorn Bullish vs Bearish</text>
<text x="24" y="54" font-size="13" fill="#6B7280">Bullish: quét đáy (SSL) → đẩy lên; Bearish: quét đỉnh (BSL) → đẩy xuống.</text>
<rect x="24" y="72" width="350" height="330" rx="8" fill="#FFFFFF" stroke="#86EFAC"/><text x="40" y="96" font-size="13" font-weight="700" fill="#15803D">BULLISH UNICORN</text><line x1="40" y1="330" x2="360" y2="330" stroke="#6B7280" stroke-dasharray="6 4"/><text x="40" y="346" font-size="10" fill="#4B5563">SSL (đáy bị quét)</text><rect x="66" y="150" width="2" height="70" fill="#DC2626"/><rect x="60" y="160" width="13" height="55" fill="#DC2626" rx="1"/><rect x="88" y="160" width="2" height="68" fill="#DC2626"/><rect x="82" y="170" width="13" height="53" fill="#DC2626" rx="1"/><rect x="110" y="170" width="2" height="66" fill="#DC2626"/><rect x="104" y="180" width="13" height="51" fill="#DC2626" rx="1"/><rect x="132" y="300" width="2" height="60" fill="#DC2626"/><rect x="126" y="320" width="13" height="32" fill="#DC2626" rx="1"/><rect x="154" y="240" width="2" height="60" fill="#16A34A"/><rect x="148" y="255" width="13" height="40" fill="#16A34A" rx="1"/><rect x="176" y="210" width="2" height="64" fill="#16A34A"/><rect x="170" y="225" width="13" height="44" fill="#16A34A" rx="1"/><rect x="198" y="180" width="2" height="68" fill="#16A34A"/><rect x="192" y="195" width="13" height="48" fill="#16A34A" rx="1"/><rect x="220" y="150" width="2" height="72" fill="#16A34A"/><rect x="214" y="165" width="13" height="52" fill="#16A34A" rx="1"/><rect x="180" y="200" width="150" height="55" fill="#F59E0B" opacity="0.18"/><rect x="180" y="220" width="150" height="35" fill="#3B82F6" opacity="0.16"/><rect x="180" y="220" width="150" height="20" fill="#7C3AED" opacity="0.28"/><text x="255" y="234" font-size="10" font-weight="700" fill="#5B21B6" text-anchor="middle">Unicorn (mua)</text><rect x="386" y="72" width="350" height="330" rx="8" fill="#FFFFFF" stroke="#FCA5A5"/><text x="402" y="96" font-size="13" font-weight="700" fill="#B91C1C">BEARISH UNICORN</text><line x1="402" y1="130" x2="722" y2="130" stroke="#6B7280" stroke-dasharray="6 4"/><text x="402" y="124" font-size="10" fill="#4B5563">BSL (đỉnh bị quét)</text><rect x="426" y="240" width="2" height="60" fill="#16A34A"/><rect x="420" y="255" width="13" height="40" fill="#16A34A" rx="1"/><rect x="448" y="230" width="2" height="62" fill="#16A34A"/><rect x="442" y="245" width="13" height="42" fill="#16A34A" rx="1"/><rect x="470" y="220" width="2" height="64" fill="#16A34A"/><rect x="464" y="235" width="13" height="44" fill="#16A34A" rx="1"/><rect x="492" y="108" width="2" height="72" fill="#16A34A"/><rect x="486" y="120" width="13" height="30" fill="#16A34A" rx="1"/><rect x="514" y="180" width="2" height="70" fill="#DC2626"/><rect x="508" y="195" width="13" height="50" fill="#DC2626" rx="1"/><rect x="536" y="208" width="2" height="68" fill="#DC2626"/><rect x="530" y="223" width="13" height="48" fill="#DC2626" rx="1"/><rect x="558" y="236" width="2" height="66" fill="#DC2626"/><rect x="552" y="251" width="13" height="46" fill="#DC2626" rx="1"/><rect x="580" y="264" width="2" height="64" fill="#DC2626"/><rect x="574" y="279" width="13" height="44" fill="#DC2626" rx="1"/><rect x="540" y="180" width="150" height="55" fill="#F59E0B" opacity="0.18"/><rect x="540" y="180" width="150" height="35" fill="#3B82F6" opacity="0.16"/><rect x="540" y="195" width="150" height="20" fill="#7C3AED" opacity="0.28"/><text x="615" y="209" font-size="10" font-weight="700" fill="#5B21B6" text-anchor="middle">Unicorn (bán)</text>
</svg>
