<svg viewBox="0 0 760 420" xmlns="http://www.w3.org/2000/svg" font-family="'Segoe UI', Arial, sans-serif">
<rect x="0" y="0" width="760" height="420" rx="10" fill="#FBFBFD" stroke="#D8DBE2" stroke-width="1.5"/>
<text x="24" y="34" font-size="18" font-weight="700" fill="#1F2937">Vào lệnh chính xác: 50% CE của FVG bên trong Breaker</text>
<text x="24" y="54" font-size="13" fill="#6B7280">Ví dụ bearish. Limit tại 50% CE của FVG (nằm trong Breaker), stop trên wick sweep, TP IRL→ERL.</text>
<rect x="24" y="70" width="712" height="345" rx="8" fill="#FFFFFF" stroke="#E5E7EB"/><line x1="60" y1="120" x2="360" y2="120" stroke="#6B7280" stroke-dasharray="6 4"/><text x="60" y="114" font-size="10" fill="#4B5563">BSL bị quét</text><rect x="86" y="240" width="2" height="60" fill="#16A34A"/><rect x="80" y="255" width="13" height="40" fill="#16A34A" rx="1"/><rect x="110" y="230" width="2" height="62" fill="#16A34A"/><rect x="104" y="245" width="13" height="42" fill="#16A34A" rx="1"/><rect x="134" y="220" width="2" height="64" fill="#16A34A"/><rect x="128" y="235" width="13" height="44" fill="#16A34A" rx="1"/><rect x="158" y="100" width="2" height="75" fill="#16A34A"/><rect x="152" y="112" width="13" height="33" fill="#16A34A" rx="1"/><text x="120" y="96" font-size="10" fill="#DC2626">quét BSL (sweep)</text><rect x="182" y="175" width="2" height="75" fill="#DC2626"/><rect x="176" y="190" width="13" height="55" fill="#DC2626" rx="1"/><rect x="206" y="197" width="2" height="75" fill="#DC2626"/><rect x="200" y="212" width="13" height="55" fill="#DC2626" rx="1"/><rect x="230" y="219" width="2" height="75" fill="#DC2626"/><rect x="224" y="234" width="13" height="55" fill="#DC2626" rx="1"/><rect x="254" y="241" width="2" height="75" fill="#DC2626"/><rect x="248" y="256" width="13" height="55" fill="#DC2626" rx="1"/><rect x="300" y="150" width="200" height="70" fill="#F59E0B" opacity="0.18"/><text x="504" y="164" font-size="10" fill="#B45309">Breaker</text><rect x="300" y="175" width="200" height="45" fill="#3B82F6" opacity="0.16"/><text x="504" y="200" font-size="10" fill="#1D4ED8">FVG</text><line x1="300" y1="197" x2="500" y2="197" stroke="#6D28D9" stroke-dasharray="3 3"/><text x="504" y="200" font-size="0" fill="#000"/><rect x="300" y="188" width="200" height="18" fill="#7C3AED" opacity="0.30"/><text x="360" y="201" font-size="10" font-weight="700" fill="#5B21B6">50% CE = LIMIT</text><rect x="278" y="215" width="2" height="55" fill="#16A34A"/><rect x="272" y="225" width="13" height="40" fill="#16A34A" rx="1"/><rect x="302" y="210" width="2" height="55" fill="#16A34A"/><rect x="296" y="220" width="13" height="40" fill="#16A34A" rx="1"/><circle cx="500" cy="197" r="5" fill="#DC2626"/><text x="508" y="192" font-size="10" font-weight="700" fill="#DC2626">ENTRY</text><rect x="326" y="220" width="2" height="55" fill="#DC2626"/><rect x="320" y="232" width="13" height="38" fill="#DC2626" rx="1"/><rect x="350" y="242" width="2" height="55" fill="#DC2626"/><rect x="344" y="254" width="13" height="38" fill="#DC2626" rx="1"/><rect x="374" y="264" width="2" height="55" fill="#DC2626"/><rect x="368" y="276" width="13" height="38" fill="#DC2626" rx="1"/><rect x="398" y="286" width="2" height="55" fill="#DC2626"/><rect x="392" y="298" width="13" height="38" fill="#DC2626" rx="1"/><line x1="60" y1="100" x2="300" y2="100" stroke="#DC2626" stroke-dasharray="4 3"/><text x="64" y="94" font-size="10" fill="#DC2626">Stop trên wick sweep</text><line x1="560" y1="330" x2="720" y2="330" stroke="#0EA5E9" stroke-dasharray="6 4"/><text x="600" y="324" font-size="10" fill="#0369A1">T1 = IRL</text><line x1="560" y1="380" x2="720" y2="380" stroke="#7C3AED" stroke-dasharray="6 4"/><text x="600" y="374" font-size="10" fill="#6D28D9">T2 = ERL</text>
</svg>
