<svg viewBox="0 0 760 460" xmlns="http://www.w3.org/2000/svg" font-family="'Segoe UI', Arial, sans-serif">
  <rect x="0" y="0" width="760" height="460" rx="10" fill="#FBFBFD" stroke="#D8DBE2" stroke-width="1.5"/>
  <text x="24" y="34" font-size="18" font-weight="700" fill="#1F2937">CBDR đúng — range hẹp 14:00–20:00 NY + SD projection</text>
  <text x="24" y="54" font-size="13" fill="#6B7280">Đo body high/low của vùng tích lũy, chiếu 1x/2x SD làm target session sau</text>

  <!-- CBDR consolidation box -->
  <rect x="120" y="205" width="180" height="50" fill="#3B82F6" opacity="0.14"/>
  <line x1="120" y1="205" x2="640" y2="205" stroke="#2563EB" stroke-width="1.5"/>
  <line x1="120" y1="255" x2="640" y2="255" stroke="#2563EB" stroke-width="1.5"/>
  <text x="124" y="199" font-size="12" fill="#2563EB" font-weight="600">CBDR High (body)</text>
  <text x="124" y="271" font-size="12" fill="#2563EB" font-weight="600">CBDR Low (body) — range ~40 pip</text>
  <text x="128" y="234" font-size="12" fill="#1F2937" font-weight="600">CBDR 14:00–20:00 NY</text>

  <!-- consolidation candles inside box (small bodies) -->
  <rect x="138" y="218" width="2" height="26" fill="#16A34A"/><rect x="132" y="224" width="14" height="13" fill="#16A34A" rx="1"/>
  <rect x="164" y="220" width="2" height="26" fill="#DC2626"/><rect x="158" y="226" width="14" height="12" fill="#DC2626" rx="1"/>
  <rect x="190" y="216" width="2" height="28" fill="#16A34A"/><rect x="184" y="222" width="14" height="14" fill="#16A34A" rx="1"/>
  <rect x="216" y="220" width="2" height="26" fill="#DC2626"/><rect x="210" y="226" width="14" height="12" fill="#DC2626" rx="1"/>
  <rect x="242" y="218" width="2" height="26" fill="#16A34A"/><rect x="236" y="224" width="14" height="12" fill="#16A34A" rx="1"/>
  <rect x="268" y="220" width="2" height="26" fill="#DC2626"/><rect x="262" y="226" width="14" height="13" fill="#DC2626" rx="1"/>

  <!-- SD projection lines -->
  <line x1="120" y1="155" x2="640" y2="155" stroke="#2563EB" stroke-width="1.5" stroke-dasharray="6 4"/>
  <text x="648" y="159" font-size="12" fill="#2563EB" font-weight="600">+1 SD</text>
  <line x1="120" y1="105" x2="640" y2="105" stroke="#2563EB" stroke-width="1.5" stroke-dasharray="6 4"/>
  <text x="648" y="109" font-size="12" fill="#2563EB" font-weight="600">+2 SD (target)</text>
  <line x1="120" y1="305" x2="640" y2="305" stroke="#2563EB" stroke-width="1.5" stroke-dasharray="6 4"/>
  <text x="648" y="309" font-size="12" fill="#2563EB" font-weight="600">-1 SD</text>
  <line x1="120" y1="355" x2="640" y2="355" stroke="#2563EB" stroke-width="1.5" stroke-dasharray="6 4"/>
  <text x="648" y="359" font-size="12" fill="#2563EB" font-weight="600">-2 SD</text>

  <!-- Asian/London expansion candles reaching +2SD -->
  <rect x="330" y="235" width="2" height="22" fill="#16A34A"/><rect x="324" y="240" width="14" height="14" fill="#16A34A" rx="1"/>
  <rect x="356" y="200" width="2" height="40" fill="#16A34A"/><rect x="350" y="205" width="14" height="32" fill="#16A34A" rx="1"/>
  <rect x="382" y="160" width="2" height="44" fill="#16A34A"/><rect x="376" y="165" width="14" height="38" fill="#16A34A" rx="1"/>
  <rect x="408" y="120" width="2" height="44" fill="#16A34A"/><rect x="402" y="128" width="14" height="34" fill="#16A34A" rx="1"/>
  <rect x="434" y="100" width="2" height="34" fill="#16A34A"/><rect x="428" y="105" width="14" height="22" fill="#16A34A" rx="1"/>

  <path d="M 470 110 L 510 110" stroke="#16A34A" stroke-width="1.5" marker-end="url(#ar)"/>
  <defs><marker id="ar" markerWidth="8" markerHeight="8" refX="6" refY="3" orient="auto"><path d="M0,0 L6,3 L0,6 Z" fill="#16A34A"/></marker></defs>
  <text x="478" y="128" font-size="13" fill="#374151">Session sau chạy đúng tới +2 SD</text>

  <text x="24" y="436" font-size="15" font-weight="700" fill="#16A34A">✓ Đúng</text>
  <text x="78" y="436" font-size="12" fill="#374151">Range hẹp, đo body, SD projection làm target rõ ràng</text>
</svg>
