<svg viewBox="0 0 760 400" xmlns="http://www.w3.org/2000/svg" font-family="'Segoe UI', Arial, sans-serif">
  <rect x="0" y="0" width="760" height="400" rx="10" fill="#FBFBFD" stroke="#D8DBE2" stroke-width="1.5"/>
  <text x="24" y="32" font-size="16" font-weight="700" fill="#166534">✓ Ví dụ ĐÚNG — CISD thuận bias, sau sweep, trong killzone</text>

  <rect x="24" y="50" width="712" height="300" rx="8" fill="#FFFFFF" stroke="#E5E7EB"/>
  <text x="36" y="72" font-size="11.5" fill="#6B7280">NQ, ngày bias BULLISH (HTF discount). Killzone NY AM. Sweep SSL phiên Á → CISD close → entry FVG → target BSL.</text>

  <line x1="80" y1="120" x2="700" y2="120" stroke="#B91C1C" stroke-width="1.3" stroke-dasharray="5 4"/>
  <text x="600" y="114" font-size="10" font-weight="700" fill="#B91C1C">BSL (target)</text>
  <line x1="80" y1="180" x2="700" y2="180" stroke="#0EA5E9" stroke-width="1.8" stroke-dasharray="8 4"/>
  <text x="600" y="174" font-size="10" font-weight="700" fill="#0284C7">CISD level</text>
  <line x1="80" y1="300" x2="700" y2="300" stroke="#6B7280" stroke-width="1.1" stroke-dasharray="4 3"/>
  <text x="90" y="295" font-size="10" fill="#6B7280">SSL (Á session low)</text>

  <rect x="120" y="190" width="13" height="50" fill="#DC2626"/><rect x="142" y="210" width="13" height="60" fill="#DC2626"/><rect x="164" y="240" width="13" height="60" fill="#DC2626"/>
  <rect x="192" y="250" width="13" height="70" fill="#16A34A"/>
  <circle cx="198" cy="322" r="9" fill="none" stroke="#F59E0B" stroke-width="2.5"/><text x="180" y="342" font-size="9.5" font-weight="700" fill="#B45309">sweep SSL</text>
  <rect x="220" y="150" width="13" height="130" fill="#16A34A"/><circle cx="226" cy="160" r="6" fill="#0EA5E9"/>
  <text x="240" y="150" font-size="9.5" font-weight="700" fill="#0284C7">CISD close ✓</text>
  <rect x="214" y="225" width="30" height="26" fill="#DCFCE7" stroke="#16A34A" stroke-dasharray="3 3"/>
  <rect x="250" y="180" width="13" height="60" fill="#DC2626"/><circle cx="256" cy="232" r="8" fill="none" stroke="#16A34A" stroke-width="2.5"/><text x="268" y="225" font-size="9.5" font-weight="700" fill="#166534">entry FVG</text>
  <rect x="278" y="140" width="13" height="70" fill="#16A34A"/><rect x="300" y="120" width="13" height="55" fill="#16A34A"/><rect x="322" y="115" width="13" height="45" fill="#16A34A"/>

  <text x="36" y="372" font-size="11" fill="#374151">Vì sao tốt: (1) thuận Daily Bias, (2) CISD in NGAY SAU sweep — có lý do đảo, (3) entry ở retrace FVG chứ không đuổi nến displacement.</text>
</svg>
