<svg viewBox="0 0 760 440" xmlns="http://www.w3.org/2000/svg" font-family="'Segoe UI', Arial, sans-serif">
<rect x="0" y="0" width="760" height="440" rx="10" fill="#FBFBFD" stroke="#D8DBE2" stroke-width="1.5"/>
<text x="24" y="34" font-size="17" font-weight="700" fill="#1F2937">Ghép 1st FVG với Daily Bias</text>
<text x="24" y="54" font-size="12.5" fill="#6B7280">Cùng bias = continuation sạch. Ngược bias = cửa sổ manipulation / fakeout, quét thanh khoản rồi đảo.</text>
<!-- WITH BIAS -->
<rect x="24" y="70" width="352" height="340" rx="8" fill="#FFFFFF" stroke="#16A34A"/>
<text x="40" y="94" font-size="12.5" font-weight="700" fill="#166534">CÙNG bias (bullish bias + bullish FVG)</text>
<text x="40" y="112" font-size="10.5" fill="#374151">→ continuation LONG sạch</text>
<line x1="55" y1="290" x2="55" y2="345" stroke="#DC2626" stroke-width="1.4"/><rect x="49.5" y="300" width="11" height="35" fill="#DC2626"/>
<line x1="77" y1="235" x2="77" y2="345" stroke="#16A34A" stroke-width="1.4"/><rect x="71.5" y="245" width="11" height="90" fill="#16A34A"/>
<line x1="99" y1="200" x2="99" y2="255" stroke="#16A34A" stroke-width="1.4"/><rect x="93.5" y="210" width="11" height="45" fill="#16A34A"/>
<rect x="55" y="255" width="150" height="35" fill="#DBEAFE" stroke="#93C5FD" stroke-width="1.4"/>
<text x="120" y="277" font-size="10" font-weight="700" fill="#1D4ED8">bullish 1st FVG</text>
<line x1="205" y1="272" x2="345" y2="272" stroke="#1D4ED8" stroke-width="1.2" stroke-dasharray="6 4"/>
<line x1="135" y1="200" x2="135" y2="255" stroke="#DC2626" stroke-width="1.4"/><rect x="129.5" y="255" width="11" height="20" fill="#DC2626"/>
<circle cx="135" cy="275" r="7" fill="none" stroke="#166534" stroke-width="2.2"/>
<text x="148" y="292" font-size="10" fill="#166534">tap FVG → giữ</text>
<line x1="157" y1="150" x2="157" y2="260" stroke="#16A34A" stroke-width="1.4"/><rect x="151.5" y="160" width="11" height="95" fill="#16A34A"/>
<line x1="179" y1="120" x2="179" y2="170" stroke="#16A34A" stroke-width="1.4"/><rect x="173.5" y="130" width="11" height="35" fill="#16A34A"/>
<text x="40" y="150" font-size="10.5" font-weight="700" fill="#166534">Daily Bias: ↑ BULLISH</text>
<text x="60" y="378" font-size="10.5" fill="#374151">FVG cùng hướng bias = mức để vào theo xu</text>
<text x="60" y="394" font-size="10.5" font-weight="700" fill="#166534">hướng, conviction cao</text>
<!-- AGAINST BIAS -->
<rect x="392" y="70" width="344" height="340" rx="8" fill="#FFFFFF" stroke="#DC2626"/>
<text x="408" y="94" font-size="12.5" font-weight="700" fill="#B91C1C">NGƯỢC bias (bullish bias + bearish FVG)</text>
<text x="408" y="112" font-size="10.5" fill="#374151">→ manipulation / fakeout, coi chừng bẫy</text>
<text x="408" y="150" font-size="10.5" font-weight="700" fill="#166534">Daily Bias: ↑ BULLISH (hướng thật)</text>
<line x1="423" y1="150" x2="423" y2="200" stroke="#16A34A" stroke-width="1.4"/><rect x="417.5" y="160" width="11" height="35" fill="#16A34A"/>
<line x1="445" y1="150" x2="445" y2="250" stroke="#DC2626" stroke-width="1.4"/><rect x="439.5" y="160" width="11" height="80" fill="#DC2626"/>
<line x1="467" y1="230" x2="467" y2="300" stroke="#DC2626" stroke-width="1.4"/><rect x="461.5" y="240" width="11" height="52" fill="#DC2626"/>
<rect x="423" y="195" width="140" height="35" fill="#FEE2E2" stroke="#DC2626" stroke-width="1.3"/>
<text x="490" y="217" font-size="10" font-weight="700" fill="#B91C1C">bearish FVG (giả)</text>
<!-- grab liquidity below then reverse up to bias -->
<line x1="489" y1="280" x2="489" y2="360" stroke="#DC2626" stroke-width="1.4"/><rect x="483.5" y="290" width="11" height="55" fill="#DC2626"/>
<line x1="511" y1="330" x2="511" y2="395" stroke="#DC2626" stroke-width="1.4"/><rect x="505.5" y="340" width="11" height="45" fill="#DC2626"/>
<line x1="440" y1="392" x2="700" y2="392" stroke="#B91C1C" stroke-width="1" stroke-dasharray="4 3"/>
<circle cx="511" cy="395" r="8" fill="none" stroke="#B45309" stroke-width="2.2"/>
<text x="522" y="398" font-size="9.5" fill="#B45309">quét SSL (grab thanh khoản)</text>
<line x1="533" y1="230" x2="533" y2="390" stroke="#16A34A" stroke-width="1.4"/><rect x="527.5" y="240" width="11" height="145" fill="#16A34A"/>
<line x1="555" y1="150" x2="555" y2="245" stroke="#16A34A" stroke-width="1.4"/><rect x="549.5" y="160" width="11" height="85" fill="#16A34A"/>
<line x1="577" y1="115" x2="577" y2="165" stroke="#16A34A" stroke-width="1.4"/><rect x="571.5" y="125" width="11" height="35" fill="#16A34A"/>
<path d="M600 380 Q625 250 655 130" fill="none" stroke="#166534" stroke-width="1.6" stroke-dasharray="4 4"/>
<text x="600" y="120" font-size="10.5" font-weight="700" fill="#166534">đảo về hướng bias thật ↑</text>
<text x="600" y="380" font-size="10" fill="#B91C1C">Opening Range = cửa MANIPULATION</text>
</svg>
