<svg viewBox="0 0 760 460" xmlns="http://www.w3.org/2000/svg" font-family="'Segoe UI', Arial, sans-serif">
<rect x="0" y="0" width="760" height="460" rx="10" fill="#FBFBFD" stroke="#D8DBE2" stroke-width="1.5"/>
<text x="24" y="34" font-size="17" font-weight="700" fill="#1F2937">Ví dụ SAI — ba cách hỏng thường gặp</text>
<text x="24" y="54" font-size="12.5" fill="#6B7280">FVG không qualified · FVG in ra SAU 10:00 · trade trong spike tin 30 phút đầu.</text>
<!-- panel A: unqualified -->
<rect x="24" y="70" width="230" height="370" rx="8" fill="#FFFFFF" stroke="#DC2626"/>
<text x="38" y="92" font-size="11.5" font-weight="700" fill="#B91C1C">① FVG KHÔNG qualified</text>
<rect x="50" y="200" width="120" height="90" fill="#F3F4F6" stroke="#9CA3AF" stroke-dasharray="4 3"/>
<line x1="50" y1="200" x2="240" y2="200" stroke="#9CA3AF" stroke-width="1" stroke-dasharray="4 3"/>
<text x="150" y="195" font-size="9" fill="#6B7280">trần range</text>
<line x1="72" y1="212" x2="72" y2="278" stroke="#DC2626" stroke-width="1.4"/><rect x="66.5" y="222" width="11" height="42" fill="#DC2626"/>
<line x1="94" y1="210" x2="94" y2="280" stroke="#16A34A" stroke-width="1.4"/><rect x="88.5" y="220" width="11" height="42" fill="#16A34A"/>
<line x1="116" y1="215" x2="116" y2="282" stroke="#DC2626" stroke-width="1.4"/><rect x="110.5" y="225" width="11" height="40" fill="#DC2626"/>
<line x1="138" y1="218" x2="138" y2="280" stroke="#16A34A" stroke-width="1.4"/><rect x="132.5" y="228" width="11" height="38" fill="#16A34A"/>
<rect x="116" y="238" width="55" height="16" fill="#FEE2E2" stroke="#DC2626" stroke-dasharray="3 2"/>
<text x="55" y="320" font-size="9.5" fill="#374151">Gap tí hon nằm gọn trong</text>
<text x="55" y="334" font-size="9.5" fill="#374151">range → không phá, không</text>
<text x="55" y="348" font-size="9.5" fill="#374151">phải inefficiency thật.</text>
<text x="55" y="372" font-size="9.5" font-weight="700" fill="#B91C1C">Bài học: bỏ, chờ FVG qualified.</text>
<!-- panel B: after 10:00 -->
<rect x="266" y="70" width="230" height="370" rx="8" fill="#FFFFFF" stroke="#DC2626"/>
<text x="280" y="92" font-size="11.5" font-weight="700" fill="#B91C1C">② FVG in SAU 10:00</text>
<rect x="286" y="110" width="90" height="200" fill="#FEF3C7" opacity="0.7"/>
<text x="292" y="126" font-size="9" font-weight="700" fill="#B45309">OR 09:30–10:00</text>
<line x1="376" y1="110" x2="376" y2="310" stroke="#B45309" stroke-width="1.4" stroke-dasharray="4 3"/>
<text x="380" y="126" font-size="9" font-weight="700" fill="#B45309">10:00</text>
<!-- flat inside window -->
<line x1="300" y1="220" x2="300" y2="270" stroke="#DC2626" stroke-width="1.4"/><rect x="294.5" y="230" width="11" height="30" fill="#DC2626"/>
<line x1="322" y1="222" x2="322" y2="268" stroke="#16A34A" stroke-width="1.4"/><rect x="316.5" y="230" width="11" height="28" fill="#16A34A"/>
<line x1="344" y1="220" x2="344" y2="270" stroke="#DC2626" stroke-width="1.4"/><rect x="338.5" y="232" width="11" height="28" fill="#DC2626"/>
<!-- gap after 10:00 -->
<line x1="398" y1="230" x2="398" y2="285" stroke="#DC2626" stroke-width="1.4"/><rect x="392.5" y="238" width="11" height="35" fill="#DC2626"/>
<line x1="420" y1="180" x2="420" y2="285" stroke="#16A34A" stroke-width="1.4"/><rect x="414.5" y="190" width="11" height="90" fill="#16A34A"/>
<line x1="442" y1="150" x2="442" y2="205" stroke="#16A34A" stroke-width="1.4"/><rect x="436.5" y="160" width="11" height="45" fill="#16A34A"/>
<rect x="398" y="205" width="70" height="25" fill="#FEE2E2" stroke="#DC2626" stroke-dasharray="3 2"/>
<text x="380" y="330" font-size="9.5" fill="#374151">FVG này hình thành ngoài</text>
<text x="380" y="344" font-size="9.5" fill="#374151">cửa sổ → chỉ là session FVG,</text>
<text x="380" y="358" font-size="9.5" fill="#374151">KHÔNG phải "1st presented".</text>
<text x="380" y="382" font-size="9.5" font-weight="700" fill="#B91C1C">Bài học: chỉ tính FVG trong OR.</text>
<!-- panel C: news spike -->
<rect x="508" y="70" width="228" height="370" rx="8" fill="#FFFFFF" stroke="#DC2626"/>
<text x="522" y="92" font-size="11.5" font-weight="700" fill="#B91C1C">③ Spike tin 30' đầu</text>
<text x="522" y="108" font-size="9" fill="#B45309">⚠ news volatility bóp méo imbalance</text>
<!-- huge erratic candles -->
<line x1="540" y1="150" x2="540" y2="340" stroke="#16A34A" stroke-width="1.4"/><rect x="534.5" y="180" width="11" height="130" fill="#16A34A"/>
<line x1="565" y1="140" x2="565" y2="360" stroke="#DC2626" stroke-width="1.4"/><rect x="559.5" y="180" width="11" height="150" fill="#DC2626"/>
<line x1="590" y1="160" x2="590" y2="350" stroke="#16A34A" stroke-width="1.4"/><rect x="584.5" y="200" width="11" height="120" fill="#16A34A"/>
<line x1="615" y1="130" x2="615" y2="370" stroke="#DC2626" stroke-width="1.4"/><rect x="609.5" y="190" width="11" height="140" fill="#DC2626"/>
<rect x="540" y="230" width="90" height="30" fill="#FEE2E2" stroke="#DC2626" stroke-dasharray="3 2"/>
<text x="635" y="248" font-size="9" fill="#B91C1C">FVG "giả"</text>
<text x="522" y="395" font-size="9.5" fill="#374151">Biến động tin xé nến, level</text>
<text x="522" y="409" font-size="9.5" fill="#374151">hiếm khi được tôn trọng.</text>
<text x="522" y="429" font-size="9.5" font-weight="700" fill="#B91C1C">Bài học: skip 30' đầu ngày tin.</text>
</svg>
