<svg viewBox="0 0 760 440" xmlns="http://www.w3.org/2000/svg" font-family="'Segoe UI', Arial, sans-serif">
<rect x="0" y="0" width="760" height="440" rx="10" fill="#FBFBFD" stroke="#D8DBE2" stroke-width="1.5"/>
<text x="24" y="34" font-size="17" font-weight="700" fill="#1F2937">Giải phẫu 1st Presented FVG (Opening Range NY)</text>
<text x="24" y="54" font-size="12.5" fill="#6B7280">FVG ĐẦU TIÊN sau khi mở cửa 09:30 NY, hình thành trong Opening Range 09:30–10:00 — điểm neo của cả phiên.</text>
<rect x="24" y="70" width="712" height="350" rx="8" fill="#FFFFFF" stroke="#E5E7EB"/>
<!-- opening range shading -->
<rect x="286" y="88" width="176" height="312" rx="4" fill="#FEF3C7" opacity="0.75"/>
<text x="300" y="106" font-size="11" font-weight="700" fill="#B45309">Opening Range 09:30–10:00</text>
<!-- 09:30 open vertical -->
<line x1="286" y1="88" x2="286" y2="400" stroke="#B45309" stroke-width="1.4" stroke-dasharray="4 3"/>
<text x="230" y="392" font-size="10" font-weight="700" fill="#B45309">09:30 open</text>
<!-- pre-open consolidation candles -->
<line x1="70" y1="185" x2="70" y2="245" stroke="#16A34A" stroke-width="1.4"/><rect x="64.5" y="195" width="11" height="35" fill="#16A34A"/>
<line x1="92" y1="195" x2="92" y2="255" stroke="#DC2626" stroke-width="1.4"/><rect x="86.5" y="205" width="11" height="35" fill="#DC2626"/>
<line x1="114" y1="188" x2="114" y2="248" stroke="#16A34A" stroke-width="1.4"/><rect x="108.5" y="198" width="11" height="35" fill="#16A34A"/>
<line x1="136" y1="200" x2="136" y2="262" stroke="#DC2626" stroke-width="1.4"/><rect x="130.5" y="210" width="11" height="38" fill="#DC2626"/>
<line x1="158" y1="196" x2="158" y2="256" stroke="#16A34A" stroke-width="1.4"/><rect x="152.5" y="206" width="11" height="35" fill="#16A34A"/>
<line x1="180" y1="205" x2="180" y2="268" stroke="#DC2626" stroke-width="1.4"/><rect x="174.5" y="215" width="11" height="38" fill="#DC2626"/>
<line x1="202" y1="200" x2="202" y2="262" stroke="#16A34A" stroke-width="1.4"/><rect x="196.5" y="210" width="11" height="36" fill="#16A34A"/>
<line x1="224" y1="210" x2="224" y2="272" stroke="#DC2626" stroke-width="1.4"/><rect x="218.5" y="220" width="11" height="38" fill="#DC2626"/>
<line x1="246" y1="205" x2="246" y2="272" stroke="#DC2626" stroke-width="1.4"/><rect x="240.5" y="218" width="11" height="40" fill="#DC2626"/>
<text x="120" y="150" font-size="10" fill="#6B7280">Tích luỹ trước giờ mở — chưa có imbalance hợp lệ</text>
<!-- 1st FVG candles -->
<line x1="300" y1="255" x2="300" y2="305" stroke="#DC2626" stroke-width="1.4"/><rect x="294.5" y="265" width="11" height="35" fill="#DC2626"/>
<line x1="322" y1="195" x2="322" y2="305" stroke="#16A34A" stroke-width="1.4"/><rect x="316.5" y="205" width="11" height="90" fill="#16A34A"/>
<line x1="344" y1="150" x2="344" y2="220" stroke="#16A34A" stroke-width="1.4"/><rect x="338.5" y="160" width="11" height="55" fill="#16A34A"/>
<!-- FVG box -->
<rect x="300" y="220" width="162" height="35" fill="#DBEAFE" stroke="#93C5FD" stroke-width="1.4"/>
<text x="370" y="242" font-size="11" font-weight="700" fill="#1D4ED8">1st FVG</text>
<!-- extend forward -->
<line x1="462" y1="220" x2="720" y2="220" stroke="#93C5FD" stroke-width="1.2" stroke-dasharray="4 3"/>
<line x1="462" y1="255" x2="720" y2="255" stroke="#93C5FD" stroke-width="1.2" stroke-dasharray="4 3"/>
<line x1="462" y1="237.5" x2="720" y2="237.5" stroke="#1D4ED8" stroke-width="1.4" stroke-dasharray="6 4"/>
<text x="560" y="232" font-size="10" font-weight="700" fill="#1D4ED8">Extend level → cả ngày (đến 03:45 PM)</text>
<!-- price continuation after -->
<line x1="380" y1="120" x2="380" y2="175" stroke="#16A34A" stroke-width="1.4"/><rect x="374.5" y="130" width="11" height="40" fill="#16A34A"/>
<line x1="402" y1="110" x2="402" y2="160" stroke="#16A34A" stroke-width="1.4"/><rect x="396.5" y="120" width="11" height="35" fill="#16A34A"/>
<!-- annotations -->
<circle cx="300" cy="318" r="8" fill="none" stroke="#B45309" stroke-width="2.2"/><text x="296" y="322" font-size="10" font-weight="700" fill="#B45309">1</text>
<circle cx="322" cy="318" r="8" fill="none" stroke="#166534" stroke-width="2.2"/><text x="318" y="322" font-size="10" font-weight="700" fill="#166534">2</text>
<circle cx="344" cy="132" r="8" fill="none" stroke="#166534" stroke-width="2.2"/><text x="340" y="136" font-size="10" font-weight="700" fill="#166534">3</text>
<text x="230" y="345" font-size="10" fill="#B45309">nến 1</text>
<text x="270" y="345" font-size="10" fill="#166534">nến 2 = displacement (phá range nến trước)</text>
<text x="330" y="148" font-size="10" fill="#166534">nến 3 → để lại gap</text>
<text x="300" y="418" font-size="10.5" font-weight="700" fill="#374151">Nhận diện trên M1 · vào lệnh trên M5/M15 · 09:31 = nến sớm nhất imbalance có thể in ra</text>
</svg>
