<svg viewBox="0 0 760 470" xmlns="http://www.w3.org/2000/svg" font-family="'Segoe UI', Arial, sans-serif">
  <defs>
    <marker id="mr" markerWidth="8" markerHeight="8" refX="6" refY="4" orient="auto"><path d="M0,0 L8,4 L0,8 Z" fill="#DC2626"/></marker>
  </defs>
  <rect x="0" y="0" width="760" height="470" rx="10" fill="#FBFBFD" stroke="#D8DBE2" stroke-width="1.5"/>
  <text x="24" y="34" font-size="18" font-weight="700" fill="#1F2937">Fair Value Gap — Nhận diện trên chart</text>
  <text x="24" y="54" font-size="13" fill="#6B7280">FVG hợp lệ (sweep → displacement → MSS) vs gap yếu giữa range</text>

  <!-- Panel trái: FVG hợp lệ -->
  <rect x="24" y="68" width="350" height="350" rx="8" fill="#FFFFFF" stroke="#E5E7EB"/>
  <text x="40" y="92" font-size="14" font-weight="700" fill="#16A34A">FVG hợp lệ</text>
  <line x1="52" y1="168" x2="250" y2="168" stroke="#6B7280" stroke-dasharray="5 3"/>
  <text x="254" y="172" font-size="11" fill="#1D4ED8">MSS / BOS</text>
  <line x1="48" y1="310" x2="210" y2="310" stroke="#D97706" stroke-dasharray="5 3"/>
  <text x="48" y="304" font-size="11" fill="#D97706">SSL</text>
  <rect x="128" y="200" width="190" height="62" fill="#3B82F6" opacity="0.10"/>
  <rect x="128" y="200" width="190" height="62" fill="none" stroke="#3B82F6" stroke-dasharray="4 3"/>
  <line x1="128" y1="231" x2="318" y2="231" stroke="#1D4ED8" stroke-dasharray="5 3" stroke-width="1.5"/>
  <text x="250" y="222" font-size="11" font-weight="700" fill="#1D4ED8">FVG (BISI)</text>
  <text x="322" y="235" font-size="11" fill="#1D4ED8">CE 50%</text>
  <line x1="64" y1="170" x2="64" y2="230" stroke="#DC2626" stroke-width="1.5"/>
  <rect x="59" y="178" width="10" height="44" fill="#DC2626"/>
  <line x1="88" y1="210" x2="88" y2="270" stroke="#DC2626" stroke-width="1.5"/>
  <rect x="83" y="218" width="10" height="44" fill="#DC2626"/>
  <line x1="112" y1="250" x2="112" y2="308" stroke="#DC2626" stroke-width="1.5"/>
  <rect x="107" y="258" width="10" height="42" fill="#DC2626"/>
  <line x1="136" y1="262" x2="136" y2="338" stroke="#DC2626" stroke-width="1.5"/>
  <rect x="131" y="270" width="10" height="30" fill="#DC2626"/>
  <line x1="160" y1="138" x2="160" y2="330" stroke="#16A34A" stroke-width="1.5"/>
  <rect x="155" y="148" width="10" height="170" fill="#16A34A"/>
  <line x1="184" y1="118" x2="184" y2="200" stroke="#16A34A" stroke-width="1.5"/>
  <rect x="179" y="126" width="10" height="62" fill="#16A34A"/>
  <line x1="208" y1="100" x2="208" y2="150" stroke="#16A34A" stroke-width="1.5"/>
  <rect x="203" y="108" width="10" height="34" fill="#16A34A"/>
  <text x="172" y="330" font-size="11" fill="#16A34A">Displacement</text>
  <text x="136" y="354" text-anchor="middle" font-size="11" fill="#D97706">Sweep</text>
  <text x="40" y="382" font-size="11" fill="#6B7280">Thứ tự: Sweep SSL → Displacement phá swing high → FVG</text>
  <text x="40" y="400" font-size="11" fill="#6B7280">Gap thật + nến giữa body lớn + phá cấu trúc có chủ đích</text>

  <!-- Panel phải: gap yếu -->
  <rect x="386" y="68" width="350" height="350" rx="8" fill="#FFFFFF" stroke="#E5E7EB"/>
  <text x="402" y="92" font-size="14" font-weight="700" fill="#DC2626">Gap yếu / nhiễu</text>
  <text x="402" y="120" font-size="11" fill="#DC2626">• Nến giữa body nhỏ — không displacement</text>
  <text x="402" y="138" font-size="11" fill="#DC2626">• Không BOS/MSS, dao động giữa range</text>
  <text x="402" y="156" font-size="11" fill="#DC2626">• Gap quá nhỏ, ngay quanh equilibrium</text>
  <line x1="402" y1="240" x2="640" y2="240" stroke="#6B7280" stroke-dasharray="5 3"/>
  <text x="644" y="244" font-size="11" fill="#6B7280">Equilibrium</text>
  <rect x="500" y="216" width="140" height="5" fill="#DC2626" opacity="0.15"/>
  <rect x="500" y="216" width="140" height="5" fill="none" stroke="#DC2626" stroke-dasharray="3 2"/>
  <text x="646" y="222" font-size="11" fill="#DC2626">Gap nhỏ</text>
  <line x1="430" y1="192" x2="430" y2="236" stroke="#16A34A" stroke-width="1.5"/>
  <rect x="425" y="200" width="10" height="28" fill="#16A34A"/>
  <line x1="456" y1="188" x2="456" y2="232" stroke="#DC2626" stroke-width="1.5"/>
  <rect x="451" y="195" width="10" height="30" fill="#DC2626"/>
  <line x1="482" y1="228" x2="482" y2="266" stroke="#16A34A" stroke-width="1.5"/>
  <rect x="477" y="236" width="10" height="22" fill="#16A34A"/>
  <line x1="508" y1="220" x2="508" y2="256" stroke="#16A34A" stroke-width="1.5"/>
  <rect x="503" y="226" width="10" height="24" fill="#16A34A"/>
  <line x1="534" y1="190" x2="534" y2="254" stroke="#16A34A" stroke-width="1.5"/>
  <rect x="529" y="196" width="10" height="52" fill="#16A34A"/>
  <line x1="560" y1="180" x2="560" y2="216" stroke="#16A34A" stroke-width="1.5"/>
  <rect x="555" y="186" width="10" height="26" fill="#16A34A"/>
  <line x1="586" y1="194" x2="586" y2="240" stroke="#DC2626" stroke-width="1.5"/>
  <rect x="581" y="200" width="10" height="32" fill="#DC2626"/>
  <line x1="612" y1="218" x2="612" y2="262" stroke="#DC2626" stroke-width="1.5"/>
  <rect x="607" y="228" width="10" height="34" fill="#DC2626"/>
  <text x="402" y="382" font-size="11" fill="#6B7280">Gap giữa range không có intent → nhiễu, không trade</text>
  <text x="402" y="400" font-size="11" fill="#6B7280">Giá lấp lại gap dễ dàng vì không có displacement bảo vệ</text>

  <text x="380" y="448" text-anchor="middle" font-size="12" fill="#374151">FVG chất lượng = displacement có chủ đích sau liquidity sweep, phá cấu trúc (BOS/MSS)</text>
</svg>
