<svg viewBox="0 0 760 440" xmlns="http://www.w3.org/2000/svg" font-family="'Segoe UI', Arial, sans-serif"><rect x="0" y="0" width="760" height="440" rx="10" fill="#FBFBFD" stroke="#D8DBE2" stroke-width="1.5"/><text x="24" y="34" font-size="17" font-weight="700" fill="#1F2937">Ví dụ ĐÚNG: SMT → Sweep → CISD/MSS → FVG entry</text><text x="24" y="54" font-size="12.5" fill="#6B7280">Discount zone. NQ quét SSL + bullish SMT (ES giữ đáy) → CISD → entry FVG → target BSL.</text><rect x="24" y="72" width="712" height="300" rx="8" fill="#FFFFFF" stroke="#E5E7EB"/><text x="36" y="92" font-size="11.5" fill="#6B7280">NQ (M5) — instrument giao dịch</text><line x1="60" y1="110" x2="700" y2="110" stroke="#B91C1C" stroke-width="1.2" stroke-dasharray="5 4"/><text x="610" y="105" font-size="10" font-weight="700" fill="#B91C1C">Target BSL (T2)</text><line x1="60" y1="180" x2="700" y2="180" stroke="#0284C7" stroke-width="1.6" stroke-dasharray="7 4"/><text x="600" y="174" font-size="10" font-weight="700" fill="#0284C7">CISD level (IRL / T1)</text><line x1="60" y1="300" x2="700" y2="300" stroke="#6B7280" stroke-width="1" stroke-dasharray="4 3"/><text x="66" y="295" font-size="10" fill="#6B7280">SSL (equal lows)</text><line x1="85.0" y1="140" x2="85.0" y2="200" stroke="#DC2626" stroke-width="1.3"/><rect x="80" y="150" width="10" height="40" fill="#DC2626"/><line x1="105.0" y1="175" x2="105.0" y2="240" stroke="#DC2626" stroke-width="1.3"/><rect x="100" y="185" width="10" height="45" fill="#DC2626"/><line x1="125.0" y1="215" x2="125.0" y2="300" stroke="#DC2626" stroke-width="1.3"/><rect x="120" y="225" width="10" height="60" fill="#DC2626"/><line x1="145.0" y1="150" x2="145.0" y2="332" stroke="#16A34A" stroke-width="1.3"/><rect x="140" y="255" width="10" height="45" fill="#16A34A"/><circle cx="145" cy="330" r="8" fill="none" stroke="#B45309" stroke-width="2.5"/><text x="80" y="360" font-size="9.5" font-weight="700" fill="#B45309">① sweep SSL + Bullish SMT (ES giữ đáy)</text><line x1="167.0" y1="160" x2="167.0" y2="305" stroke="#16A34A" stroke-width="1.3"/><rect x="162" y="170" width="10" height="130" fill="#16A34A"/><circle cx="167" cy="178" r="6" fill="#0284C7"/><text x="176" y="168" font-size="9.5" font-weight="700" fill="#0284C7">② CISD/MSS close</text><rect x="156" y="215" width="34" height="30" fill="#DCFCE7" stroke="#16A34A" stroke-dasharray="3 3"/><line x1="201.0" y1="195" x2="201.0" y2="255" stroke="#DC2626" stroke-width="1.3"/><rect x="196" y="205" width="10" height="40" fill="#DC2626"/><circle cx="201" cy="232" r="8" fill="none" stroke="#166534" stroke-width="2.5"/><text x="210" y="228" font-size="9.5" font-weight="700" fill="#166534">③ entry FVG (50% CE)</text><line x1="229.0" y1="150" x2="229.0" y2="225" stroke="#16A34A" stroke-width="1.3"/><rect x="224" y="160" width="10" height="55" fill="#16A34A"/><line x1="253.0" y1="120" x2="253.0" y2="190" stroke="#16A34A" stroke-width="1.3"/><rect x="248" y="130" width="10" height="50" fill="#16A34A"/><line x1="277.0" y1="100" x2="277.0" y2="165" stroke="#16A34A" stroke-width="1.3"/><rect x="272" y="110" width="10" height="45" fill="#16A34A"/><line x1="305.0" y1="98" x2="305.0" y2="145" stroke="#16A34A" stroke-width="1.3"/><rect x="300" y="105" width="10" height="30" fill="#16A34A"/><text x="320" y="130" font-size="10" font-weight="700" fill="#166534">④ target BSL</text><line x1="196" y1="336" x2="700" y2="336" stroke="#B91C1C" stroke-width="1" stroke-dasharray="3 3"/><text x="600" y="332" font-size="9.5" font-weight="700" fill="#B91C1C">SL dưới wick sweep</text><rect x="24" y="384" width="712" height="44" rx="8" fill="#F9FAFB" stroke="#E5E7EB"/><text x="36" y="411" font-size="11" fill="#1F2937"><tspan font-weight="700" fill="#166534">Vì sao tốt:</tspan> đúng cặp NQ↔ES · SMT tại pool (SSL) · đủ chuỗi SMT(xác nhận)+sweep(lý do)+CISD(trigger)+FVG(entry).</text>
</svg>
