<svg viewBox="0 0 760 430" xmlns="http://www.w3.org/2000/svg" font-family="'Segoe UI', Arial, sans-serif">
<rect x="0" y="0" width="760" height="430" rx="10" fill="#FBFBFD" stroke="#D8DBE2" stroke-width="1.5"/>
<text x="24" y="34" font-size="18" font-weight="700" fill="#1F2937">Chuỗi entry macro: 09:50 (MSS+FVG) → 10:10 (vào tại 50% CE) → T1/T2</text>
<text x="24" y="54" font-size="13" fill="#6B7280">Ví dụ bearish trên NQ. Không vào lệnh trên nến macro — chờ hồi về FVG rồi đặt limit.</text>
<rect x="24" y="70" width="712" height="345" rx="8" fill="#FFFFFF" stroke="#E5E7EB"/><line x1="150" y1="80" x2="150" y2="400" stroke="#E2E8F0" stroke-dasharray="4 4"/><text x="150" y="410" font-size="10" fill="#94A3B8" text-anchor="middle">09:30 OPEN</text><line x1="300" y1="80" x2="300" y2="400" stroke="#E2E8F0" stroke-dasharray="4 4"/><text x="300" y="410" font-size="10" fill="#94A3B8" text-anchor="middle">09:50 macro</text><line x1="470" y1="80" x2="470" y2="400" stroke="#E2E8F0" stroke-dasharray="4 4"/><text x="470" y="410" font-size="10" fill="#94A3B8" text-anchor="middle">10:10 macro</text><line x1="640" y1="80" x2="640" y2="400" stroke="#E2E8F0" stroke-dasharray="4 4"/><text x="640" y="410" font-size="10" fill="#94A3B8" text-anchor="middle">11:00</text><line x1="60" y1="130" x2="330" y2="130" stroke="#6B7280" stroke-dasharray="6 4"/><text x="60" y="124" font-size="10.5" fill="#4B5563">Đỉnh pre-market = BSL (mục tiêu Judas)</text><rect x="96" y="200" width="2" height="40" fill="#16A34A"/><rect x="90" y="210" width="13" height="25" fill="#16A34A" rx="1"/><rect x="116" y="185" width="2" height="43" fill="#16A34A"/><rect x="110" y="195" width="13" height="28" fill="#16A34A" rx="1"/><rect x="136" y="170" width="2" height="46" fill="#16A34A"/><rect x="130" y="180" width="13" height="31" fill="#16A34A" rx="1"/><rect x="156" y="155" width="2" height="49" fill="#16A34A"/><rect x="150" y="165" width="13" height="34" fill="#16A34A" rx="1"/><rect x="176" y="108" width="2" height="67" fill="#16A34A"/><rect x="170" y="118" width="13" height="32" fill="#16A34A" rx="1"/><text x="150" y="102" font-size="10.5" font-weight="700" fill="#DC2626">Judas quét BSL (09:30)</text><rect x="196" y="150" width="2" height="100" fill="#DC2626"/><rect x="190" y="160" width="13" height="85" fill="#DC2626" rx="1"/><rect x="216" y="158" width="2" height="110" fill="#DC2626"/><rect x="210" y="168" width="13" height="95" fill="#DC2626" rx="1"/><rect x="236" y="166" width="2" height="120" fill="#DC2626"/><rect x="230" y="176" width="13" height="105" fill="#DC2626" rx="1"/><text x="300" y="150" font-size="10.5" font-weight="700" fill="#15803D">09:50 MSS ↓</text><rect x="300" y="170" width="150" height="34" fill="#3B82F6" opacity="0.16"/><line x1="300" y1="187" x2="450" y2="187" stroke="#1D4ED8" stroke-dasharray="3 3"/><text x="452" y="182" font-size="10.5" fill="#1D4ED8">FVG</text><text x="452" y="196" font-size="10" fill="#1D4ED8">50% CE = limit sell</text><rect x="256" y="200" width="2" height="60" fill="#16A34A"/><rect x="250" y="210" width="13" height="45" fill="#16A34A" rx="1"/><rect x="276" y="194" width="2" height="60" fill="#16A34A"/><rect x="270" y="204" width="13" height="45" fill="#16A34A" rx="1"/><rect x="296" y="188" width="2" height="60" fill="#16A34A"/><rect x="290" y="198" width="13" height="45" fill="#16A34A" rx="1"/><circle cx="470" cy="187" r="5" fill="#DC2626"/><text x="478" y="176" font-size="10.5" font-weight="700" fill="#DC2626">VÀO LỆNH 10:10</text><rect x="316" y="190" width="2" height="60" fill="#DC2626"/><rect x="310" y="200" width="13" height="45" fill="#DC2626" rx="1"/><rect x="336" y="210" width="2" height="64" fill="#DC2626"/><rect x="330" y="220" width="13" height="49" fill="#DC2626" rx="1"/><rect x="356" y="230" width="2" height="68" fill="#DC2626"/><rect x="350" y="240" width="13" height="53" fill="#DC2626" rx="1"/><rect x="376" y="250" width="2" height="72" fill="#DC2626"/><rect x="370" y="260" width="13" height="57" fill="#DC2626" rx="1"/><rect x="396" y="270" width="2" height="76" fill="#DC2626"/><rect x="390" y="280" width="13" height="61" fill="#DC2626" rx="1"/><line x1="560" y1="330" x2="720" y2="330" stroke="#0EA5E9" stroke-dasharray="6 4"/><text x="600" y="324" font-size="10.5" fill="#0369A1">T1 = IRL (equal lows) ~11:00</text><line x1="560" y1="380" x2="720" y2="380" stroke="#7C3AED" stroke-dasharray="6 4"/><text x="600" y="374" font-size="10.5" fill="#6D28D9">T2 = ERL (PDL)</text><line x1="270" y1="108" x2="270" y2="96" stroke="#DC2626"/><text x="200" y="92" font-size="10" fill="#DC2626">Stop trên wick Judas</text>
</svg>
