<svg viewBox="0 0 760 380" xmlns="http://www.w3.org/2000/svg" font-family="'Segoe UI', Arial, sans-serif">
<rect x="0" y="0" width="760" height="380" rx="10" fill="#FBFBFD" stroke="#D8DBE2" stroke-width="1.5"/>
<text x="24" y="34" font-size="18" font-weight="700" fill="#1F2937">Ví dụ ĐÚNG — macro thuận bias, vào tại retrace</text>
<text x="24" y="54" font-size="13" fill="#6B7280">Bias bearish (HTF premium). Macro 10:10 khai hỏa đúng hướng phân phối, entry tại 50% CE của FVG.</text>
<rect x="24" y="70" width="712" height="300" rx="8" fill="#FFFFFF" stroke="#86EFAC"/><text x="40" y="94" font-size="11.5" font-weight="700" fill="#15803D">✔ Bias HTF rõ ràng (premium)  ✔ Quét BSL  ✔ MSS 09:50  ✔ FVG hợp lệ  ✔ Limit tại 50% CE  ✔ Trong macro window</text><line x1="60" y1="140" x2="340" y2="140" stroke="#6B7280" stroke-dasharray="6 4"/><text x="60" y="134" font-size="10" fill="#4B5563">BSL</text><rect x="96" y="180" width="2" height="40" fill="#16A34A"/><rect x="90" y="190" width="13" height="25" fill="#16A34A" rx="1"/><rect x="118" y="170" width="2" height="42" fill="#16A34A"/><rect x="112" y="180" width="13" height="27" fill="#16A34A" rx="1"/><rect x="140" y="160" width="2" height="44" fill="#16A34A"/><rect x="134" y="170" width="13" height="29" fill="#16A34A" rx="1"/><rect x="162" y="118" width="2" height="67" fill="#16A34A"/><rect x="156" y="128" width="13" height="32" fill="#16A34A" rx="1"/><text x="150" y="112" font-size="10" fill="#DC2626">quét BSL</text><rect x="184" y="150" width="2" height="90" fill="#DC2626"/><rect x="178" y="160" width="13" height="75" fill="#DC2626" rx="1"/><rect x="206" y="160" width="2" height="96" fill="#DC2626"/><rect x="200" y="170" width="13" height="81" fill="#DC2626" rx="1"/><rect x="228" y="170" width="2" height="102" fill="#DC2626"/><rect x="222" y="180" width="13" height="87" fill="#DC2626" rx="1"/><rect x="300" y="175" width="120" height="30" fill="#3B82F6" opacity="0.16"/><text x="424" y="194" font-size="10" fill="#1D4ED8">FVG 50% CE</text><rect x="250" y="205" width="2" height="50" fill="#16A34A"/><rect x="244" y="215" width="13" height="35" fill="#16A34A" rx="1"/><rect x="272" y="201" width="2" height="50" fill="#16A34A"/><rect x="266" y="211" width="13" height="35" fill="#16A34A" rx="1"/><circle cx="440" cy="190" r="5" fill="#DC2626"/><text x="448" y="182" font-size="10" font-weight="700" fill="#DC2626">ENTRY</text><rect x="294" y="200" width="2" height="55" fill="#DC2626"/><rect x="288" y="210" width="13" height="40" fill="#DC2626" rx="1"/><rect x="316" y="218" width="2" height="57" fill="#DC2626"/><rect x="310" y="228" width="13" height="42" fill="#DC2626" rx="1"/><rect x="338" y="236" width="2" height="59" fill="#DC2626"/><rect x="332" y="246" width="13" height="44" fill="#DC2626" rx="1"/><rect x="360" y="254" width="2" height="61" fill="#DC2626"/><rect x="354" y="264" width="13" height="46" fill="#DC2626" rx="1"/><rect x="382" y="272" width="2" height="63" fill="#DC2626"/><rect x="376" y="282" width="13" height="48" fill="#DC2626" rx="1"/><line x1="560" y1="330" x2="720" y2="330" stroke="#0EA5E9" stroke-dasharray="6 4"/><text x="600" y="324" font-size="10" fill="#0369A1">T1 IRL ✔</text>
</svg>
