<svg viewBox="0 0 760 380" xmlns="http://www.w3.org/2000/svg" font-family="'Segoe UI', Arial, sans-serif">
<rect x="0" y="0" width="760" height="380" rx="10" fill="#FBFBFD" stroke="#D8DBE2" stroke-width="1.5"/>
<text x="24" y="34" font-size="18" font-weight="700" fill="#1F2937">Ví dụ SAI — trade ngược bias &amp; vào ngay trên nến macro</text>
<text x="24" y="54" font-size="13" fill="#6B7280">Ba lỗi kinh điển khiến macro trở thành cái bẫy.</text>
<rect x="24" y="70" width="712" height="300" rx="8" fill="#FFFFFF" stroke="#FCA5A5"/><text x="40" y="94" font-size="11.5" font-weight="700" fill="#B91C1C">✘ Trade ngược daily bias   ✘ Market order ngay nến macro (không chờ hồi)   ✘ Ép lệnh khi không có macro</text><text x="60" y="128" font-size="11" font-weight="700" fill="#374151">A. Macro bullish trên ngày bias bearish → failed macro</text><rect x="76" y="150" width="2" height="50" fill="#16A34A"/><rect x="70" y="160" width="13" height="35" fill="#16A34A" rx="1"/><rect x="96" y="142" width="2" height="52" fill="#16A34A"/><rect x="90" y="152" width="13" height="37" fill="#16A34A" rx="1"/><rect x="116" y="134" width="2" height="54" fill="#16A34A"/><rect x="110" y="144" width="13" height="39" fill="#16A34A" rx="1"/><rect x="136" y="126" width="2" height="56" fill="#16A34A"/><rect x="130" y="136" width="13" height="41" fill="#16A34A" rx="1"/><text x="70" y="230" font-size="10" fill="#B91C1C">Long ở đây = đánh nhầm micro-Judas / ngược dòng tuần</text><text x="420" y="128" font-size="11" font-weight="700" fill="#374151">B. Đuổi theo nến macro</text><rect x="436" y="140" width="2" height="120" fill="#DC2626"/><rect x="430" y="150" width="13" height="105" fill="#DC2626" rx="1"/><circle cx="441" cy="150" r="5" fill="#DC2626"/><text x="450" y="146" font-size="10" fill="#B91C1C">vào ngay đỉnh nến → SL rộng, RR xấu</text><rect x="470" y="180" width="90" height="26" fill="#3B82F6" opacity="0.14"/><text x="470" y="222" font-size="10" fill="#1D4ED8">Đáng lẽ chờ hồi về FVG 50% CE mới vào</text>
</svg>
