<svg viewBox="0 0 760 460" xmlns="http://www.w3.org/2000/svg" font-family="'Segoe UI', Arial, sans-serif">
  <rect x="0" y="0" width="760" height="460" rx="10" fill="#FBFBFD" stroke="#D8DBE2" stroke-width="1.5"/>
  <text x="24" y="34" font-size="17" font-weight="700" fill="#1F2937">Ví dụ ĐÚNG — Bullish RDRB thuận bias + LTF MSS</text>
  <text x="24" y="54" font-size="12.5" fill="#6B7280">Bias ↑ · range đo đúng giữa wick nến trước/sau · retest + MSS · stop dưới đáy range · TP = old high.</text>

  <rect x="24" y="72" width="712" height="316" rx="8" fill="#FFFFFF" stroke="#E5E7EB"/>
  <text x="40" y="94" font-size="12" font-weight="700" fill="#166534">HTF bias: bullish (Daily/H4) — chỉ tìm LONG</text>

  <!-- TP / old high line -->
  <line x1="40" y1="118" x2="720" y2="118" stroke="#B45309" stroke-width="1.4" stroke-dasharray="6 4"/>
  <text x="520" y="113" font-size="10" font-weight="700" fill="#B45309">TP = old high / BSL (draw on liquidity)</text>

  <!-- range zone 225-260 -->
  <rect x="60" y="225" width="470" height="35" fill="#DBEAFE" stroke="#1D4ED8" stroke-width="1.2"/>
  <text x="440" y="248" font-size="10" font-weight="700" fill="#1D4ED8">RDRB range</text>

  <!-- before -->
  <line x1="90" y1="260" x2="90" y2="335" stroke="#16A34A" stroke-width="1.5"/><rect x="78" y="275" width="24" height="50" fill="#16A34A"/>
  <circle cx="90" cy="260" r="5" fill="none" stroke="#1D4ED8" stroke-width="2.2"/>
  <!-- A deliver up pull back -->
  <line x1="140" y1="195" x2="140" y2="285" stroke="#16A34A" stroke-width="1.5"/><rect x="128" y="245" width="24" height="30" fill="#16A34A"/>
  <!-- B redeliver up -->
  <line x1="190" y1="175" x2="190" y2="250" stroke="#16A34A" stroke-width="1.5"/><rect x="178" y="185" width="24" height="60" fill="#16A34A"/>
  <!-- after -->
  <line x1="240" y1="150" x2="240" y2="225" stroke="#16A34A" stroke-width="1.5"/><rect x="228" y="160" width="24" height="25" fill="#16A34A"/>
  <circle cx="240" cy="225" r="5" fill="none" stroke="#1D4ED8" stroke-width="2.2"/>
  <text x="120" y="352" font-size="9.5" font-weight="700" fill="#166534">cặp RDRB (deliver → redeliver)</text>

  <!-- retrace into zone -->
  <line x1="290" y1="155" x2="290" y2="215" stroke="#DC2626" stroke-width="1.5"/><rect x="278" y="165" width="24" height="45" fill="#DC2626"/>
  <line x1="340" y1="185" x2="340" y2="258" stroke="#DC2626" stroke-width="1.5"/><rect x="328" y="210" width="24" height="42" fill="#DC2626"/>
  <text x="300" y="352" font-size="9.5" fill="#DC2626">retest range</text>

  <!-- entry + MSS badge -->
  <circle cx="365" cy="250" r="6" fill="#16A34A"/>
  <text x="374" y="243" font-size="10" font-weight="700" fill="#16A34A">entry LONG</text>
  <rect x="360" y="292" width="120" height="22" rx="4" fill="#DCFCE7" stroke="#166534"/>
  <text x="368" y="307" font-size="10" font-weight="700" fill="#166534">✓ LTF MSS trong range</text>

  <!-- rally to TP -->
  <line x1="410" y1="160" x2="410" y2="248" stroke="#16A34A" stroke-width="1.5"/><rect x="398" y="160" width="24" height="85" fill="#16A34A"/>
  <line x1="460" y1="130" x2="460" y2="175" stroke="#16A34A" stroke-width="1.5"/><rect x="448" y="138" width="24" height="40" fill="#16A34A"/>
  <line x1="510" y1="118" x2="510" y2="150" stroke="#16A34A" stroke-width="1.5"/><rect x="498" y="122" width="24" height="30" fill="#16A34A"/>
  <path d="M522 128 l 14 -8 l -3 11 z" fill="#16A34A"/>

  <!-- stop -->
  <line x1="60" y1="278" x2="540" y2="278" stroke="#DC2626" stroke-width="1.4" stroke-dasharray="5 3"/>
  <text x="60" y="293" font-size="10" font-weight="700" fill="#DC2626">stop &lt; đáy range + buffer (dưới wick nến trước)</text>

  <text x="24" y="414" font-size="11.5" fill="#374151">Chuỗi confluence: bias ↑ + RDRB thuận chiều + retest + LTF MSS + stop kỷ luật + TP tại pool thanh khoản.</text>
  <text x="24" y="438" font-size="11.5" font-weight="700" fill="#166534">✓ R:R lành mạnh, stop nằm ngoài cạnh đối diện của range nên không bị hunt bởi wick.</text>
</svg>
