<svg viewBox="0 0 760 440" xmlns="http://www.w3.org/2000/svg" font-family="'Segoe UI', Arial, sans-serif">
  <rect x="0" y="0" width="760" height="440" rx="10" fill="#FBFBFD" stroke="#D8DBE2" stroke-width="1.5"/>
  <text x="24" y="34" font-size="17" font-weight="700" fill="#1F2937">Reaper IFVG đa khung — HTF đánh dấu, LTF xác nhận</text>
  <text x="24" y="54" font-size="12.5" fill="#6B7280">H1/M15: bias + dealing range + Breaker + Reaper IFVG. Xuống M5/M3 chờ MSS / displacement / sweep tại IFVG.</text>

  <!-- LEFT HTF -->
  <rect x="24" y="72" width="350" height="316" rx="8" fill="#FFFFFF" stroke="#E5E7EB" stroke-width="1.4"/>
  <rect x="24" y="72" width="350" height="26" rx="8" fill="#1D4ED8"/>
  <text x="199" y="90" font-size="12" font-weight="700" fill="#FFFFFF" text-anchor="middle">H1 / M15 — BIAS &amp; MAP</text>

  <line x1="40" y1="230" x2="358" y2="230" stroke="#9CA3AF" stroke-width="1" stroke-dasharray="4 3"/>
  <text x="286" y="225" font-size="9" fill="#9CA3AF">Equilibrium</text>
  <text x="40" y="130" font-size="9.5" font-weight="700" fill="#B45309">PREMIUM</text>
  <text x="40" y="350" font-size="9.5" font-weight="700" fill="#166534">DISCOUNT</text>
  <line x1="60" y1="118" x2="358" y2="118" stroke="#16A34A" stroke-width="1.2" stroke-dasharray="6 4"/>
  <text x="250" y="113" font-size="9" fill="#166534">ERL / prev highs (draw)</text>

  <rect x="120" y="180" width="230" height="18" fill="#FDE68A" opacity="0.55" stroke="#D97706" stroke-width="1" stroke-dasharray="4 3"/>
  <text x="124" y="175" font-size="9.5" font-weight="700" fill="#B45309">Breaker (HTF)</text>
  <rect x="150" y="270" width="200" height="26" fill="#DBEAFE" stroke="#2563EB" stroke-width="1.2"/>
  <text x="154" y="312" font-size="9.5" font-weight="700" fill="#1D4ED8">Reaper IFVG (HTF, discount)</text>

  <line x1="80" y1="150" x2="80" y2="210" stroke="#DC2626" stroke-width="1.4"/><rect x="74.5" y="160" width="11" height="40" fill="#DC2626"/>
  <line x1="104" y1="188" x2="104" y2="256" stroke="#DC2626" stroke-width="1.4"/><rect x="98.5" y="198" width="11" height="50" fill="#DC2626"/>
  <line x1="128" y1="240" x2="128" y2="304" stroke="#DC2626" stroke-width="1.4"/><rect x="122.5" y="250" width="11" height="46" fill="#DC2626"/>
  <line x1="152" y1="266" x2="152" y2="300" stroke="#16A34A" stroke-width="1.4"/><rect x="146.5" y="276" width="11" height="20" fill="#16A34A"/>
  <line x1="176" y1="210" x2="176" y2="288" stroke="#16A34A" stroke-width="1.4"/><rect x="170.5" y="222" width="11" height="58" fill="#16A34A"/>
  <line x1="200" y1="160" x2="200" y2="230" stroke="#16A34A" stroke-width="1.4"/><rect x="194.5" y="172" width="11" height="50" fill="#16A34A"/>
  <text x="215" y="150" font-size="14" font-weight="700" fill="#166534">↑ bias bull</text>

  <!-- zoom arrow -->
  <path d="M356 284 L400 284" stroke="#374151" stroke-width="2" marker-end="url(#arr)"/>
  <defs><marker id="arr" markerWidth="8" markerHeight="8" refX="6" refY="3" orient="auto"><path d="M0,0 L6,3 L0,6 Z" fill="#374151"/></marker></defs>
  <text x="360" y="278" font-size="9" fill="#374151">zoom</text>

  <!-- RIGHT LTF -->
  <rect x="410" y="72" width="326" height="316" rx="8" fill="#FFFFFF" stroke="#E5E7EB" stroke-width="1.4"/>
  <rect x="410" y="72" width="326" height="26" rx="8" fill="#16A34A"/>
  <text x="573" y="90" font-size="12" font-weight="700" fill="#FFFFFF" text-anchor="middle">M5 / M3 — CONFIRMATION</text>

  <!-- IFVG zone at LTF -->
  <rect x="426" y="250" width="294" height="34" fill="#DBEAFE" stroke="#2563EB" stroke-width="1.2"/>
  <text x="430" y="245" font-size="9.5" font-weight="700" fill="#1D4ED8">Reaper IFVG (phóng to)</text>
  <line x1="426" y1="200" x2="720" y2="200" stroke="#16A34A" stroke-width="1.1" stroke-dasharray="6 4"/>
  <text x="620" y="195" font-size="9" fill="#166534">mức MSS phải phá</text>

  <!-- price: sweep into IFVG, then MSS up -->
  <line x1="446" y1="150" x2="446" y2="210" stroke="#DC2626" stroke-width="1.4"/><rect x="440.5" y="160" width="11" height="42" fill="#DC2626"/>
  <line x1="468" y1="188" x2="468" y2="252" stroke="#DC2626" stroke-width="1.4"/><rect x="462.5" y="198" width="11" height="46" fill="#DC2626"/>
  <line x1="490" y1="230" x2="490" y2="304" stroke="#DC2626" stroke-width="1.4"/><rect x="484.5" y="240" width="11" height="52" fill="#DC2626"/>
  <circle cx="490" cy="304" r="8" fill="none" stroke="#B45309" stroke-width="2.4"/>
  <text x="470" y="326" font-size="9.5" font-weight="700" fill="#B45309">① sweep + rejection tại IFVG</text>
  <line x1="512" y1="240" x2="512" y2="300" stroke="#16A34A" stroke-width="1.4"/><rect x="506.5" y="252" width="11" height="40" fill="#16A34A"/>
  <line x1="534" y1="170" x2="534" y2="272" stroke="#16A34A" stroke-width="1.4"/><rect x="528.5" y="182" width="11" height="82" fill="#16A34A"/>
  <text x="546" y="188" font-size="9.5" font-weight="700" fill="#166534">② displacement → MSS</text>
  <line x1="556" y1="150" x2="556" y2="212" stroke="#16A34A" stroke-width="1.4"/><rect x="550.5" y="160" width="11" height="44" fill="#16A34A"/>
  <line x1="578" y1="176" x2="578" y2="228" stroke="#DC2626" stroke-width="1.4"/><rect x="572.5" y="186" width="11" height="34" fill="#DC2626"/>
  <line x1="600" y1="130" x2="600" y2="200" stroke="#16A34A" stroke-width="1.4"/><rect x="594.5" y="140" width="11" height="50" fill="#16A34A"/>
  <circle cx="578" cy="222" r="7" fill="none" stroke="#166534" stroke-width="2.2"/>
  <text x="560" y="356" font-size="9.5" font-weight="700" fill="#166534">③ retest → Entry Long</text>

  <rect x="24" y="398" width="712" height="30" rx="6" fill="#F3F4F6"/>
  <text x="36" y="417" font-size="11" font-weight="700" fill="#374151">Khung trên quyết định HƯỚNG &amp; vùng POI · khung dưới quyết định GIỜ vào (sweep + MSS + displacement tại IFVG).</text>
</svg>
