<svg viewBox="0 0 760 460" xmlns="http://www.w3.org/2000/svg" font-family="'Segoe UI', Arial, sans-serif">
  <rect x="0" y="0" width="760" height="460" rx="10" fill="#FBFBFD" stroke="#D8DBE2" stroke-width="1.5"/>
  <rect x="24" y="20" width="712" height="26" rx="8" fill="#16A34A"/>
  <text x="380" y="38" font-size="13" font-weight="700" fill="#FFFFFF" text-anchor="middle">VÍ DỤ ĐÚNG — chờ Reaper, không mua tại Breaker</text>
  <text x="24" y="66" font-size="12.5" fill="#6B7280">Bias bull · sweep xuyên Breaker vào discount · support tại Reaper IFVG · MSS lên · long về prev highs.</text>

  <rect x="24" y="80" width="712" height="300" rx="8" fill="#FFFFFF" stroke="#E5E7EB"/>

  <line x1="40" y1="238" x2="720" y2="238" stroke="#9CA3AF" stroke-width="1" stroke-dasharray="4 3"/>
  <text x="646" y="233" font-size="9.5" fill="#9CA3AF">Equilibrium</text>
  <text x="40" y="150" font-size="10" font-weight="700" fill="#B45309">PREMIUM</text>
  <text x="40" y="350" font-size="10" font-weight="700" fill="#166534">DISCOUNT</text>

  <line x1="300" y1="126" x2="716" y2="126" stroke="#16A34A" stroke-width="1.4" stroke-dasharray="6 4"/>
  <text x="600" y="120" font-size="9.5" fill="#166534">Prev highs / BSL (target)</text>

  <rect x="220" y="192" width="480" height="22" fill="#FDE68A" opacity="0.55" stroke="#D97706" stroke-width="1" stroke-dasharray="4 3"/>
  <text x="440" y="187" font-size="10" font-weight="700" fill="#B45309">Breaker (ALERT — KHÔNG mua ở đây)</text>
  <rect x="300" y="280" width="400" height="30" fill="#DBEAFE" stroke="#2563EB" stroke-width="1.2"/>
  <text x="440" y="300" font-size="10" font-weight="700" fill="#1D4ED8">Reaper IFVG (ENTRY)</text>
  <line x1="330" y1="326" x2="560" y2="326" stroke="#DC2626" stroke-width="1.2" stroke-dasharray="5 3"/>
  <text x="332" y="340" font-size="9.5" fill="#B91C1C">stop dưới Reaper IFVG</text>

  <!-- up leg -->
  <line x1="70" y1="180" x2="70" y2="230" stroke="#16A34A" stroke-width="1.4"/><rect x="64.5" y="190" width="11" height="32" fill="#16A34A"/>
  <line x1="92" y1="200" x2="92" y2="330" stroke="#DC2626" stroke-width="1.4"/><rect x="86.5" y="210" width="11" height="60" fill="#DC2626"/>
  <line x1="114" y1="240" x2="114" y2="320" stroke="#16A34A" stroke-width="1.4"/><rect x="108.5" y="252" width="11" height="58" fill="#16A34A"/>
  <line x1="136" y1="188" x2="136" y2="270" stroke="#16A34A" stroke-width="1.4"/><rect x="130.5" y="200" width="11" height="60" fill="#16A34A"/>
  <line x1="158" y1="160" x2="158" y2="212" stroke="#16A34A" stroke-width="1.4"/><rect x="152.5" y="170" width="11" height="34" fill="#16A34A"/>
  <!-- retrace down through breaker -->
  <line x1="180" y1="165" x2="180" y2="216" stroke="#DC2626" stroke-width="1.4"/><rect x="174.5" y="175" width="11" height="34" fill="#DC2626"/>
  <line x1="202" y1="188" x2="202" y2="244" stroke="#DC2626" stroke-width="1.4"/><rect x="196.5" y="198" width="11" height="40" fill="#DC2626"/>
  <line x1="224" y1="212" x2="224" y2="272" stroke="#DC2626" stroke-width="1.4"/><rect x="218.5" y="222" width="11" height="44" fill="#DC2626"/>
  <line x1="246" y1="238" x2="246" y2="300" stroke="#DC2626" stroke-width="1.4"/><rect x="240.5" y="248" width="11" height="46" fill="#DC2626"/>
  <line x1="268" y1="262" x2="268" y2="318" stroke="#DC2626" stroke-width="1.4"/><rect x="262.5" y="272" width="11" height="42" fill="#DC2626"/>
  <circle cx="268" cy="318" r="8" fill="none" stroke="#B45309" stroke-width="2.4"/>
  <text x="150" y="366" font-size="10" font-weight="700" fill="#B45309">① sweep xuyên Breaker vào discount</text>
  <!-- support + MSS up -->
  <line x1="290" y1="280" x2="290" y2="316" stroke="#16A34A" stroke-width="1.4"/><rect x="284.5" y="288" width="11" height="24" fill="#16A34A"/>
  <line x1="312" y1="210" x2="312" y2="298" stroke="#16A34A" stroke-width="1.6"/><rect x="306.5" y="222" width="11" height="66" fill="#16A34A"/>
  <circle cx="300" cy="296" r="8" fill="none" stroke="#166534" stroke-width="2.4"/>
  <text x="330" y="360" font-size="10" font-weight="700" fill="#166534">② support Reaper + MSS lên</text>
  <line x1="334" y1="170" x2="334" y2="240" stroke="#16A34A" stroke-width="1.4"/><rect x="328.5" y="180" width="11" height="48" fill="#16A34A"/>
  <line x1="356" y1="200" x2="356" y2="252" stroke="#DC2626" stroke-width="1.4"/><rect x="350.5" y="210" width="11" height="34" fill="#DC2626"/>
  <circle cx="356" cy="246" r="7" fill="none" stroke="#166534" stroke-width="2.2"/>
  <text x="370" y="248" font-size="9.5" font-weight="700" fill="#166534">③ retest = Entry Long</text>
  <line x1="378" y1="160" x2="378" y2="220" stroke="#16A34A" stroke-width="1.4"/><rect x="372.5" y="170" width="11" height="44" fill="#16A34A"/>
  <line x1="400" y1="140" x2="400" y2="196" stroke="#16A34A" stroke-width="1.4"/><rect x="394.5" y="150" width="11" height="38" fill="#16A34A"/>
  <line x1="422" y1="124" x2="422" y2="170" stroke="#16A34A" stroke-width="1.4"/><rect x="416.5" y="134" width="11" height="28" fill="#16A34A"/>
  <text x="435" y="140" font-size="10" font-weight="700" fill="#166534">④ → prev highs / BSL</text>

  <rect x="24" y="390" width="712" height="58" rx="6" fill="#DCFCE7"/>
  <text x="36" y="410" font-size="11" font-weight="700" fill="#166534">Vì sao tốt: có HTF bias bull · giá chạy XUYÊN Breaker vào discount (không mua sớm) ·</text>
  <text x="36" y="427" font-size="11" font-weight="700" fill="#166534">support + MSS tại Reaper IFVG (đủ confirmation) · stop dưới gap · target ERL (prev highs).</text>
  <text x="36" y="443" font-size="10.5" fill="#166534">Drawdown mà entry-tại-Breaker phải chịu đã bị né hoàn toàn.</text>
</svg>
