<svg viewBox="0 0 760 440" xmlns="http://www.w3.org/2000/svg" font-family="'Segoe UI', Arial, sans-serif"><rect x="0" y="0" width="760" height="440" rx="10" fill="#FBFBFD" stroke="#D8DBE2" stroke-width="1.5"/><text x="24" y="34" font-size="17" font-weight="700" fill="#1F2937">Giải phẫu Bullish SMT (tại ĐÁY)</text><text x="24" y="54" font-size="12.5" fill="#6B7280">Hai tài sản tương quan tại cùng cực trị: NQ quét SSL (lower low) — ES giữ đáy (higher low).</text><rect x="24" y="72" width="352" height="300" rx="8" fill="#FFFFFF" stroke="#E5E7EB"/><text x="40" y="94" font-size="12.5" font-weight="700" fill="#1F2937">NQ (leader của sweep)</text><line x1="40" y1="300" x2="360" y2="300" stroke="#6B7280" stroke-width="1" stroke-dasharray="4 3"/><text x="300" y="295" font-size="9.5" fill="#6B7280">SSL (equal lows)</text><line x1="65.5" y1="110" x2="65.5" y2="160" stroke="#DC2626" stroke-width="1.4"/><rect x="60" y="120" width="11" height="30" fill="#DC2626"/><line x1="85.5" y1="135" x2="85.5" y2="188" stroke="#DC2626" stroke-width="1.4"/><rect x="80" y="145" width="11" height="35" fill="#DC2626"/><line x1="105.5" y1="165" x2="105.5" y2="300" stroke="#DC2626" stroke-width="1.4"/><rect x="100" y="175" width="11" height="80" fill="#DC2626"/><line x1="129.5" y1="150" x2="129.5" y2="300" stroke="#16A34A" stroke-width="1.4"/><rect x="124" y="240" width="11" height="30" fill="#16A34A"/><line x1="151.5" y1="150" x2="151.5" y2="245" stroke="#16A34A" stroke-width="1.4"/><rect x="146" y="200" width="11" height="35" fill="#16A34A"/><line x1="175.5" y1="215" x2="175.5" y2="330" stroke="#DC2626" stroke-width="1.4"/><rect x="170" y="225" width="11" height="35" fill="#DC2626"/><circle cx="175.5" cy="330" r="8" fill="none" stroke="#B45309" stroke-width="2.5"/><text x="120" y="355" font-size="10" font-weight="700" fill="#B45309">① Lower Low → quét SSL</text><line x1="197.5" y1="170" x2="197.5" y2="235" stroke="#16A34A" stroke-width="1.4"/><rect x="192" y="180" width="11" height="45" fill="#16A34A"/><line x1="219.5" y1="130" x2="219.5" y2="192" stroke="#16A34A" stroke-width="1.4"/><rect x="214" y="140" width="11" height="45" fill="#16A34A"/><line x1="241.5" y1="100" x2="241.5" y2="158" stroke="#16A34A" stroke-width="1.4"/><rect x="236" y="110" width="11" height="40" fill="#16A34A"/><path d="M186 320 Q210 250 250 130" fill="none" stroke="#166534" stroke-width="1.5" stroke-dasharray="4 4"/><text x="255" y="120" font-size="10" font-weight="700" fill="#166534">↑ đảo chiều</text><rect x="392" y="72" width="344" height="300" rx="8" fill="#FFFFFF" stroke="#E5E7EB"/><text x="408" y="94" font-size="12.5" font-weight="700" fill="#1F2937">ES (từ chối theo = mạnh hơn)</text><line x1="408" y1="300" x2="720" y2="300" stroke="#6B7280" stroke-width="1" stroke-dasharray="4 3"/><text x="640" y="295" font-size="9.5" fill="#6B7280">đáy cũ (giữ vững)</text><line x1="433.5" y1="110" x2="433.5" y2="160" stroke="#DC2626" stroke-width="1.4"/><rect x="428" y="120" width="11" height="30" fill="#DC2626"/><line x1="453.5" y1="135" x2="453.5" y2="188" stroke="#DC2626" stroke-width="1.4"/><rect x="448" y="145" width="11" height="35" fill="#DC2626"/><line x1="473.5" y1="165" x2="473.5" y2="300" stroke="#DC2626" stroke-width="1.4"/><rect x="468" y="175" width="11" height="80" fill="#DC2626"/><line x1="497.5" y1="150" x2="497.5" y2="300" stroke="#16A34A" stroke-width="1.4"/><rect x="492" y="240" width="11" height="30" fill="#16A34A"/><line x1="519.5" y1="150" x2="519.5" y2="248" stroke="#16A34A" stroke-width="1.4"/><rect x="514" y="205" width="11" height="35" fill="#16A34A"/><line x1="543.5" y1="205" x2="543.5" y2="278" stroke="#DC2626" stroke-width="1.4"/><rect x="538" y="215" width="11" height="40" fill="#DC2626"/><circle cx="543.5" cy="278" r="8" fill="none" stroke="#166534" stroke-width="2.5"/><text x="500" y="355" font-size="10" font-weight="700" fill="#166534">② Higher Low → KHÔNG quét</text><line x1="565.5" y1="170" x2="565.5" y2="235" stroke="#16A34A" stroke-width="1.4"/><rect x="560" y="180" width="11" height="45" fill="#16A34A"/><line x1="587.5" y1="130" x2="587.5" y2="192" stroke="#16A34A" stroke-width="1.4"/><rect x="582" y="140" width="11" height="45" fill="#16A34A"/><line x1="609.5" y1="100" x2="609.5" y2="158" stroke="#16A34A" stroke-width="1.4"/><rect x="604" y="110" width="11" height="40" fill="#16A34A"/><line x1="175" y1="392" x2="543" y2="392" stroke="#1D4ED8" stroke-width="1.4" stroke-dasharray="6 4"/><text x="300" y="408" font-size="11" font-weight="700" fill="#1D4ED8">SMT = lệch pha tại cùng cực trị (LL vs HL) → cực trị TERMINAL, đảo chiều tăng</text>
</svg>
