<svg viewBox="0 0 760 420" xmlns="http://www.w3.org/2000/svg" font-family="'Segoe UI', Arial, sans-serif"><rect x="0" y="0" width="760" height="420" rx="10" fill="#FBFBFD" stroke="#D8DBE2" stroke-width="1.5"/><text x="24" y="34" font-size="17" font-weight="700" fill="#1F2937">SMT + Power of Three: bắt Judas swing</text><text x="24" y="54" font-size="12.5" fill="#6B7280">SMT thường in ra ĐÚNG tại đỉnh/đáy của cú Judas (Manipulation) trong AMD → xác nhận sắp Distribution.</text><rect x="24" y="72" width="712" height="250" rx="8" fill="#FFFFFF" stroke="#E5E7EB"/><rect x="60" y="90" width="150" height="215" fill="#EFF6FF" opacity="0.5"/><text x="90" y="108" font-size="11" font-weight="700" fill="#1D4ED8">Accumulation</text><rect x="210" y="90" width="150" height="215" fill="#FEF3C7" opacity="0.5"/><text x="235" y="108" font-size="11" font-weight="700" fill="#B45309">Manipulation (Judas)</text><rect x="360" y="90" width="340" height="215" fill="#DCFCE7" opacity="0.5"/><text x="470" y="108" font-size="11" font-weight="700" fill="#166534">Distribution</text><line x1="60" y1="180" x2="700" y2="180" stroke="#6B7280" stroke-width="1" stroke-dasharray="4 3"/><text x="62" y="175" font-size="9" fill="#6B7280">open</text><line x1="60" y1="270" x2="700" y2="270" stroke="#6B7280" stroke-width="1" stroke-dasharray="4 3"/><text x="62" y="285" font-size="9" fill="#6B7280">SSL (Judas quét xuống)</text><line x1="85.0" y1="160" x2="85.0" y2="200" stroke="#16A34A" stroke-width="1.3"/><rect x="80" y="170" width="10" height="20" fill="#16A34A"/><line x1="105.0" y1="165" x2="105.0" y2="205" stroke="#DC2626" stroke-width="1.3"/><rect x="100" y="175" width="10" height="20" fill="#DC2626"/><line x1="125.0" y1="158" x2="125.0" y2="198" stroke="#16A34A" stroke-width="1.3"/><rect x="120" y="168" width="10" height="20" fill="#16A34A"/><line x1="155.0" y1="162" x2="155.0" y2="202" stroke="#DC2626" stroke-width="1.3"/><rect x="150" y="172" width="10" height="20" fill="#DC2626"/><line x1="180.0" y1="160" x2="180.0" y2="200" stroke="#16A34A" stroke-width="1.3"/><rect x="175" y="170" width="10" height="20" fill="#16A34A"/><line x1="220.0" y1="175" x2="220.0" y2="235" stroke="#DC2626" stroke-width="1.3"/><rect x="215" y="185" width="10" height="40" fill="#DC2626"/><line x1="245.0" y1="205" x2="245.0" y2="272" stroke="#DC2626" stroke-width="1.3"/><rect x="240" y="215" width="10" height="40" fill="#DC2626"/><line x1="270.0" y1="215" x2="270.0" y2="300" stroke="#DC2626" stroke-width="1.3"/><rect x="265" y="225" width="10" height="37" fill="#DC2626"/><circle cx="270" cy="298" r="8" fill="none" stroke="#B91C1C" stroke-width="2.5"/><text x="215" y="320" font-size="9.5" font-weight="700" fill="#B91C1C">Judas quét SSL — SMT in ở đây (ES giữ đáy)</text><line x1="305.0" y1="170" x2="305.0" y2="250" stroke="#16A34A" stroke-width="1.3"/><rect x="300" y="180" width="10" height="60" fill="#16A34A"/><line x1="345.0" y1="130" x2="345.0" y2="210" stroke="#16A34A" stroke-width="1.3"/><rect x="340" y="140" width="10" height="60" fill="#16A34A"/><line x1="405.0" y1="110" x2="405.0" y2="180" stroke="#16A34A" stroke-width="1.3"/><rect x="400" y="120" width="10" height="50" fill="#16A34A"/><line x1="465.0" y1="90" x2="465.0" y2="160" stroke="#16A34A" stroke-width="1.3"/><rect x="460" y="100" width="10" height="50" fill="#16A34A"/><line x1="545.0" y1="80" x2="545.0" y2="145" stroke="#16A34A" stroke-width="1.3"/><rect x="540" y="90" width="10" height="45" fill="#16A34A"/><line x1="625.0" y1="78" x2="625.0" y2="130" stroke="#16A34A" stroke-width="1.3"/><rect x="620" y="85" width="10" height="35" fill="#16A34A"/><path d="M275 300 Q400 180 640 100" fill="none" stroke="#166534" stroke-width="1.4" stroke-dasharray="4 4"/><rect x="24" y="332" width="712" height="76" rx="8" fill="#F9FAFB" stroke="#E5E7EB"/><text x="36" y="356" font-size="11.5" font-weight="700" fill="#1F2937">Đọc combo:</text><text x="36" y="378" font-size="10.5" fill="#374151">Judas swing = cú Manipulation lấy thanh khoản trước khi đảo. Nếu tại đáy Judas xuất hiện Bullish SMT (A quét, B</text><text x="36" y="396" font-size="10.5" fill="#374151">không) → xác nhận Manipulation kết thúc, Distribution (chân thật) sắp bắt đầu. Vào theo hướng Distribution.</text>
</svg>
