<svg viewBox="0 0 760 430" xmlns="http://www.w3.org/2000/svg" font-family="'Segoe UI', Arial, sans-serif">
  <rect x="0" y="0" width="760" height="430" rx="10" fill="#FBFBFD" stroke="#D8DBE2" stroke-width="1.5"/>
  <text x="24" y="34" font-size="17" font-weight="700" fill="#1F2937">SMT + Sweep + CISD/MSS → entry xác suất cao</text>
  <text x="24" y="54" font-size="12.5" fill="#6B7280">SMT xác nhận cực trị là TERMINAL; sweep cho lý do; CISD/MSS cho trigger; FVG cho vùng entry.</text>

  <rect x="24" y="72" width="712" height="230" rx="8" fill="#FFFFFF" stroke="#E5E7EB"/>
  <text x="36" y="94" font-size="11.5" fill="#6B7280">Instrument giao dịch (vd NQ) — bullish reversal sau SMT ở đáy</text>

  <line x1="80" y1="120" x2="700" y2="120" stroke="#B91C1C" stroke-width="1.2" stroke-dasharray="5 4"/><text x="610" y="114" font-size="10" font-weight="700" fill="#B91C1C">Target BSL</text>
  <line x1="80" y1="170" x2="700" y2="170" stroke="#0EA5E9" stroke-width="1.6" stroke-dasharray="7 4"/><text x="610" y="164" font-size="10" font-weight="700" fill="#0284C7">CISD level</text>
  <line x1="80" y1="270" x2="700" y2="270" stroke="#6B7280" stroke-width="1" stroke-dasharray="4 3"/><text x="90" y="265" font-size="10" fill="#6B7280">SSL (bị quét)</text>

  <rect x="120" y="180" width="13" height="45" fill="#DC2626"/><rect x="142" y="200" width="13" height="55" fill="#DC2626"/><rect x="164" y="230" width="13" height="55" fill="#DC2626"/>
  <rect x="192" y="235" width="13" height="55" fill="#16A34A"/><circle cx="198" cy="292" r="8" fill="none" stroke="#F59E0B" stroke-width="2.5"/>
  <text x="150" y="315" font-size="9.5" font-weight="700" fill="#B45309">① sweep SSL + SMT (ES giữ đáy)</text>
  <rect x="220" y="150" width="13" height="115" fill="#16A34A"/><circle cx="226" cy="160" r="6" fill="#0EA5E9"/><text x="238" y="150" font-size="9.5" font-weight="700" fill="#0284C7">② CISD close</text>
  <rect x="214" y="205" width="28" height="24" fill="#DCFCE7" stroke="#16A34A" stroke-dasharray="3 3"/>
  <rect x="252" y="175" width="13" height="55" fill="#DC2626"/><circle cx="258" cy="220" r="8" fill="none" stroke="#16A34A" stroke-width="2.5"/><text x="270" y="212" font-size="9.5" font-weight="700" fill="#166534">③ entry FVG</text>
  <rect x="290" y="130" width="13" height="75" fill="#16A34A"/><rect x="312" y="120" width="13" height="55" fill="#16A34A"/>

  <rect x="24" y="316" width="712" height="94" rx="8" fill="#F9FAFB" stroke="#E5E7EB"/>
  <text x="36" y="338" font-size="12" font-weight="700" fill="#1F2937">Thang confluence (càng nhiều lớp, xác suất càng cao):</text>
  <rect x="36" y="350" width="150" height="46" rx="6" fill="#FEE2E2"/><text x="46" y="370" font-size="10" font-weight="700" fill="#B91C1C">SMT đơn lẻ</text><text x="46" y="386" font-size="9.5" fill="#374151">chỉ là cảnh báo</text>
  <rect x="196" y="350" width="160" height="46" rx="6" fill="#FEF3C7"/><text x="206" y="370" font-size="10" font-weight="700" fill="#B45309">SMT + sweep</text><text x="206" y="386" font-size="9.5" fill="#374151">có lý do đảo</text>
  <rect x="366" y="350" width="170" height="46" rx="6" fill="#DBEAFE"/><text x="376" y="370" font-size="10" font-weight="700" fill="#1D4ED8">+ CISD/MSS</text><text x="376" y="386" font-size="9.5" fill="#374151">có trigger</text>
  <rect x="546" y="350" width="180" height="46" rx="6" fill="#DCFCE7"/><text x="556" y="370" font-size="10" font-weight="700" fill="#166534">+ FVG/OB + killzone</text><text x="556" y="386" font-size="9.5" fill="#374151">A+ setup</text>
</svg>
