<svg viewBox="0 0 760 430" xmlns="http://www.w3.org/2000/svg" font-family="'Segoe UI', Arial, sans-serif"><rect x="0" y="0" width="760" height="430" rx="10" fill="#FBFBFD" stroke="#D8DBE2" stroke-width="1.5"/><text x="24" y="34" font-size="17" font-weight="700" fill="#1F2937">Bullish SMT vs Bearish SMT</text><text x="24" y="54" font-size="12.5" fill="#6B7280">Bullish = tại ĐÁY (A lower low, B higher low). Bearish = tại ĐỈNH (A higher high, B lower high).</text><rect x="24" y="72" width="352" height="330" rx="8" fill="#F0FDF4" stroke="#BBF7D0"/><text x="40" y="94" font-size="13" font-weight="700" fill="#166534">BULLISH SMT (tại đáy → mua)</text><line x1="40" y1="300" x2="360" y2="300" stroke="#6B7280" stroke-width="1" stroke-dasharray="4 3"/><text x="330" y="295" font-size="9" fill="#6B7280">SSL</text><text x="46" y="122" font-size="10.5" font-weight="700" fill="#166534">A (NQ): Lower Low ✓</text><line x1="65.0" y1="130" x2="65.0" y2="180" stroke="#DC2626" stroke-width="1.3"/><rect x="60" y="140" width="10" height="30" fill="#DC2626"/><line x1="85.0" y1="165" x2="85.0" y2="330" stroke="#DC2626" stroke-width="1.3"/><rect x="80" y="175" width="10" height="80" fill="#DC2626"/><circle cx="85" cy="330" r="7" fill="none" stroke="#B45309" stroke-width="2.5"/><text x="46" y="352" font-size="9" font-weight="700" fill="#B45309">quét SSL</text><text x="196" y="122" font-size="10.5" font-weight="700" fill="#166534">B (ES): Higher Low ✗</text><line x1="185.0" y1="140" x2="185.0" y2="190" stroke="#DC2626" stroke-width="1.3"/><rect x="180" y="150" width="10" height="30" fill="#DC2626"/><line x1="205.0" y1="175" x2="205.0" y2="285" stroke="#DC2626" stroke-width="1.3"/><rect x="200" y="185" width="10" height="70" fill="#DC2626"/><circle cx="205" cy="285" r="7" fill="none" stroke="#166534" stroke-width="2.5"/><text x="196" y="352" font-size="9" font-weight="700" fill="#166534">KHÔNG quét</text><path d="M92 335 Q160 250 250 150" fill="none" stroke="#166534" stroke-width="1.6"/><text x="255" y="150" font-size="10" font-weight="700" fill="#166534">↑ Long</text><rect x="392" y="72" width="344" height="330" rx="8" fill="#FEF2F2" stroke="#FECACA"/><text x="408" y="94" font-size="13" font-weight="700" fill="#B91C1C">BEARISH SMT (tại đỉnh → bán)</text><line x1="408" y1="150" x2="720" y2="150" stroke="#6B7280" stroke-width="1" stroke-dasharray="4 3"/><text x="695" y="145" font-size="9" fill="#6B7280">BSL</text><text x="414" y="360" font-size="10.5" font-weight="700" fill="#B91C1C">A (NQ): Higher High ✓</text><line x1="433.0" y1="270" x2="433.0" y2="320" stroke="#16A34A" stroke-width="1.3"/><rect x="428" y="280" width="10" height="30" fill="#16A34A"/><line x1="453.0" y1="120" x2="453.0" y2="290" stroke="#16A34A" stroke-width="1.3"/><rect x="448" y="195" width="10" height="80" fill="#16A34A"/><circle cx="453" cy="120" r="7" fill="none" stroke="#B45309" stroke-width="2.5"/><text x="575" y="360" font-size="10.5" font-weight="700" fill="#B91C1C">B (ES): Lower High ✗</text><line x1="565.0" y1="270" x2="565.0" y2="320" stroke="#16A34A" stroke-width="1.3"/><rect x="560" y="280" width="10" height="30" fill="#16A34A"/><line x1="585.0" y1="165" x2="585.0" y2="300" stroke="#16A34A" stroke-width="1.3"/><rect x="580" y="205" width="10" height="80" fill="#16A34A"/><circle cx="585" cy="165" r="7" fill="none" stroke="#B91C1C" stroke-width="2.5"/><path d="M460 120 Q540 210 640 320" fill="none" stroke="#B91C1C" stroke-width="1.6"/><text x="642" y="315" font-size="10" font-weight="700" fill="#B91C1C">↓ Short</text><text x="24" y="420" font-size="10.5" fill="#6B7280">Tài sản KHÔNG chịu tạo cực trị mới là phe được smart money bảo vệ = hướng đảo chiều.</text>
</svg>
