<svg viewBox="0 0 760 430" xmlns="http://www.w3.org/2000/svg" font-family="'Segoe UI', Arial, sans-serif"><rect x="0" y="0" width="760" height="430" rx="10" fill="#FBFBFD" stroke="#D8DBE2" stroke-width="1.5"/><text x="24" y="34" font-size="17" font-weight="700" fill="#1F2937">SMT nghịch đảo — đọc EURUSD bằng DXY</text><text x="24" y="54" font-size="12.5" fill="#6B7280">Cặp NGHỊCH tương quan: đỉnh của DXY phải khớp ĐÁY của EURUSD. Lệch = SMT.</text><rect x="24" y="72" width="352" height="320" rx="8" fill="#FFFFFF" stroke="#E5E7EB"/><text x="40" y="94" font-size="12.5" font-weight="700" fill="#1D4ED8">DXY — tạo HIGHER HIGH (quét BSL)</text><line x1="40" y1="120" x2="360" y2="120" stroke="#6B7280" stroke-width="1" stroke-dasharray="4 3"/><text x="300" y="115" font-size="9" fill="#6B7280">BSL</text><line x1="75.0" y1="240" x2="75.0" y2="300" stroke="#16A34A" stroke-width="1.3"/><rect x="70" y="250" width="10" height="40" fill="#16A34A"/><line x1="100.0" y1="150" x2="100.0" y2="265" stroke="#16A34A" stroke-width="1.3"/><rect x="95" y="170" width="10" height="85" fill="#16A34A"/><line x1="125.0" y1="130" x2="125.0" y2="250" stroke="#16A34A" stroke-width="1.3"/><rect x="120" y="190" width="10" height="50" fill="#16A34A"/><line x1="155.0" y1="95" x2="155.0" y2="225" stroke="#16A34A" stroke-width="1.3"/><rect x="150" y="150" width="10" height="60" fill="#16A34A"/><circle cx="155" cy="95" r="8" fill="none" stroke="#B45309" stroke-width="2.5"/><text x="90" y="330" font-size="10" font-weight="700" fill="#B45309">USD quét đỉnh (Higher High)</text><line x1="185.0" y1="150" x2="185.0" y2="230" stroke="#DC2626" stroke-width="1.3"/><rect x="180" y="160" width="10" height="60" fill="#DC2626"/><line x1="210.0" y1="150" x2="210.0" y2="285" stroke="#DC2626" stroke-width="1.3"/><rect x="205" y="220" width="10" height="55" fill="#DC2626"/><rect x="392" y="72" width="344" height="320" rx="8" fill="#FFFFFF" stroke="#E5E7EB"/><text x="408" y="94" font-size="12.5" font-weight="700" fill="#166534">EURUSD — giữ đáy (KHÔNG lower low)</text><line x1="408" y1="300" x2="720" y2="300" stroke="#6B7280" stroke-width="1" stroke-dasharray="4 3"/><text x="660" y="295" font-size="9" fill="#6B7280">SSL cũ</text><line x1="443.0" y1="120" x2="443.0" y2="180" stroke="#DC2626" stroke-width="1.3"/><rect x="438" y="130" width="10" height="40" fill="#DC2626"/><line x1="468.0" y1="165" x2="468.0" y2="275" stroke="#DC2626" stroke-width="1.3"/><rect x="463" y="175" width="10" height="80" fill="#DC2626"/><line x1="493.0" y1="140" x2="493.0" y2="290" stroke="#DC2626" stroke-width="1.3"/><rect x="488" y="150" width="10" height="100" fill="#DC2626"/><line x1="523.0" y1="180" x2="523.0" y2="285" stroke="#DC2626" stroke-width="1.3"/><rect x="518" y="190" width="10" height="70" fill="#DC2626"/><circle cx="523" cy="285" r="8" fill="none" stroke="#166534" stroke-width="2.5"/><text x="440" y="330" font-size="10" font-weight="700" fill="#166534">EUR KHÔNG phá đáy (Higher Low)</text><line x1="553.0" y1="150" x2="553.0" y2="265" stroke="#16A34A" stroke-width="1.3"/><rect x="548" y="200" width="10" height="55" fill="#16A34A"/><line x1="578.0" y1="140" x2="578.0" y2="225" stroke="#16A34A" stroke-width="1.3"/><rect x="573" y="150" width="10" height="65" fill="#16A34A"/><line x1="603.0" y1="100" x2="603.0" y2="185" stroke="#16A34A" stroke-width="1.3"/><rect x="598" y="110" width="10" height="65" fill="#16A34A"/><path d="M528 290 Q580 200 620 110" fill="none" stroke="#166534" stroke-width="1.6"/><text x="620" y="105" font-size="10" font-weight="700" fill="#166534">↑ Long EU</text><text x="24" y="412" font-size="11" font-weight="700" fill="#1D4ED8">DXY quét đỉnh mà EURUSD giữ đáy → BULLISH SMT cho EURUSD (USD bị hấp thụ ở đỉnh).</text>
</svg>
