<svg viewBox="0 0 760 430" xmlns="http://www.w3.org/2000/svg" font-family="'Segoe UI', Arial, sans-serif"><rect x="0" y="0" width="760" height="430" rx="10" fill="#FBFBFD" stroke="#D8DBE2" stroke-width="1.5"/><text x="24" y="34" font-size="17" font-weight="700" fill="#1F2937">SMT đa khung: HTF chọn hướng, LTF tinh chỉnh entry</text><text x="24" y="54" font-size="12.5" fill="#6B7280">HTF SMT (H4/H1) = bias liên thị trường. LTF SMT (M5/M1) cùng hướng = entry chính xác.</text><rect x="24" y="72" width="352" height="330" rx="8" fill="#EFF6FF" stroke="#BFDBFE"/><text x="40" y="94" font-size="12.5" font-weight="700" fill="#1D4ED8">① HTF (H4/H1) — chọn BIAS</text><line x1="40" y1="300" x2="360" y2="300" stroke="#6B7280" stroke-width="1" stroke-dasharray="4 3"/><text x="300" y="295" font-size="9" fill="#6B7280">HTF SSL</text><line x1="65.0" y1="130" x2="65.0" y2="190" stroke="#DC2626" stroke-width="1.3"/><rect x="60" y="140" width="10" height="40" fill="#DC2626"/><line x1="100.0" y1="120" x2="100.0" y2="300" stroke="#DC2626" stroke-width="1.3"/><rect x="95" y="180" width="10" height="60" fill="#DC2626"/><line x1="135.0" y1="190" x2="135.0" y2="260" stroke="#16A34A" stroke-width="1.3"/><rect x="130" y="200" width="10" height="50" fill="#16A34A"/><line x1="170.0" y1="150" x2="170.0" y2="332" stroke="#DC2626" stroke-width="1.3"/><rect x="165" y="210" width="10" height="50" fill="#DC2626"/><circle cx="170" cy="330" r="8" fill="none" stroke="#B45309" stroke-width="2.5"/><text x="60" y="358" font-size="10" font-weight="700" fill="#1D4ED8">HTF Bullish SMT → bias = LONG</text><rect x="150" y="300" width="60" height="40" fill="#DBEAFE" opacity="0.5" stroke="#1D4ED8" stroke-dasharray="3 3"/><text x="215" y="325" font-size="9" fill="#1D4ED8">vùng zoom →</text><path d="M378 220 L392 220" stroke="#6B7280" stroke-width="2" marker-end="url(#arr)"/><defs><marker id="arr" markerWidth="8" markerHeight="8" refX="6" refY="3" orient="auto"><path d="M0 0 L6 3 L0 6 z" fill="#6B7280"/></marker></defs><rect x="392" y="72" width="344" height="330" rx="8" fill="#F0FDF4" stroke="#BBF7D0"/><text x="408" y="94" font-size="12.5" font-weight="700" fill="#166534">② LTF (M5/M1) — tinh chỉnh ENTRY</text><line x1="408" y1="290" x2="720" y2="290" stroke="#6B7280" stroke-width="1" stroke-dasharray="4 3"/><text x="650" y="285" font-size="9" fill="#6B7280">LTF SSL</text><line x1="408" y1="180" x2="720" y2="180" stroke="#0284C7" stroke-width="1.4" stroke-dasharray="6 4"/><text x="640" y="175" font-size="9" font-weight="700" fill="#0284C7">CISD</text><line x1="435.0" y1="140" x2="435.0" y2="200" stroke="#DC2626" stroke-width="1.3"/><rect x="430" y="150" width="10" height="40" fill="#DC2626"/><line x1="460.0" y1="175" x2="460.0" y2="240" stroke="#DC2626" stroke-width="1.3"/><rect x="455" y="185" width="10" height="45" fill="#DC2626"/><line x1="485.0" y1="190" x2="485.0" y2="290" stroke="#DC2626" stroke-width="1.3"/><rect x="480" y="200" width="10" height="50" fill="#DC2626"/><line x1="510.0" y1="150" x2="510.0" y2="315" stroke="#16A34A" stroke-width="1.3"/><rect x="505" y="240" width="10" height="45" fill="#16A34A"/><circle cx="510" cy="313" r="7" fill="none" stroke="#B45309" stroke-width="2.5"/><text x="470" y="335" font-size="9.5" font-weight="700" fill="#B45309">LTF SMT + sweep</text><rect x="498" y="200" width="26" height="24" fill="#DCFCE7" stroke="#16A34A" stroke-dasharray="3 3"/><line x1="535.0" y1="195" x2="535.0" y2="255" stroke="#DC2626" stroke-width="1.3"/><rect x="530" y="205" width="10" height="40" fill="#DC2626"/><circle cx="535" cy="222" r="7" fill="none" stroke="#166534" stroke-width="2.5"/><text x="545" y="220" font-size="9.5" font-weight="700" fill="#166534">entry FVG</text><line x1="561.0" y1="140" x2="561.0" y2="215" stroke="#16A34A" stroke-width="1.3"/><rect x="556" y="150" width="10" height="55" fill="#16A34A"/><line x1="585.0" y1="110" x2="585.0" y2="180" stroke="#16A34A" stroke-width="1.3"/><rect x="580" y="120" width="10" height="50" fill="#16A34A"/><text x="408" y="392" font-size="10" fill="#374151">SMT đồng thuận HTF + LTF cùng hướng = confluence hạng nhất.</text>
</svg>
